<?xml version="1.0" standalone="no"?>
<!DOCTYPE svg PUBLIC "-//W3C//DTD SVG 1.1//EN" "http://www.w3.org/Graphics/SVG/1.1/DTD/svg11.dtd" >
<svg>
<metadata>
Created by FontForge 20090914 at Thu Jul  1 06:31:04 2021
 By www-data
Copyright 2018 The Roboto Slab Project Authors (https://github.com/googlefonts/robotoslab)
</metadata>
<defs>
<font id="RobotoSlab-ExtraLight" horiz-adv-x="0" >
  <font-face 
    font-family="Roboto Slab ExtraLight"
    font-weight="250"
    font-stretch="normal"
    units-per-em="2048"
    panose-1="0 0 0 0 0 0 0 0 0 0"
    ascent="1638"
    descent="-410"
    x-height="1082"
    cap-height="1456"
    bbox="-147.003 -555 2611 2146"
    underline-thickness="100"
    underline-position="-100"
    unicode-range="U+000D-U+FFFD"
  />
<missing-glyph horiz-adv-x="1038" 
d="M100 0v1456h838v-1456h-838zM154 54h730v1348h-730v-1348zM858 20l-738 1416h60l738 -1416h-60zM120 20l738 1416h60l-738 -1416h-60z" />
    <glyph glyph-name="fi" unicode="fi" horiz-adv-x="1196" 
d="M86 0l0.000976562 71l163 6v929h-184v76h184v149c0 111.333 30.167 197.5 90.5 258.5s143.833 91.5 250.5 91.5c44.667 0 89.5 -4.66699 134.5 -14s90.833 -24 137.5 -44l-14 -77c-42 18 -81.833 31.5 -119.5 40.5s-82.5 13.5 -134.5 13.5
c-82.667 0 -146.334 -23.5 -191.001 -70.5s-67 -113.167 -67 -198.5v-149h624v-1005l163 -6v-71h-413v71l163 6v929h-537v-929l163 -6v-71h-413z" />
    <glyph glyph-name="fl" unicode="fl" horiz-adv-x="1314" 
d="M86 0v71.001l163 6v929h-164v76h164v124c0 119.333 35 211.666 105 276.999s167 98 291 98c58.667 0 118 -5.66699 178 -17s119.667 -29.333 179 -54h24v-1433l163 -6v-71h-413v71l163 6v1375c-43.333 16 -88 28 -134 36s-97.667 12 -155 12
c-108 0 -187.333 -25 -238 -75s-76 -123 -76 -219v-124h291v-76h-291v-929l163 -6v-71h-413z" />
    <glyph glyph-name=".notdef" horiz-adv-x="1038" 
d="M100 0v1456h838v-1456h-838zM154 54h730v1348h-730v-1348zM858 20l-738 1416h60l738 -1416h-60zM120 20l738 1416h60l-738 -1416h-60z" />
    <glyph glyph-name="CR" unicode="&#xd;" horiz-adv-x="494" 
 />
    <glyph glyph-name="space" unicode=" " horiz-adv-x="494" 
 />
    <glyph glyph-name="exclam" unicode="!" horiz-adv-x="448" 
d="M158 478v978h87v-978h-87zM143 0v150h119v-150h-119z" />
    <glyph glyph-name="quotedbl" unicode="&#x22;" horiz-adv-x="641" 
d="M166 1107l12 274v179h78v-181l-29 -272h-61zM377 1107l12 274v179h78v-181l-29 -272h-61z" />
    <glyph glyph-name="numbersign" unicode="#" horiz-adv-x="1246" 
d="M250 0l76 410h-263v72h277l89 484h-290v74h304l76 416h78l-77 -416h340l77 416h78l-78 -416h242v-74h-255l-90 -484h270v-72h-283l-77 -410h-77l76 410h-339l-76 -410h-78zM418 482h338l90 484h-340z" />
    <glyph glyph-name="dollar" unicode="$" horiz-adv-x="1092" 
d="M509 -208l-0.00195312 187.997c-82 4 -155.667 21.667 -221 53s-116.333 78 -153 140s-54 140.333 -52 235l2 6h79c0 -84 17.167 -152.167 51.5 -204.5s80.166 -90.666 137.499 -114.999s120.333 -36.5 189 -36.5c69.333 0 129.333 13 180 39s90.167 61.167 118.5 105.5
s42.5 93.833 42.5 148.5c0 54 -10.833 100.167 -32.5 138.5s-57.834 73.333 -108.501 105s-120 62.834 -208 93.501c-94 30.667 -171 63.834 -231 99.501s-104.5 78.5 -133.5 128.5s-43.5 112.333 -43.5 187c0 107.333 34.167 194.5 102.5 261.5s160.5 103.833 276.5 110.5
v195h79v-195c118.667 -8.66699 210.834 -50.667 276.501 -126s97.834 -177.666 96.501 -306.999l-5 -4h-78c0 106 -29.167 192.5 -87.5 259.5s-139.833 100.5 -244.5 100.5c-107.333 0 -189 -28.167 -245 -84.5s-84 -125.833 -84 -208.5
c0 -54.667 9.83301 -101.5 29.5 -140.5s54.834 -74 105.501 -105s122.334 -61.833 215.001 -92.5c92.667 -32 169 -65.667 229 -101s104.667 -77.833 134 -127.5s44 -111.5 44 -185.5c0 -108.667 -34.667 -195.834 -104 -261.501s-162 -102.5 -278 -110.5v-189h-79z" />
    <glyph glyph-name="percent" unicode="%" horiz-adv-x="1458" 
d="M396 126l-60 39l711 1138l60 -39zM1101 -21c-56 0 -104.999 13.334 -146.999 40.001s-74.667 62.667 -98 108s-35 96 -35 152v78c0 55.333 11.667 105.666 35 150.999s55.833 81.5 97.5 108.5s90.167 40.5 145.5 40.5c54.667 0 103 -13.333 145 -40
s74.833 -62.667 98.5 -108s35.5 -96 35.5 -152v-78c0 -56 -11.667 -106.667 -35 -152s-55.833 -81.333 -97.5 -108s-89.834 -40 -144.501 -40zM1101 49.001c64 0 113.5 22.5 148.5 67.5s52.5 99.167 52.5 162.5v78c0 66 -17.5 120.833 -52.5 164.5s-85.167 65.5 -150.5 65.5
c-64 0 -113.667 -22 -149 -66s-53 -98.667 -53 -164v-78c0 -63.333 17.5 -117.5 52.5 -162.5s85.5 -67.5 151.5 -67.5zM357.001 800.001c-55.333 0 -104.168 13.333 -146.501 40s-75.166 62.5 -98.499 107.5s-35 95.5 -35 151.5v77c0 56 11.667 106.833 35 152.5
s56 81.834 98 108.501s90.333 40 145 40s103 -13.333 145 -40s74.833 -62.834 98.5 -108.501s35.5 -96.5 35.5 -152.5v-77c0 -56 -11.833 -106.5 -35.5 -151.5s-56.167 -80.833 -97.5 -107.5s-89.333 -40 -144 -40zM356.999 870.001c64 0 113.501 22.499 148.501 67.499
s52.5 98.833 52.5 161.5v77c0 62.667 -17.667 116.834 -53 162.501s-85.333 68.5 -150 68.5c-64 0 -113.667 -23 -149 -69s-53 -100 -53 -162v-77c0 -62.667 17.667 -116.5 53 -161.5s85.666 -67.5 150.999 -67.5z" />
    <glyph glyph-name="ampersand" unicode="&#x26;" horiz-adv-x="1261" 
d="M517 -21c-91.333 0 -170.003 15.6689 -236.003 47.002s-117 75.666 -153 132.999s-54 124.666 -54 201.999s22.5 147.666 67.5 210.999s108.833 128.333 191.5 195l21.5 17l20.5 16c-54 68 -94 129.667 -120 185s-39 112.666 -39 171.999c0 68.667 13 126.834 39 174.501
s62.667 83.834 110 108.501s104 37 170 37c62 0 114.833 -11.5 158.5 -34.5s77.334 -55 101.001 -96s35.5 -88.5 35.5 -142.5c0 -58 -14 -107.5 -42 -148.5s-67.667 -81.833 -119 -122.5l-181 -142l444 -510c34 49.333 60.667 104.333 80 165s29 125.667 29 195h83
c0 -84 -12 -160.833 -36 -230.5s-58 -133.5 -102 -191.5l185 -214l-2 -5h-99l-140 160c-51.333 -50 -110.166 -92.667 -176.499 -128s-145.166 -53 -236.499 -53zM516.997 56.002c67.333 0 132.332 14 194.999 42s118.334 68.333 167.001 121l-455 522l-49 -39
c-84.667 -70.667 -141.5 -133.167 -170.5 -187.5s-43.5 -105.5 -43.5 -153.5c0 -86 30.667 -158.333 92 -217s149.333 -88 264 -88zM440.996 847.002l191.999 150.002c40 31.333 68.667 64.166 86 98.499s26 70.5 26 108.5c0 57.333 -18.167 104.333 -54.5 141
s-88.166 55 -155.499 55c-74 0 -131 -23 -171 -69s-60 -103.333 -60 -172c0 -48.667 11 -98.834 33 -150.501s56.667 -105.5 104 -161.5z" />
    <glyph glyph-name="quotesingle" unicode="'" horiz-adv-x="430" 
d="M166 1107l12 274v179h78v-181l-29 -272h-61z" />
    <glyph glyph-name="parenleft" unicode="(" horiz-adv-x="626" 
d="M544 -463c-57.333 34.667 -111.833 85.0029 -163.5 151.003s-97.5 144.333 -137.5 235s-71.5 190.834 -94.5 300.501s-34.5 225.167 -34.5 346.5v17c0 117.333 11.5 230.5 34.5 339.5s54.5 209.833 94.5 302.5s85.833 172.834 137.5 240.501s106.167 118.167 163.5 151.5
l6 -1l21 -54c-50 -34.667 -97.167 -84.334 -141.5 -149.001s-83.666 -140.834 -117.999 -228.501s-61.333 -182.334 -81 -284.001s-29.5 -206.167 -29.5 -313.5v-23c0 -108.667 9.83301 -213.834 29.5 -315.501s46.667 -196.334 81 -284.001s73.666 -164 117.999 -229
s91.5 -114.833 141.5 -149.5l-21 -53h-6z" />
    <glyph glyph-name="parenright" unicode=")" horiz-adv-x="619" 
d="M32 -463l-20.9961 53.002c49.333 34 96.333 83.5 141 148.5s84 141.333 118 229s61 182.5 81 284.5s30 207.333 30 316v23c0 107.333 -10 211.833 -30 313.5s-47.167 196.5 -81.5 284.5s-73.833 164.5 -118.5 229.5s-91.334 114.833 -140.001 149.5l21 53h6
c56.667 -33.333 110.667 -83.833 162 -151.5s97.166 -147.834 137.499 -240.501s72.166 -193.5 95.499 -302.5s35 -222.167 35 -339.5v-17c0 -121.333 -11.667 -236.833 -35 -346.5s-54.833 -209.834 -94.5 -300.501s-85.334 -169 -137.001 -235
s-106.167 -116.333 -163.5 -151h-6z" />
    <glyph glyph-name="asterisk" unicode="*" horiz-adv-x="950" 
d="M697 651l-228 314l-216 -315l-65 46l226 313l-348 116l25 77l347 -128l-2 382h81l-8 -384l338 135l27 -77l-347 -125l236 -307z" />
    <glyph glyph-name="plus" unicode="+" horiz-adv-x="1145" 
d="M521 146v493h-448v82h448v485h88v-485h462v-82h-462v-493h-88z" />
    <glyph glyph-name="comma" unicode="," horiz-adv-x="388" 
d="M130 -268l-54 41.999c30.667 42 53.334 83.333 68.001 124s22 86.334 22 137.001v138h87v-136c0 -60 -10.833 -116.167 -32.5 -168.5s-51.834 -97.833 -90.501 -136.5z" />
    <glyph glyph-name="hyphen" unicode="-" horiz-adv-x="791" 
d="M154 585v77h474v-77h-474z" />
    <glyph glyph-name="period" unicode="." horiz-adv-x="455" 
d="M145 0v147h112v-147h-112z" />
    <glyph glyph-name="slash" unicode="/" horiz-adv-x="787" 
d="M0 -125l608 1581h84l-608 -1581h-84z" />
    <glyph glyph-name="zero" unicode="0" horiz-adv-x="1154" 
d="M570 -21c-140.667 0 -250.669 51.3311 -330.002 153.998s-119 248.334 -119 437.001v316c0 188.667 39.333 334.334 118 437.001s188.334 154 329.001 154c141.333 0 251.5 -51.333 330.5 -154s118.5 -248.334 118.5 -437.001v-316
c0 -189.333 -39.167 -335.166 -117.5 -437.499s-188.166 -153.5 -329.499 -153.5zM569.998 55.998c117.333 0 206.666 44.5 267.999 133.5s92 213.167 92 372.5v334c0 159.333 -30.833 283.166 -92.5 371.499s-151.5 132.5 -269.5 132.5
c-117.333 0 -206.666 -44.167 -267.999 -132.5s-92 -212.166 -92 -371.499v-334c0 -158.667 31 -282.667 93 -372s151.667 -134 269 -134z" />
    <glyph glyph-name="one" unicode="1" horiz-adv-x="826" 
d="M111 0v71l277 6v1292l-313 -60v67l400 86v-1385l277 -6v-71h-641z" />
    <glyph glyph-name="two" unicode="2" horiz-adv-x="1110" 
d="M104 0l-0.000976562 72.999l477 545c60 68.667 108.333 129.834 145 183.501s63.5 103 80.5 148s25.5 88.833 25.5 131.5c0 98 -27.667 175.667 -83 233s-135.666 86 -240.999 86c-111.333 0 -197.666 -32.833 -258.999 -98.5s-92 -152.167 -92 -259.5h-79l-2 6
c-2 79.333 14.5 151.5 49.5 216.5s85.5 116.667 151.5 155s143.667 57.5 233 57.5c83.333 0 155.666 -15.833 216.999 -47.5s108.833 -77 142.5 -136s50.5 -129.167 50.5 -210.5c0 -54 -11.5 -108 -34.5 -162s-56.333 -111 -100 -171s-96.5 -125.667 -158.5 -197l-409 -471
l2 -5h688l3 222h81v-299h-888z" />
    <glyph glyph-name="three" unicode="3" horiz-adv-x="1100" 
d="M537 -21c-83.333 0 -160.669 16.3291 -232.002 48.9961s-128 80 -170 142s-62 136.667 -60 224l2 6h79c0 -67.333 16.5 -126.833 49.5 -178.5s78 -92.167 135 -121.5s122.5 -44 196.5 -44c111.333 0 198.166 29 260.499 87s93.5 139.333 93.5 244
c0 108 -34.167 187.667 -102.5 239s-163.5 77 -285.5 77h-125v79h125c76 0 140.667 13 194 39s94 61.5 122 106.5s42 96.5 42 154.5c0 94.667 -28 171.334 -84 230.001s-138.333 88 -247 88c-67.333 0 -127.166 -13.5 -179.499 -40.5s-93.5 -64.833 -123.5 -113.5
s-45 -105.667 -45 -171h-79l-2 6c-2 77.333 15.5 145.833 52.5 205.5s88.333 106.334 154 140.001s139.834 50.5 222.501 50.5c127.333 0 228.833 -35.5 304.5 -106.5s113.5 -168.5 113.5 -292.5c0 -73.333 -22.833 -140.166 -68.5 -200.499s-108.167 -104.5 -187.5 -132.5
c92.667 -24 163.5 -66.667 212.5 -128s73.5 -136.666 73.5 -225.999c0 -86 -18.667 -159.667 -56 -221s-89.166 -108.5 -155.499 -141.5s-142.833 -49.5 -229.5 -49.5z" />
    <glyph glyph-name="four" unicode="4" horiz-adv-x="1174" 
d="M594 0v71l163 6v306h-694v49l683 1024h98v-996h240v-77h-240v-306l163 -6v-71h-413zM176 460h581v873l-6 2l-65 -112z" />
    <glyph glyph-name="five" unicode="5" horiz-adv-x="1066" 
d="M507 -21c-79.333 0 -150.33 15.0049 -212.997 45.0049s-111.667 74.5 -147 133.5s-52 132.167 -50 219.5l2 6h77c0 -106.667 30 -187.834 90 -243.501s140.333 -83.5 241 -83.5c118.667 0 206.667 34.167 264 102.5s86 169.5 86 303.5c0 116 -28.667 208 -86 276
s-137.333 102 -240 102c-99.333 0 -176.5 -16.333 -231.5 -49s-94.833 -81.334 -119.5 -146.001l-69 16l79 795h716v-213h-75l-5 132h-559l-58 -570c26 25.333 53.333 46.5 82 63.5s62.5 30.167 101.5 39.5s87.167 15 144.5 17c80 1.33301 150.667 -16.667 212 -54
s109.166 -90.833 143.499 -160.5s51.5 -151.834 51.5 -246.501c0 -98.667 -15.833 -184.334 -47.5 -257.001s-79.834 -128.834 -144.501 -168.501s-146.334 -59.5 -245.001 -59.5z" />
    <glyph glyph-name="six" unicode="6" horiz-adv-x="1116" 
d="M569 -21c-88 0 -165.666 22.667 -232.999 68s-120 111 -158 197s-57 190.333 -57 313v297c0 136 20.333 250.167 61 342.5s96.667 162.166 168 209.499s153 71 245 71c50 0 99.333 -5.5 148 -16.5s93 -28.167 133 -51.5l-25 -73
c-40.667 23.333 -79.834 39.833 -117.501 49.5s-83.834 14.5 -138.501 14.5c-113.333 0 -205.666 -43.5 -276.999 -130.5s-107.666 -218.167 -108.999 -393.5l1 -136c32.667 64 81.834 116.5 147.501 157.5s140.5 61.5 224.5 61.5c87.333 0 162.666 -20.5 225.999 -61.5
s112 -98.5 146 -172.5s51 -160 51 -258c0 -94 -18.667 -177.667 -56 -251s-88.833 -131.166 -154.5 -173.499s-140.834 -63.5 -225.501 -63.5zM569.001 55c69.333 0 130.167 18.501 182.5 55.501s93.166 86.833 122.499 149.5s44 131.667 44 207
c0 126 -30.167 227 -90.5 303s-147.166 114 -260.499 114c-62.667 0 -120.667 -13.833 -174 -41.5s-96.5 -64.334 -129.5 -110.001s-51.5 -96.167 -55.5 -151.5v-29c0 -158 33.167 -280.333 99.5 -367s153.5 -130 261.5 -130z" />
    <glyph glyph-name="seven" unicode="7" horiz-adv-x="1110" 
d="M379 0l8.00098 105.999c19.333 170.667 52.166 330.334 98.499 479.001s106.333 288.667 180 420s159.834 256 258.501 374h-764l-4 -223h-80v300h942v-77c-75.333 -88.667 -143.333 -179.667 -204 -273s-113.834 -191.5 -159.501 -294.5s-83.5 -212.667 -113.5 -329
s-52.333 -241.833 -67 -376.5l-8 -106h-87z" />
    <glyph glyph-name="eight" unicode="8" horiz-adv-x="1125" 
d="M559 -21c-92 0 -173.168 15.498 -243.501 46.498s-125.166 76.667 -164.499 137s-59 133.5 -59 219.5c0 87.333 27.333 163.333 82 228s127.667 110 219 136c-79.333 25.333 -142.5 67.833 -189.5 127.5s-70.5 129.834 -70.5 210.501c0 82.667 18 153.334 54 212.001
s86 103.5 150 134.5s137.333 46.5 220 46.5c82 0 155.167 -15.667 219.5 -47s114.833 -76.333 151.5 -135s55 -129 55 -211c0 -80 -24 -150 -72 -210s-111.667 -102.667 -191 -128c90.667 -26 164 -71.5 220 -136.5s84 -140.833 84 -227.5
c0 -86 -19.833 -159.167 -59.5 -219.5s-94.5 -106 -164.5 -137s-150.333 -46.5 -241 -46.5zM558.999 55.998c72.667 0 137.499 13 194.499 39s101.833 63 134.5 111s49 106 49 174c0 64.667 -16.667 121.667 -50 171s-78.666 87.666 -135.999 114.999s-122 41 -194 41
c-72.667 0 -137.5 -13.667 -194.5 -41s-101.833 -65.666 -134.5 -114.999s-49 -106.333 -49 -171c0 -102 35.333 -181.5 106 -238.5s162 -85.5 274 -85.5zM558.998 784.998c64.667 0 122.333 12.502 173 37.502s90.667 60 120 105s44 98.167 44 159.5
c0 59.333 -15 112.666 -45 159.999s-70.667 84.666 -122 111.999s-108.666 41 -171.999 41c-98.667 0 -179.5 -28.5 -242.5 -85.5s-94.5 -132.833 -94.5 -227.5c0 -92 31.667 -165.333 95 -220s144.666 -82 243.999 -82z" />
    <glyph glyph-name="nine" unicode="9" horiz-adv-x="1132" 
d="M503 -21c-51.333 0 -103.167 5.16895 -155.5 15.502s-103.5 25.833 -153.5 46.5l19 78c48 -22 94.333 -38 139 -48s95 -15 151 -15c118.667 0 211.334 43.667 278.001 131s100.334 218.666 101.001 393.999l-1 96c-34.667 -66.667 -83.834 -118.667 -147.501 -156
s-135.167 -56 -214.5 -56c-86 0 -161.667 21.5 -227 64.5s-116.333 101.667 -153 176s-55 158.5 -55 252.5c0 96.667 19 184.334 57 263.001s90.167 141 156.5 187s141.5 69 225.5 69c92 0 172 -20.333 240 -61s120.667 -102.167 158 -184.5s56 -185.833 56 -310.5v-325
c0 -136.667 -19.333 -250.834 -58 -342.501s-93.334 -160.334 -164.001 -206.001s-154.667 -68.5 -252 -68.5zM518.999 542.002c92.667 0 170.168 25.5 232.501 76.5s106.5 112.833 132.5 185.5v121c0 160.667 -32 280 -96 358s-150.667 117 -260 117
c-68.667 0 -129.334 -20.333 -182.001 -61s-94 -94.5 -124 -161.5s-45 -140.167 -45 -219.5c0 -77.333 14.167 -147.333 42.5 -210s68 -112.667 119 -150s111.167 -56 180.5 -56z" />
    <glyph glyph-name="colon" unicode=":" horiz-adv-x="377" 
d="M124 0v147h112v-147h-112zM124 933v147h112v-147h-112z" />
    <glyph glyph-name="semicolon" unicode=";" horiz-adv-x="378" 
d="M130 935v147h112v-147h-112zM125 -268l-54 41.999c30.667 42 53.334 83.333 68.001 124s22 86.334 22 137.001v138h87v-136c0 -60 -10.833 -116.167 -32.5 -168.5s-51.834 -97.833 -90.501 -136.5z" />
    <glyph glyph-name="less" unicode="&#x3c;" horiz-adv-x="1025" 
d="M908 129l-832 379v73l832 378v-91l-637 -291l-111 -32v-6l111 -32l637 -286v-92z" />
    <glyph glyph-name="equal" unicode="=" horiz-adv-x="1127" 
d="M147 838v80h834v-80h-834zM147 429v80h834v-80h-834z" />
    <glyph glyph-name="greater" unicode="&#x3e;" horiz-adv-x="1054" 
d="M125 125v91l646 291l110 32v6l-110 33l-646 288v89l840 -378v-73z" />
    <glyph glyph-name="question" unicode="?" horiz-adv-x="913" 
d="M362 402c0 42 1.33105 76.334 3.99805 103.001s8.33398 50.334 17.001 71.001s21.667 41 39 61s40.666 43.333 69.999 70c52.667 49.333 94.834 93.5 126.501 132.5s54.667 79.167 69 120.5s21.5 90.333 21.5 147c0 91.333 -24.333 162.666 -73 213.999
s-117.667 77 -207 77c-86.667 0 -155 -25.5 -205 -76.5s-75.667 -119.5 -77 -205.5h-79l-3 6c-0.666992 74.667 14.5 138.5 45.5 191.5s74 93.5 129 121.5s118.167 42 189.5 42c114 0 203.667 -33.667 269 -101s98 -157 98 -269c0 -61.333 -9.16699 -116.833 -27.5 -166.5
s-46.333 -97.667 -84 -144s-85.167 -95.833 -142.5 -148.5c-27.333 -25.333 -47.666 -48.333 -60.999 -69s-22 -44.334 -26 -71.001s-6 -62 -6 -106h-87zM357.998 0.000976562v130h110v-130h-110z" />
    <glyph glyph-name="at" unicode="@" horiz-adv-x="1804" 
d="M858 -453c-166 0 -308 37.665 -426 112.998s-207.167 182.5 -267.5 321.5s-86.5 304.5 -78.5 496.5c8 188.667 49 353.167 123 493.5s174.667 249.5 302 327.5s274.666 117 441.999 117c173.333 0 318.166 -35.833 434.499 -107.5s202.666 -174.334 258.999 -308.001
s80.5 -294.5 72.5 -482.5c-4 -96.667 -22.5 -186 -55.5 -268s-79.833 -147.667 -140.5 -197s-135 -74 -223 -74c-54 0 -98.5 18.833 -133.5 56.5s-56.5 89.834 -64.5 156.501c-71.333 -142 -178.666 -213 -321.999 -213c-88.667 0 -155.5 39.833 -200.5 119.5
s-61.5 185.5 -49.5 317.5c10.667 112 35.834 209.667 75.501 293s90.334 148.166 152.001 194.499s130.167 69.5 205.5 69.5c58.667 0 106.167 -9.16699 142.5 -27.5s76.5 -45.5 120.5 -81.5l-1 -22l-48 -549c-4.66699 -63.333 -1 -112.666 11 -147.999
s29.167 -60.166 51.5 -74.499s46.5 -21.5 72.5 -21.5c100 0 178.833 43.333 236.5 130s89.834 199.667 96.501 339c12.667 262 -39 465.5 -155 610.5s-296.333 217.5 -541 217.5c-150.667 0 -283.5 -36.167 -398.5 -108.5s-206.333 -173.5 -274 -303.5
s-105.834 -282 -114.501 -456c-8.66699 -170.667 13 -320.667 65 -450s131.833 -230.166 239.5 -302.499s240.167 -108.5 397.5 -108.5c64 0 125.167 7 183.5 21s108.166 33 149.499 57l27 -59c-42 -26.667 -97.167 -48.167 -165.5 -64.5s-135.166 -24.5 -200.499 -24.5z
M792 53.998c65.333 0 124.165 19 176.498 57s96.833 108 133.5 210v15.5c0 5 0.666992 10.5 2 16.5l41 478c-21.333 22 -46.666 39 -75.999 51s-62.666 18 -99.999 18c-92 0 -170.333 -40.833 -235 -122.5s-105 -202.167 -121 -361.5c-12 -107.333 -2.5 -194.5 28.5 -261.5
s81.167 -100.5 150.5 -100.5z" />
    <glyph glyph-name="A" unicode="A" horiz-adv-x="1486" 
d="M58 0v71l108 3l520 1382h90l519 -1382l107 -3v-71h-334v71l135 4l-132 355h-682l-132 -355l135 -4v-71h-334zM419 510h623l-284 767l-24 71h-6l-24 -71z" />
    <glyph glyph-name="B" unicode="B" horiz-adv-x="1264" 
d="M73 0v70.9971l163 6v1302l-163 6v71h163h402c151.333 0 268.833 -31.5 352.5 -94.5s125.5 -157.5 125.5 -283.5c0 -81.333 -21.833 -150.666 -65.5 -207.999s-104.5 -94.666 -182.5 -111.999c60 -8.66699 113.5 -30 160.5 -64s84.167 -76.167 111.5 -126.5
s41 -105.166 41 -164.499c0 -128.667 -41.667 -228 -125 -298s-194.333 -105 -333 -105h-650zM323 76.9971l400 0.00195312c115.333 0 205.833 28.5 271.5 85.5s98.5 136.5 98.5 238.5c0 59.333 -13.667 112.166 -41 158.499s-67.5 83.166 -120.5 110.499
s-117.5 41 -193.5 41h-415v-634zM323 787.999h342c118.667 0 209 24.5 271 73.5s93 122.5 93 220.5s-33 172 -99 222s-163.333 75 -292 75h-315v-591z" />
    <glyph glyph-name="C" unicode="C" horiz-adv-x="1335" 
d="M781 -21c-142 0 -262.336 31.333 -361.003 94s-173.667 149.5 -225 260.5s-77 239.5 -77 385.5v18c0 146 26.5 274.5 79.5 385.5s127.333 197.833 223 260.5s207.834 94 336.501 94c102.667 0 188.834 -13.667 258.501 -41s133.167 -66.333 190.5 -117v-270h-78l-5 233
c-32.667 25.333 -66.167 46.5 -100.5 63.5s-72.666 30 -114.999 39s-92.833 13.5 -151.5 13.5c-110 0 -206.333 -27.667 -289 -83s-146.834 -132.5 -192.501 -231.5s-68.5 -213.833 -68.5 -344.5v-20c0 -133.333 22.667 -249.5 68 -348.5s111 -176 197 -231
s189.333 -82.5 310 -82.5c66.667 0 131.334 8.5 194.001 25.5s115.667 40.167 159 69.5l5 227h78v-280c-60.667 -40 -128 -70 -202 -90s-152 -30 -234 -30z" />
    <glyph glyph-name="D" unicode="D" horiz-adv-x="1379" 
d="M73 0l-0.000976562 71.001l163 6v1302l-163 6v71h163h398c121.333 0 228.833 -30.833 322.5 -92.5s167.334 -146.334 221.001 -254.001s80.5 -231.5 80.5 -371.5v-21c0 -138.667 -26.5 -262 -79.5 -370s-126.167 -192.833 -219.5 -254.5s-201 -92.5 -323 -92.5h-563z
M322.999 77.001h311c104.667 0 197.334 28 278.001 84s144 132.333 190 229s69 205.667 69 327v24c0 122 -23 231 -69 327s-109.333 171.833 -190 227.5s-173.334 83.5 -278.001 83.5h-311v-1302z" />
    <glyph glyph-name="E" unicode="E" horiz-adv-x="1278" 
d="M73 0v71l163 6v1302l-163 6v71h1033v-306h-78l-5 229h-700v-583h609v-77h-609v-643h730l5 230h78v-306h-1063z" />
    <glyph glyph-name="F" unicode="F" horiz-adv-x="1248" 
d="M73 0v71l163 6v1302l-163 6v71h1072v-306h-78l-5 229h-739v-601h620v-79h-620v-622l163 -6v-71h-413z" />
    <glyph glyph-name="G" unicode="G" horiz-adv-x="1401" 
d="M763 -21c-133.333 0 -248.167 31.165 -344.5 93.498s-170.5 149.166 -222.5 260.499s-78 240 -78 386v35c0 142.667 27 268.334 81 377.001s128 193.5 222 254.5s200.667 91.5 320 91.5c105.333 0 194.666 -13.667 267.999 -41s139.666 -64 198.999 -110v-262h-79l-5 221
c-45.333 34.667 -97.166 62.167 -155.499 82.5s-132.5 30.5 -222.5 30.5c-102.667 0 -194.667 -27.167 -276 -81.5s-145.666 -129.666 -192.999 -225.999s-71 -207.833 -71 -334.5v-37c0 -130.667 21.833 -245.667 65.5 -345s107 -176.833 190 -232.5
s182.833 -83.5 299.5 -83.5c84 0 159 9.66699 225 29s122.667 42 170 68v405l-307 3v75h394v-521c-56.667 -37.333 -123.667 -69.666 -201 -96.999s-170.333 -41 -279 -41z" />
    <glyph glyph-name="H" unicode="H" horiz-adv-x="1523" 
d="M73 0v71l163 6v1302l-163 6v71h413v-71l-163 -6v-619h876v619l-163 6v71h163h87h163v-71l-163 -6v-1302l163 -6v-71h-413v71l163 6v606h-876v-606l163 -6v-71h-413z" />
    <glyph glyph-name="I" unicode="I" horiz-adv-x="560" 
d="M73 0v71l163 6v1302l-163 6v71h413v-71l-163 -6v-1302l163 -6v-71h-413z" />
    <glyph glyph-name="J" unicode="J" horiz-adv-x="1144" 
d="M478 -21c-86.667 0 -162.338 15.832 -227.005 47.499s-114.667 78.667 -150 141s-52.666 139.833 -51.999 232.5l2 6h79c0.666992 -114 30.834 -200.667 90.501 -260s145.5 -89 257.5 -89c64.667 0 121.834 14.833 171.501 44.5s88.167 71.834 115.5 126.501
s41 118.667 41 192v959l-188 6v71h438v-71l-163 -6v-959c0 -89.333 -17.167 -167 -51.5 -233s-82.666 -117.167 -144.999 -153.5s-135.166 -54.5 -218.499 -54.5z" />
    <glyph glyph-name="K" unicode="K" horiz-adv-x="1414" 
d="M306 398l-39 76l806 903l-1 5l-154 3v71h385v-71l-120 -6zM73 0v71l163 6v1302l-163 6v71h413v-71l-163 -6v-1302l163 -6v-71h-413zM961 0v71l153 3l2 5l-510 700l64 58l559 -761l122 -5v-71h-390z" />
    <glyph glyph-name="L" unicode="L" horiz-adv-x="1172" 
d="M73 0v71l163 6v1302l-163 6v71h163h88h163v-71l-163 -6v-1303h652l5 237h77v-313h-985z" />
    <glyph glyph-name="M" unicode="M" horiz-adv-x="1860" 
d="M76 0v71l163 6v1302l-163 6v71h163h120l567 -1309h6l565 1309h287v-71l-163 -6v-1302l163 -6v-71h-413v71l165 6v706v538l-6 2l-569 -1311h-63l-571 1305l-5 -2l1 -511v-727l166 -6v-71h-413z" />
    <glyph glyph-name="N" unicode="N" horiz-adv-x="1534" 
d="M74 0v71l163 6v1302l-163 6v71h163h88l883 -1303l6 2v1224l-166 6v71h250h163v-71l-163 -6v-1379h-84l-887 1306l-6 -2v-1227l167 -6v-71h-414z" />
    <glyph glyph-name="O" unicode="O" horiz-adv-x="1456" 
d="M725 -21c-91.333 0 -174.335 17.667 -249.002 53s-138.834 85.5 -192.501 150.5s-95 142.833 -124 233.5s-43.5 191.667 -43.5 303v18c0 111.333 14.333 212.333 43 303s69.834 168.5 123.501 233.5s117.667 115.167 192 150.5s157.166 53 248.499 53
c92.667 0 176.334 -17.667 251.001 -53s138.834 -85.5 192.501 -150.5s94.834 -142.833 123.501 -233.5s43 -191.667 43 -303v-18c0 -111.333 -14.333 -212.5 -43 -303.5s-69.5 -168.833 -122.5 -233.5s-117 -114.667 -192 -150s-158.5 -53 -250.5 -53zM724.998 58
c108.667 0 201.833 27.333 279.5 82s137.167 131.667 178.5 231s62 215.333 62 348v20c0 132 -20.833 247.333 -62.5 346s-101.5 175.334 -179.5 230.001s-171.333 82 -280 82c-106 0 -197.833 -27.333 -275.5 -82s-137.667 -131.334 -180 -230.001s-63.5 -214 -63.5 -346
v-20c0 -132.667 21.167 -248.5 63.5 -347.5s102.5 -176 180.5 -231s170.333 -82.5 277 -82.5z" />
    <glyph glyph-name="P" unicode="P" horiz-adv-x="1265" 
d="M73 0v71l163 6v1302l-163 6v71h163h429c101.333 0 187.333 -17.333 258 -52s124.5 -83.5 161.5 -146.5s55.5 -136.833 55.5 -221.5c0 -85.333 -18.5 -159.5 -55.5 -222.5s-90.833 -111.667 -161.5 -146s-156.667 -51.5 -258 -51.5h-342v-539l163 -6v-71h-413zM323 693
h342c128.667 0 225.5 32.5 290.5 97.5s97.5 146.167 97.5 243.5c0 100 -32.333 182.5 -97 247.5s-161.667 97.5 -291 97.5h-342v-686z" />
    <glyph glyph-name="Q" unicode="Q" horiz-adv-x="1454" 
d="M1292 -215l-334.999 240c-36 -15.333 -73.333 -26.833 -112 -34.5s-78.667 -11.5 -120 -11.5c-91.333 0 -174.333 17.667 -249 53s-138.834 85.5 -192.501 150.5s-95 142.833 -124 233.5s-43.5 191.667 -43.5 303v18c0 111.333 14.333 212.166 43 302.499
s69.834 168.166 123.501 233.499s117.667 115.666 192 150.999s157.166 53 248.499 53c92 0 175.5 -17.667 250.5 -53s139.167 -85.666 192.5 -150.999s94.333 -143.166 123 -233.499s43 -191.166 43 -302.499v-18c0 -149.333 -25 -280.5 -75 -393.5
s-123 -199.167 -219 -258.5l306 -217zM725.001 58c108 0 200.832 27.333 278.499 82s137.334 131.667 179.001 231s62.5 215.333 62.5 348v20c0 132 -20.833 247.333 -62.5 346s-101.5 175.334 -179.5 230.001s-171.333 82 -280 82c-106 0 -197.833 -27.333 -275.5 -82
s-137.667 -131.334 -180 -230.001s-63.5 -214 -63.5 -346v-20c0 -132.667 21.167 -248.5 63.5 -347.5s102.333 -176 180 -231s170.167 -82.5 277.5 -82.5z" />
    <glyph glyph-name="R" unicode="R" horiz-adv-x="1369" 
d="M73 -1l-0.00195312 70.999l163 6v1302l-163 6v71h600c103.333 0 190.833 -15 262.5 -45s126 -74.167 163 -132.5s55.5 -130.166 55.5 -215.499c0 -82.667 -19.667 -152.667 -59 -210s-94.666 -100.833 -165.999 -130.5s-154.666 -44.5 -249.999 -44.5l-356 -2v-599
l163 -6v-71h-413zM1061 -1.00098l-309 721l87 1l283 -646l125 -4v-72h-186zM322.998 752.999l341.999 -0.000976562c138.667 0 240.334 28.833 305.001 86.5s97 131.834 97 222.501c0 101.333 -32.833 179.333 -98.5 234s-164.167 82 -295.5 82h-350v-625z" />
    <glyph glyph-name="S" unicode="S" horiz-adv-x="1188" 
d="M593 -21c-80.667 0 -162.833 12.4961 -246.5 37.4961s-164.834 64.167 -243.501 117.5v270h77l8 -227c65.333 -41.333 132.333 -71.666 201 -90.999s136.667 -29 204 -29c80.667 0 151.834 12.5 213.501 37.5s109.834 60 144.501 105s52 96.833 52 155.5
c0 58 -13.667 108.333 -41 151s-71.833 80.5 -133.5 113.5s-144.834 63.5 -249.501 91.5c-108 29.333 -195 61.833 -261 97.5s-114 78.334 -144 128.001s-45 109.834 -45 180.501c0 71.333 19 133.833 57 187.5s91.333 95.834 160 126.501s148.667 46 240 46
c95.333 0 181.166 -14.333 257.499 -43s142.166 -66.334 197.499 -113.001v-247h-77l-7 205c-47.333 38.667 -102.166 68.334 -164.499 89.001s-131.166 31 -206.499 31c-78 0 -144.667 -12.667 -200 -38s-97.5 -59.166 -126.5 -101.499s-43.5 -88.833 -43.5 -139.5
c0 -52 10.833 -97.667 32.5 -137s60.834 -74.333 117.501 -105s137 -59.667 241 -87c159.333 -42 279.833 -96.333 361.5 -163s122.5 -157 122.5 -271c0 -76.667 -21.5 -143.334 -64.5 -200.001s-101.833 -100.5 -176.5 -131.5s-160.334 -46.5 -257.001 -46.5z" />
    <glyph glyph-name="T" unicode="T" horiz-adv-x="1307" 
d="M445 0v71l163 6v1303h-442l-7 -230h-75v306h1136v-306h-75l-7 230h-443v-1303l163 -6v-71h-413z" />
    <glyph glyph-name="U" unicode="U" horiz-adv-x="1460" 
d="M729 -21c-99.333 0 -186.833 19.001 -262.5 57.001s-134.834 93.5 -177.501 166.5s-64 161.833 -64 266.5v910l-163 6v71h413v-71l-163 -6v-910c0 -87.333 17.667 -161.666 53 -222.999s84.333 -108.166 147 -140.499s135.334 -48.5 218.001 -48.5
c81.333 0 153.5 16.167 216.5 48.5s112.167 79.166 147.5 140.499s53 135.666 53 222.999v910l-163 6v71h413v-71l-163 -6v-910c0 -106 -21.167 -195.333 -63.5 -268s-101.5 -127.834 -177.5 -165.501s-164 -56.5 -264 -56.5z" />
    <glyph glyph-name="V" unicode="V" horiz-adv-x="1451" 
d="M682 0l-516 1381l-109 4v71h352v-71l-149 -5l436 -1183l28 -87h6l29 87l438 1184l-151 4v71h351v-71l-109 -4l-516 -1381h-90z" />
    <glyph glyph-name="W" unicode="W" horiz-adv-x="2030" 
d="M521 0l-354 1382l-107 3v71h356v-71l-158 -5l250 -1010l59 -219h6l62 219l347 1086h87l346 -1086l61 -222h6l62 222l248 1010l-160 5v71h353v-71l-105 -3l-350 -1382h-90l-366 1166l-46 146h-6l-45 -146l-368 -1166h-88z" />
    <glyph glyph-name="X" unicode="X" horiz-adv-x="1417" 
d="M62 0v71l118 5l478 666l-455 638l-118 5v71h377v-71l-160 -3l407 -578l404 578l-160 3v71h377v-71l-119 -5l-449 -638l475 -666l118 -5v-71h-377v71l159 3l-428 606l-428 -606l157 -3v-71h-376z" />
    <glyph glyph-name="Y" unicode="Y" horiz-adv-x="1436" 
d="M513 0v71l163 6v471l-499 833l-120 4v71h367v-71l-147 -4l417 -713l25 -47l1 2l24 45l422 713l-148 4v71h364v-71l-121 -4l-497 -830v-474l163 -6v-71h-414z" />
    <glyph glyph-name="Z" unicode="Z" horiz-adv-x="1215" 
d="M92 0v68l889 1312h-773l-4 -228h-78v304h965v-63l-891 -1316h841l4 231h78v-308h-1031z" />
    <glyph glyph-name="bracketleft" unicode="[" horiz-adv-x="538" 
d="M157 -312v1976h306v-77h-219v-1822h219v-77h-306z" />
    <glyph glyph-name="backslash" unicode="\" horiz-adv-x="797" 
d="M644 -125l-608 1581h88l608 -1581h-88z" />
    <glyph glyph-name="bracketright" unicode="]" horiz-adv-x="516" 
d="M23 -312v77h219v1822h-219v77h307v-1976h-307z" />
    <glyph glyph-name="asciicircum" unicode="^" horiz-adv-x="836" 
d="M71 729l299 727h71l299 -727h-89l-209 514l-35 104h-6l-37 -104l-206 -514h-87z" />
    <glyph glyph-name="underscore" unicode="_" horiz-adv-x="1142" 
d="M119 -77v77h864v-77h-864z" />
    <glyph glyph-name="grave" unicode="`" horiz-adv-x="365" 
d="M325 1320l-3 -4h-67l-215 239l2 5h102z" />
    <glyph glyph-name="a" unicode="a" horiz-adv-x="1120" 
d="M419 -21c-99.333 0 -177.667 27.168 -235 81.501s-86 127.166 -86 218.499c0 65.333 19.333 123 58 173s93.667 89 165 117s155.333 42 252 42h236v131c0 84 -24.667 152.167 -74 204.5s-125 78.5 -227 78.5c-55.333 0 -105.666 -9.66699 -150.999 -29
s-84.333 -43.333 -117 -72l-4 -171h-77v216c45.333 40.667 96.666 73 153.999 97s122.666 36 195.999 36c126.667 0 222.834 -32.167 288.501 -96.5s98.5 -152.833 98.5 -265.5v-522c0 -24.667 0.833008 -49 2.5 -73s4.83398 -48 9.50098 -72l140 -2v-71h-217
c-8 43.333 -13.667 77.333 -17 102s-5 53 -5 85c-40 -61.333 -93.833 -111.333 -161.5 -150s-143.834 -58 -228.501 -58zM424.999 58.001c78.667 0 153.668 21.332 225.001 63.999s124.333 100.334 159 173.001v243h-236c-118.667 0 -213 -25 -283 -75
s-105 -112.667 -105 -188c0 -62.667 22.167 -114.5 66.5 -155.5s102.166 -61.5 173.499 -61.5z" />
    <glyph glyph-name="b" unicode="b" horiz-adv-x="1101" 
d="M594 -21c-82 0 -153.332 16.499 -213.999 49.499s-108.334 78.5 -143.001 136.5l-10 -165h-74v1483l-163 6v71h250v-659c35.333 62.667 82.5 111.834 141.5 147.501s129.167 53.5 210.5 53.5c86 0 159.667 -23.167 221 -69.5s108.5 -111.833 141.5 -196.5
s49.5 -184.334 49.5 -299.001v-21c0 -109.333 -16.333 -204.166 -49 -284.499s-79.5 -142.5 -140.5 -186.5s-134.5 -66 -220.5 -66zM584.001 56.999c108.667 0 191.001 41.499 247.001 124.499s84 194.5 84 334.5v21c0 96 -12.5 180.5 -37.5 253.5
s-62.333 130.167 -112 171.5s-110.834 62 -183.501 62c-95.333 0 -170 -24.167 -224 -72.5s-93.333 -108.166 -118 -179.499v-492c26 -67.333 67.833 -121.333 125.5 -162s130.5 -61 218.5 -61z" />
    <glyph glyph-name="c" unicode="c" horiz-adv-x="1079" 
d="M545 -21c-86 0 -162.833 22.666 -230.5 67.999s-120.667 108.5 -159 189.5s-57.5 175.5 -57.5 283.5v42c0 106.667 18.667 200.5 56 281.5s89.5 144.333 156.5 190s144.833 68.5 233.5 68.5c82.667 0 156.5 -16.5 221.5 -49.5s119.5 -74.167 163.5 -123.5l1 -239h-77
l-8 207c-38 40 -81.667 71.333 -131 94s-105.333 34 -168 34c-72 0 -135.167 -20 -189.5 -60s-96.5 -94.667 -126.5 -164s-45 -149 -45 -239v-42c0 -92 15 -172.833 45 -242.5s72.167 -124 126.5 -163s117.833 -58.5 190.5 -58.5c86.667 0 159.334 22.5 218.001 67.5
s94 112.833 106 203.5h76l2 -6c-7.33301 -71.333 -28.333 -132.666 -63 -183.999s-80.834 -90.5 -138.501 -117.5s-125.167 -40.5 -202.5 -40.5z" />
    <glyph glyph-name="d" unicode="d" horiz-adv-x="1208" 
d="M507 -21c-85.333 0 -158.501 22 -219.501 66s-107.833 106.167 -140.5 186.5s-49 175.166 -49 284.499v21c0 114.667 16.333 214.334 49 299.001s79.667 150.167 141 196.5s135 69.5 221 69.5c80.667 0 150.334 -17.667 209.001 -53s106 -84.333 142 -147v581l-163 6v71
h163h87v-1483l163 -6v-71h-243l-5 163c-35.333 -57.333 -83 -102.333 -143 -135s-130.667 -49 -212 -49zM517.999 57c86 0 157.667 19.5 215 58.5s99.666 91.833 126.999 158.5v505c-26 70 -66 128.333 -120 175s-127.333 70 -220 70
c-73.333 0 -134.666 -20.667 -183.999 -62s-86.5 -98.5 -111.5 -171.5s-37.5 -157.5 -37.5 -253.5v-21c0 -140 27.833 -251.5 83.5 -334.5s138.167 -124.5 247.5 -124.5z" />
    <glyph glyph-name="e" unicode="e" horiz-adv-x="1078" 
d="M565 -21c-90 0 -169.667 22.3311 -239 66.998s-123.833 106.5 -163.5 185.5s-59.5 170.167 -59.5 273.5v59c0 103.333 19.5 195.5 58.5 276.5s92.167 144.833 159.5 191.5s143 70 227 70c84.667 0 158.167 -18.667 220.5 -56s110.166 -89.666 143.499 -156.999
s50 -147 50 -239v-92h-770l-1 -60c0.666992 -84.667 16.667 -160.334 48 -227.001s75 -119.167 131 -157.5s121 -57.5 195 -57.5c68 0 128.167 11.333 180.5 34s98.833 53.334 139.5 92.001l40 -62c-43.333 -41.333 -94.166 -75.166 -152.499 -101.499
s-127.5 -39.5 -207.5 -39.5zM202 634.998h673v32c0 68 -13.167 129 -39.5 183s-64 96.667 -113 128s-107.167 47 -174.5 47c-62.667 0 -119.167 -16.833 -169.5 -50.5s-91.333 -79.5 -123 -137.5s-50.5 -123.333 -56.5 -196z" />
    <glyph glyph-name="f" unicode="f" horiz-adv-x="723" 
d="M104 0l0.000976562 70.999l163 6v929h-184v76h184v169c0 104.667 26 185.834 78 243.501s125 86.5 219 86.5c22 0 44.333 -1.5 67 -4.5s45 -7.5 67 -13.5l-12 -75c-19.333 5.33301 -37.5 9 -54.5 11s-37.5 3 -61.5 3c-68.667 0 -121.834 -22.167 -159.501 -66.5
s-56.5 -105.833 -56.5 -184.5v-169h274v-76h-274v-929l168 -6v-71h-418z" />
    <glyph glyph-name="g" unicode="g" horiz-adv-x="1155" 
d="M530 -437c-52.667 0 -108.002 5.83398 -166.002 17.501s-108.667 27.834 -152 48.501l24 77c46 -20.667 92.167 -36.5 138.5 -47.5s97.5 -16.5 153.5 -16.5c108.667 0 191.167 33 247.5 99s84.5 157 84.5 273v145c-35.333 -56 -82.666 -100 -141.999 -132
s-129 -48 -209 -48c-85.333 0 -158.833 22 -220.5 66s-108.834 106.333 -141.501 187s-49 175.334 -49 284.001v21c0 115.333 16.333 215.166 49 299.499s79.834 149.666 141.501 195.999s135.834 69.5 222.501 69.5c81.333 0 151.666 -18.167 210.999 -54.5
s106.666 -86.5 141.999 -150.5l11 185h73v-1068c0 -92 -16.667 -171.833 -50 -239.5s-81.166 -119.834 -143.499 -156.501s-137.166 -55 -224.499 -55zM518.998 57.001c88 0 160.334 20.167 217.001 60.5s98 94.5 124 162.5v493c-25.333 71.333 -64.5 131 -117.5 179
s-126.833 72 -221.5 72c-72.667 0 -134 -20.667 -184 -62s-87.667 -98.5 -113 -171.5s-38 -157.5 -38 -253.5v-21c0 -140 28.167 -251.5 84.5 -334.5s139.166 -124.5 248.499 -124.5zM925.999 1003l-23 79h186v-71z" />
    <glyph glyph-name="h" unicode="h" horiz-adv-x="1287" 
d="M59 0l0.000976562 71l163 6v1406l-163 6v71h250v-687c34 72.667 82.167 129 144.5 169s137.166 60 224.499 60c113.333 0 199.833 -35.5 259.5 -106.5s89.5 -181.833 89.5 -332.5v-586l163 -6v-71h-414v71l163 6v588c0 129.333 -24.5 221.5 -73.5 276.5
s-116.167 82.5 -201.5 82.5c-102 0 -182 -29.833 -240 -89.5s-96.333 -136.5 -115 -230.5v-627l163 -6v-71h-413z" />
    <glyph glyph-name="i" unicode="i" horiz-adv-x="619" 
d="M84 0v71l163 6v928l-163 6v71h250v-1005l163 -6v-71h-413zM231 1404v156h103v-156h-103z" />
    <glyph glyph-name="j" unicode="j" horiz-adv-x="554" 
d="M96 -437c-20 0 -38.6641 1.66602 -55.9971 4.99902s-36 8.33301 -56 15l13 74c11.333 -4 26.666 -7.83301 45.999 -11.5s37 -5.5 53 -5.5c65.333 0 116.166 23.667 152.499 71s54.5 114 54.5 200v1094l-163 6v71h250v-1171c0 -111.333 -25.833 -197.166 -77.5 -257.499
s-123.834 -90.5 -216.501 -90.5zM282.003 1404v156h103v-156h-103z" />
    <glyph glyph-name="k" unicode="k" horiz-adv-x="1185" 
d="M62 0v71l163 6v1406l-163 6v71h250v-1483l163 -6v-71h-413zM761 0v71l122 3l1 4l-379 521l52 63l437 -586l126 -5v-71h-359zM302 338l-31 78l560 586l-1 6l-118 3v71h355v-71l-126 -6z" />
    <glyph glyph-name="l" unicode="l" horiz-adv-x="598" 
d="M78 0v71l163 6v1406l-163 6v71h250v-1483l163 -6v-71h-413z" />
    <glyph glyph-name="m" unicode="m" horiz-adv-x="1979" 
d="M86 0v71l163 6v928l-163 6v71h240l8 -204c33.333 70.667 79.833 125.667 139.5 165s131.5 59 215.5 59c88.667 0 161.334 -22.167 218.001 -66.5s96.667 -112.5 120 -204.5c30 85.333 76.333 152 139 200s140.334 72 233.001 72
c117.333 0 207.166 -38.833 269.499 -116.5s93.5 -198.167 93.5 -361.5v-547l163 -7v-70h-414v70l163 7v549c0 144.667 -25.833 247 -77.5 307s-121.5 90 -209.5 90c-104 0 -183.5 -32 -238.5 -96s-88.167 -145.667 -99.5 -245v-606l163 -6v-71h-414v71l163 6v549
c0 144.667 -25.833 247.167 -77.5 307.5s-121.834 90.5 -210.501 90.5c-100 0 -176.833 -28.167 -230.5 -84.5s-89.167 -129.833 -106.5 -220.5v-642l163 -6v-71h-413z" />
    <glyph glyph-name="n" unicode="n" horiz-adv-x="1325" 
d="M86 0l0.000976562 71l163 6v928l-163 6v71h239l8 -209c33.333 72.667 80.5 129 141.5 169s134.833 60 221.5 60c117.333 0 206.166 -36.5 266.499 -109.5s90.5 -187.833 90.5 -344.5v-571l163 -6v-71h-413v71l163 6v571c0 137.333 -25 234.333 -75 291
s-119.333 85 -208 85c-102.667 0 -182 -30 -238 -90s-92.333 -137.333 -109 -232v-625l163 -6v-71h-413z" />
    <glyph glyph-name="o" unicode="o" horiz-adv-x="1148" 
d="M575 -21c-95.333 0 -178.666 23.167 -249.999 69.5s-127 110.333 -167 192s-60 175.5 -60 281.5v37c0 106.667 20 200.667 60 282s95.5 145.166 166.5 191.499s153.833 69.5 248.5 69.5c95.333 0 178.666 -23.167 249.999 -69.5s127 -110.166 167 -191.499
s60 -175.333 60 -282v-37c0 -106 -20 -200 -60 -282s-95.5 -146 -166.5 -192s-153.833 -69 -248.5 -69zM575 56c80 0 148.999 20.8311 206.999 62.498s102.667 97.667 134 168s47 148.833 47 235.5v37c0 86 -15.833 164.167 -47.5 234.5s-76.667 126.5 -135 168.5
s-127.5 63 -207.5 63c-79.333 0 -148.166 -21 -206.499 -63s-103.166 -98.167 -134.499 -168.5s-47 -148.5 -47 -234.5v-37c0 -87.333 15.667 -166.166 47 -236.499s76.166 -126.166 134.499 -167.499s127.833 -62 208.5 -62z" />
    <glyph glyph-name="p" unicode="p" horiz-adv-x="1169" 
d="M60 -416l-0.000976562 71l161 6v1344l-163 6v71h234l13 -180c36 62.667 83.833 111.667 143.5 147s130.167 53 211.5 53c85.333 0 158.833 -23.167 220.5 -69.5s108.834 -111.833 141.501 -196.5s49 -184.334 49 -299.001v-21c0 -109.333 -16.333 -204.166 -49 -284.499
s-79.5 -142.5 -140.5 -186.5s-134.167 -66 -219.5 -66c-80.667 0 -151 15.667 -211 47s-107.667 74.333 -143 129v-494l165 -6v-71h-413zM648.999 56c108.667 0 191.501 41.668 248.501 125.001s85.5 195 85.5 335v21c0 96 -12.833 180.5 -38.5 253.5
s-63.5 130.167 -113.5 171.5s-111.333 62 -184 62c-94 0 -167.833 -23.333 -221.5 -70s-92.834 -104.334 -117.501 -173.001v-511c26 -66 67.667 -118.167 125 -156.5s129.333 -57.5 216 -57.5z" />
    <glyph glyph-name="q" unicode="q" horiz-adv-x="1137" 
d="M694 -416l-0.00195312 71l163 6v493c-35.333 -54 -82.666 -96.667 -141.999 -128s-128.666 -47 -207.999 -47c-85.333 0 -158.5 22 -219.5 66s-107.833 106.167 -140.5 186.5s-49 175.166 -49 284.499v21c0 114.667 16.333 214.334 49 299.001s79.667 150.167 141 196.5
s135 69.5 221 69.5c80 0 149.5 -17.5 208.5 -52.5s106.5 -83.5 142.5 -145.5l7 178h77v-1421l161 -6v-71h-411zM517.998 56c86 0 157.499 19.499 214.499 58.499s98.5 91.833 124.5 158.5v506c-25.333 68 -65 126 -119 174s-126.667 72 -218 72
c-73.333 0 -134.666 -20.667 -183.999 -62s-86.5 -98.666 -111.5 -171.999s-37.5 -158 -37.5 -254v-21c0 -140 27.833 -251.667 83.5 -335s138.167 -125 247.5 -125z" />
    <glyph glyph-name="r" unicode="r" horiz-adv-x="830" 
d="M85 0v71l163 6v928l-163 6v71h238l11 -176l1 -33c30 72 73 128.167 129 168.5s124 60.5 204 60.5c16.667 0 35 -1.5 55 -4.5s34.667 -5.83301 44 -8.5l-10 -79l-101 7c-86.667 0.666992 -157.167 -26 -211.5 -80s-90.833 -125.667 -109.5 -215v-645l163 -6v-71h-413z" />
    <glyph glyph-name="s" unicode="s" horiz-adv-x="1012" 
d="M493 -21c-77.333 0 -148.833 11.5 -214.5 34.5s-123.834 55.167 -174.501 96.5l-1 208h76l9 -162c38.667 -35.333 84.334 -61 137.001 -77s108.667 -24 168 -24c95.333 0 169.5 21.5 222.5 64.5s79.5 93.167 79.5 150.5c0 54 -22.833 102.5 -68.5 145.5
s-126.167 77.167 -241.5 102.5c-128 27.333 -220 63.5 -276 108.5s-84 108.833 -84 191.5c0 54 14.667 102.333 44 145s71.166 76.5 125.499 101.5s118.5 37.5 192.5 37.5c78.667 0 147.334 -12.333 206.001 -37s108.667 -58 150 -100l2 -212h-75l-8 168
c-32 33.333 -69.833 59 -113.5 77s-97.5 27 -161.5 27c-89.333 0 -157.5 -20.667 -204.5 -62s-70.5 -88.666 -70.5 -141.999c0 -35.333 7.66699 -66.5 23 -93.5s44 -51 86 -72s103.667 -40.833 185 -59.5c128 -28.667 222.667 -68.5 284 -119.5s92 -118.833 92 -203.5
c0 -86.667 -34.5 -157.334 -103.5 -212.001s-164.167 -82 -285.5 -82z" />
    <glyph glyph-name="t" unicode="t" horiz-adv-x="722" 
d="M480 -20c-74.667 0 -131.832 23.667 -171.499 71s-59.5 123.333 -59.5 228v727h-193v76h193v285h88v-285h258v-76h-258v-727c0 -80 13.833 -137.333 41.5 -172s64.5 -52 110.5 -52c22 0 42.667 1 62 3s42 4.66699 68 8l14 -68c-22 -6 -45.833 -10.5 -71.5 -13.5
s-52.834 -4.5 -81.501 -4.5z" />
    <glyph glyph-name="u" unicode="u" horiz-adv-x="1212" 
d="M537 -21c-111.333 0 -198.001 39 -260.001 117s-93 199.333 -93 364v545l-138 6v71h138h87v-624c0 -139.333 23.833 -241 71.5 -305s114.5 -96 200.5 -96c102.667 0 181.167 24.667 235.5 74s90.833 115 109.5 197v677l-159 6v71h159h87v-1005l154 -6v-71h-229l-9 186
c-34 -66 -80.167 -117 -138.5 -153s-130.166 -54 -215.499 -54z" />
    <glyph glyph-name="v" unicode="v" horiz-adv-x="1174" 
d="M558 0l-395 1008l-117 3v71h349v-71l-141 -4l296 -757l45 -133h6l48 133l291 757l-142 4v71h349v-71l-117 -3l-392 -1008h-80z" />
    <glyph glyph-name="w" unicode="w" horiz-adv-x="1795" 
d="M484 0l-310 1008l-122 3v71h359v-71l-145 -5l201 -674l58 -200l6 -1l64 201l252 750h81l254 -750l69 -206h6l63 206l201 674l-146 5v71h357v-71l-122 -4l-310 -1007h-85l-268 775l-57 180h-6l-54 -180l-265 -775h-81z" />
    <glyph glyph-name="x" unicode="x" horiz-adv-x="1195" 
d="M73 0v71l124 5l353 477l-336 453l-121 5v71h342v-71l-120 -3l287 -391l286 392l-123 2v71h341v-71l-122 -5l-330 -452l355 -478l123 -5v-71h-350v71l126 2l-307 416l-305 -416l123 -2v-71h-346z" />
    <glyph glyph-name="y" unicode="y" horiz-adv-x="1187" 
d="M289 -437c-13.333 0 -28.668 1.33203 -46.001 3.99902s-30.333 5.33398 -39 8.00098l11 75c8 -2 20 -3.83301 36 -5.5s28 -2.5 36 -2.5c56.667 0 101.334 17.5 134.001 52.5s61.667 86.167 87 153.5l61 162l-404 997l-117 4v71h350v-71l-139 -4l306 -765l42 -116h6
l334 881l-141 4v71h349v-71l-117 -4l-452 -1184c-19.333 -50.667 -41.166 -95.667 -65.499 -135s-54.833 -70 -91.5 -92s-83.334 -33 -140.001 -33z" />
    <glyph glyph-name="z" unicode="z" horiz-adv-x="1067" 
d="M113 0v66l682 939h-597l-6 -225h-76v302h792v-68l-684 -938h657l6 226h75v-302h-849z" />
    <glyph glyph-name="braceleft" unicode="{" horiz-adv-x="695" 
d="M632 -423c-118.667 36.667 -203.167 94.4971 -253.5 173.497s-75.5 175.167 -75.5 288.5v235c0 85.333 -19.5 151.5 -58.5 198.5s-99.5 70.5 -181.5 70.5v85c82 0 142.5 23.167 181.5 69.5s58.5 111.833 58.5 196.5v238c0 114 25.167 210.833 75.5 290.5
s134.833 137.834 253.5 174.501l21 -62c-90.667 -28.667 -157.167 -78 -199.5 -148s-63.5 -155 -63.5 -255v-238c0 -77.333 -16.5 -143.166 -49.5 -197.499s-83.5 -91.5 -151.5 -111.5c68 -20 118.5 -57.5 151.5 -112.5s49.5 -121.167 49.5 -198.5v-235
c0 -99.333 21.667 -183.166 65 -251.499s110.333 -117.833 201 -148.5z" />
    <glyph glyph-name="bar" unicode="|" horiz-adv-x="416" 
d="M150 -270v1726h78v-1726h-78z" />
    <glyph glyph-name="braceright" unicode="}" horiz-adv-x="694" 
d="M51 -423l-24.001 62.0039c90 30.667 156.667 80.167 200 148.5s65 152.166 65 251.499v235c0 78 16.667 144.333 50 199s85 92 155 112c-70 19.333 -121.667 56.166 -155 110.499s-50 120.5 -50 198.5v238c0 100 -21.167 185 -63.5 255s-108.166 119.333 -197.499 148
l20 62c118 -36.667 202.167 -94.834 252.5 -174.501s75.5 -176.5 75.5 -290.5v-238c0 -84.667 19.5 -150.167 58.5 -196.5s99.833 -69.5 182.5 -69.5v-85c-82.667 0 -143.5 -23.667 -182.5 -71s-58.5 -113.333 -58.5 -198v-235c0 -114 -25 -210.333 -75 -289
s-134.333 -136.334 -253 -173.001z" />
    <glyph glyph-name="asciitilde" unicode="~" horiz-adv-x="1372" 
d="M952 433c-58 0 -111.001 12.335 -159.001 37.002s-102 64 -162 118c-44 37.333 -85 65.5 -123 84.5s-76.667 28.5 -116 28.5c-55.333 0 -101.333 -21.5 -138 -64.5s-55 -101.5 -55 -175.5l-78 13c0 57.333 11.667 109.166 35 155.499s55.333 83.166 96 110.499
s87.334 41 140.001 41c58 0 111.333 -12.833 160 -38.5s103 -64.5 163 -116.5c44 -40 84.5 -69 121.5 -87s75.5 -27 115.5 -27c54 0 99.833 22.5 137.5 67.5s56.5 103.167 56.5 174.5l79 -14c0 -55.333 -11.833 -106.333 -35.5 -153s-56.167 -84 -97.5 -112
s-88 -42 -140 -42z" />
    <glyph glyph-name="uni00A0" unicode="&#xa0;" horiz-adv-x="494" 
 />
    <glyph glyph-name="exclamdown" unicode="&#xa1;" horiz-adv-x="448" 
d="M201 604v-978h87v978h-87zM186 1082v-150h119v150h-119z" />
    <glyph glyph-name="cent" unicode="&#xa2;" horiz-adv-x="1076" 
d="M551 -245l0.000976562 227.001c-88.667 4.66699 -164 30.167 -226 76.5s-109.667 109 -143 188s-50 170.167 -50 273.5v42c0 102 16.667 192.5 50 271.5s81.166 141.667 143.499 188s137.5 72.166 225.5 77.499v219h88v-218c70 -7.33301 134.5 -26.833 193.5 -58.5
s107.833 -71.834 146.5 -120.501l2 -234h-78l-10 202c-34.667 41.333 -78.334 74.333 -131.001 99s-112.334 37 -179.001 37c-81.333 0 -148.833 -19.833 -202.5 -59.5s-94 -94.334 -121 -164.001s-40.5 -149.5 -40.5 -239.5v-42c0 -90.667 13.5 -171 40.5 -241
s67.5 -124.667 121.5 -164s121.667 -59 203 -59c56.667 0 109.834 10.833 159.501 32.5s89.5 53.167 119.5 94.5s45 92 45 152h77l2 -6c2 -62 -12.667 -117.667 -44 -167s-73.666 -89.666 -126.999 -120.999s-112.333 -50.666 -177 -57.999v-228h-88z" />
    <glyph glyph-name="sterling" unicode="&#xa3;" horiz-adv-x="1157" 
d="M132 0l0.000976562 77.001h10c35.333 7.33301 64.666 31 87.999 71s40.833 88.667 52.5 146s17.5 114.666 17.5 171.999l-7 189h-225v77h222l-11 308c0 136 34.5 242.833 103.5 320.5s161.167 116.5 276.5 116.5c120.667 0 210.167 -34.167 268.5 -102.5
s86.5 -161.5 84.5 -279.5l-2 -5h-80c0 108.667 -23.667 187.5 -71 236.5s-114 73.5 -200 73.5c-90.667 0 -162.167 -31.5 -214.5 -94.5s-78.5 -151.5 -78.5 -265.5l11 -308h464v-77h-462l8 -189c0 -78 -10.5 -151.667 -31.5 -221s-50.5 -125.333 -88.5 -168h708l3 222h81
v-299h-927z" />
    <glyph glyph-name="currency" unicode="&#xa4;" horiz-adv-x="1461" 
d="M1296 -27l-169.002 172.001c-54 -52.667 -115.333 -93.334 -184 -122.001s-141.334 -43 -218.001 -43c-77.333 0 -150.333 14.167 -219 42.5s-130 68.5 -184 120.5l-165 -169l-63 62l170 172c-43.333 54.667 -76.666 116 -99.999 184s-35 140 -35 216
c0 78 12.5 152.167 37.5 222.5s60.5 133.166 106.5 188.499l-179 183l63 62l177 -181c52.667 48 112.334 85.167 179.001 111.5s137.334 39.5 212.001 39.5c73.333 0 143.333 -13.333 210 -40s127 -64.334 181 -113.001l180 184l64 -63l-183 -186
c44.667 -56 79.5 -118.667 104.5 -188s37.5 -142.666 37.5 -219.999c0 -75.333 -11.5 -146.666 -34.5 -213.999s-55.5 -128 -97.5 -182l173 -176zM724.998 61.001c70 0 135.667 14.167 197 42.5s115.5 67.666 162.5 117.999s83.833 108.5 110.5 174.5s40 136.667 40 212
s-13.333 145.833 -40 211.5s-63.5 123.5 -110.5 173.5s-101.167 89.167 -162.5 117.5s-127 42.5 -197 42.5s-136 -14.167 -198 -42.5s-116.5 -67.5 -163.5 -117.5s-83.833 -107.833 -110.5 -173.5s-40 -136.167 -40 -211.5s13.333 -146 40 -212s63.5 -124.167 110.5 -174.5
s101.5 -89.666 163.5 -117.999s128 -42.5 198 -42.5z" />
    <glyph glyph-name="yen" unicode="&#xa5;" horiz-adv-x="1382" 
d="M484 0v71l163 6v249h-433v70h433v224h-433v70h395l-425 690l-125 5v71h344v-71l-119 -3l382 -622l23 -49l5 2l23 47l381 622l-119 3v71h344v-71l-125 -4l-427 -691h399v-70h-436v-224h436v-70h-436v-249l163 -6v-71h-413z" />
    <glyph glyph-name="brokenbar" unicode="&#xa6;" horiz-adv-x="447" 
d="M150 -270v761h87v-761h-87zM150 698v758h87v-758h-87z" />
    <glyph glyph-name="section" unicode="&#xa7;" horiz-adv-x="1205" 
d="M578 -495c-92.667 0 -176.166 14.9932 -250.499 44.9932s-133 76.5 -176 139.5s-63.5 143.5 -61.5 241.5l2 5l79 2c0 -82.667 18.5 -150.167 55.5 -202.5s86.333 -91 148 -116s129.5 -37.5 203.5 -37.5c116 0 207 25.333 273 76s99 116 99 196c0 50 -11 92.667 -33 128
s-60.5 66.5 -115.5 93.5s-131.833 54.167 -230.5 81.5c-108 26 -197.667 55.833 -269 89.5s-124.5 74.834 -159.5 123.501s-52.5 109 -52.5 181c0 69.333 23 127.666 69 174.999s110.333 79.333 193 96c-72.667 32.667 -127 73 -163 121s-54 108.667 -54 182
c0 71.333 19 133.333 57 186s91.5 93.5 160.5 122.5s150.167 43.5 243.5 43.5c145.333 0 258.666 -37.167 339.999 -111.5s120.666 -178.833 117.999 -313.5l-3 -6h-78c0 67.333 -15.167 127.833 -45.5 181.5s-73.5 95.834 -129.5 126.501s-123.333 46 -202 46
c-123.333 0 -216.5 -25.5 -279.5 -76.5s-94.5 -116.167 -94.5 -195.5c0 -53.333 10.5 -97.666 31.5 -132.999s59.333 -66.666 115 -93.999s134.834 -55.666 237.501 -84.999c111.333 -29.333 202 -59.833 272 -91.5s121.5 -70.667 154.5 -117s49.5 -105.166 49.5 -176.499
c0 -68 -24.833 -125.667 -74.5 -173s-117.167 -79.333 -202.5 -96c78 -33.333 136.333 -73.666 175 -120.999s58 -109 58 -185c0 -109.333 -41.5 -195.166 -124.5 -257.499s-194.833 -93.5 -335.5 -93.5zM693.001 205.993c93.333 4 166.998 26.666 220.998 67.999
s81 92.666 81 153.999c0 51.333 -12.833 95 -38.5 131s-69.5 68.833 -131.5 98.5s-147.667 59.834 -257 90.501c-22.667 5.33301 -44.167 10.833 -64.5 16.5s-39.166 11.834 -56.499 18.501c-89.333 -6 -156.666 -30.167 -201.999 -72.5s-68 -94.833 -68 -157.5
c0 -54.667 11.5 -99.667 34.5 -135s65.167 -67 126.5 -95s149.333 -58 264 -90l47.5 -13.5c15 -4.33301 29.5 -8.83301 43.5 -13.5z" />
    <glyph glyph-name="dieresis" unicode="&#xa8;" horiz-adv-x="527" 
d="M384 1405v155h103v-155h-103zM40 1405v155h104v-155h-104z" />
    <glyph glyph-name="copyright" unicode="&#xa9;" horiz-adv-x="1596" 
d="M802 -21c-98 0 -190.001 19.167 -276.001 57.5s-161.5 91.5 -226.5 159.5s-115.833 147.5 -152.5 238.5s-55 189.167 -55 294.5s18.333 203.166 55 293.499s87.334 169.5 152.001 237.5s140 121 226 159s178.333 57 277 57c98 0 190 -19 276 -57s161.5 -91 226.5 -159
s115.833 -147.167 152.5 -237.5s55 -188.166 55 -293.499s-18.333 -203.5 -55 -294.5s-87.5 -170.5 -152.5 -238.5s-140.5 -121.167 -226.5 -159.5s-178 -57.5 -276 -57.5zM801.999 49c88 0 170.5 17.5 247.5 52.5s144.833 83.5 203.5 145.5s104.667 134.167 138 216.5
s50 170.833 50 265.5c0 94 -16.667 182 -50 264s-79.333 153.833 -138 215.5s-126.5 110 -203.5 145s-159.5 52.5 -247.5 52.5s-170.833 -17.5 -248.5 -52.5s-145.667 -83.333 -204 -145s-104 -133.5 -137 -215.5s-49.5 -170 -49.5 -264
c0 -94.667 16.5 -183.167 49.5 -265.5s78.667 -154.5 137 -216.5s126.333 -110.5 204 -145.5s160.5 -52.5 248.5 -52.5zM792.999 282c-98 0 -176.833 35.6689 -236.5 107.002s-89.5 164.666 -89.5 279.999v119c0 114.667 29.833 207.834 89.5 279.501
s138.5 107.5 236.5 107.5c96 0 171 -26.5 225 -79.5s79.667 -128.833 77 -227.5l-2 -6h-68c0 80.667 -19.833 141.167 -59.5 181.5s-97.167 60.5 -172.5 60.5c-77.333 0 -138.166 -29.833 -182.499 -89.5s-66.5 -134.834 -66.5 -225.501v-120
c0 -92.667 22 -168.334 66 -227.001s105 -88 183 -88c75.333 0 132.666 19.667 171.999 59s59 100.333 59 183h68l2 -6c2.66699 -100 -22.833 -176.333 -76.5 -229s-128.5 -79 -224.5 -79z" />
    <glyph glyph-name="ordfeminine" unicode="&#xaa;" horiz-adv-x="868" 
d="M355 692c-79.333 0 -140.667 20.334 -184 61.001s-65 96.334 -65 167.001c0 68.667 25.5 122 76.5 160s124.833 57 221.5 57h202v65c0 63.333 -15.5 112.5 -46.5 147.5s-75.833 52.5 -134.5 52.5c-68.667 0 -121.5 -14.167 -158.5 -42.5s-55.5 -69.5 -55.5 -123.5l-73 7
l-2 6c-3.33301 65.333 21.834 119.666 75.501 162.999s124.834 65 213.501 65c80 0 143.833 -23.833 191.5 -71.5s71.5 -115.834 71.5 -204.501v-314c0 -32.667 2 -63.667 6 -93s10.667 -58.666 20 -87.999h-85c-6.66699 17.333 -11.834 35.666 -15.501 54.999
s-5.83398 39 -6.50098 59c-25.333 -36.667 -59.5 -67.167 -102.5 -91.5s-92.833 -36.5 -149.5 -36.5zM364.999 766.001c35.333 0 69.8311 6.83398 103.498 20.501s62.834 31 87.501 52s41.334 43.5 50.001 67.5v162h-201c-69.333 0 -123 -13.833 -161 -41.5
s-57 -61.834 -57 -102.501c0 -50 14.667 -88.833 44 -116.5s74 -41.5 134 -41.5z" />
    <glyph glyph-name="guillemotleft" unicode="&#xab;" horiz-adv-x="912" 
d="M389 139l-295 375v19l295 374h88l-285 -384l285 -384h-88zM687 139l-295 375v19l295 374h88l-285 -384l285 -384h-88z" />
    <glyph glyph-name="logicalnot" unicode="&#xac;" horiz-adv-x="1108" 
d="M836 391v294h-715v79h802v-373h-87z" />
    <glyph glyph-name="uni00AD" unicode="&#xad;" horiz-adv-x="791" 
d="M154 585v77h474v-77h-474z" />
    <glyph glyph-name="registered" unicode="&#xae;" horiz-adv-x="1595" 
d="M802 -21c-98.667 0 -191 19.167 -277 57.5s-161.333 91.5 -226 159.5s-115.334 147.5 -152.001 238.5s-55 189.167 -55 294.5s18.333 203.166 55 293.499s87.334 169.5 152.001 237.5s140 121 226 159s178.333 57 277 57c98 0 190 -19 276 -57s161.5 -91 226.5 -159
s115.833 -147.167 152.5 -237.5s55 -188.166 55 -293.499s-18.333 -203.5 -55 -294.5s-87.5 -170.5 -152.5 -238.5s-140.5 -121.167 -226.5 -159.5s-178 -57.5 -276 -57.5zM802 49c88 0 170.5 17.5 247.5 52.5s144.833 83.5 203.5 145.5s104.667 134.167 138 216.5
s50 170.833 50 265.5c0 94 -16.667 182 -50 264s-79.333 153.833 -138 215.5s-126.5 110 -203.5 145s-159.5 52.5 -247.5 52.5s-170.833 -17.5 -248.5 -52.5s-145.834 -83.333 -204.501 -145s-104.5 -133.5 -137.5 -215.5s-49.5 -170 -49.5 -264
c0 -94.667 16.5 -183.167 49.5 -265.5s78.833 -154.5 137.5 -216.5s126.834 -110.5 204.501 -145.5s160.5 -52.5 248.5 -52.5zM556 316v850.002h248c96.667 0 170.334 -20.667 221.001 -62s76 -102 76 -182c0 -46.667 -12.833 -87 -38.5 -121s-61.834 -61 -108.501 -81
c46 -14.667 79.167 -39.834 99.5 -75.501s30.5 -78.834 30.5 -129.501v-56c0 -26 1.33301 -50 4 -72s7 -40.333 13 -55v-16h-80c-6.66699 14 -10.667 34.5 -12 61.5s-2 54.5 -2 82.5v54c0 59.333 -13.333 101.833 -40 127.5s-71.667 38.5 -135 38.5h-200v-364h-76z
M632 753.002h193c56.667 0 104.167 14.833 142.5 44.5s57.5 71.167 57.5 124.5c0 60 -16.5 103.667 -49.5 131s-90.167 41 -171.5 41h-172v-341z" />
    <glyph glyph-name="macron" unicode="&#xaf;" horiz-adv-x="729" 
d="M40 1404v74h649v-74h-649z" />
    <glyph glyph-name="degree" unicode="&#xb0;" horiz-adv-x="743" 
d="M365 991c-44.667 0 -85.166 10.667 -121.499 32s-65.333 50.166 -87 86.499s-32.5 77.166 -32.5 122.499c0 44.667 11 85.334 33 122.001s51.167 66.334 87.5 89.001s76.166 34 119.499 34s83 -11.333 119 -34s64.667 -52.334 86 -89.001s32 -77.334 32 -122.001
c0 -45.333 -10.667 -86.166 -32 -122.499s-50 -65.166 -86 -86.499s-75.333 -32 -118 -32zM364.001 1064c47.333 0 86.5 15.833 117.5 47.5s46.5 72.167 46.5 121.5c0 48.667 -15.5 89.334 -46.5 122.001s-70.167 49 -117.5 49c-48 0 -88 -16.333 -120 -49
s-48 -73.667 -48 -123c0 -48.667 16 -88.834 48 -120.501s72 -47.5 120 -47.5z" />
    <glyph glyph-name="plusminus" unicode="&#xb1;" horiz-adv-x="1093" 
d="M517 289v451h-428v77h428v450h83v-450h405v-77h-405v-451h-83zM131 69v77h835v-77h-835z" />
    <glyph glyph-name="uni00B2" unicode="&#xb2;" horiz-adv-x="812" 
d="M670 667l-0.000976562 71.999h-449l-2 6l240 212c42.667 41.333 78.334 78 107.001 110s50.167 62.333 64.5 91s21.5 59.334 21.5 92.001c0 74 -22.833 130.667 -68.5 170s-108.5 59 -188.5 59c-56.667 0 -106 -10.5 -148 -31.5s-74.167 -49.167 -96.5 -84.5
s-32.5 -74.333 -30.5 -117l3 -6h74c0 48.667 17.167 88.5 51.5 119.5s83.166 46.5 146.499 46.5c58 0 101.5 -14 130.5 -42s43.5 -65.667 43.5 -113c0 -33.333 -9.66699 -65.833 -29 -97.5s-55.666 -72.5 -108.999 -122.5l-321 -292v-72h560z" />
    <glyph glyph-name="uni00B3" unicode="&#xb3;" horiz-adv-x="834" 
d="M387 1111l-118.002 -0.000976562v-72h118c68 0 119 -12.5 153 -37.5s51 -64.167 51 -117.5c0 -48.667 -18.167 -87 -54.5 -115s-87.166 -42 -152.499 -42c-61.333 0 -111 15 -149 45s-57 68.667 -57 116h-74l-2 -6c-2 -48.667 9.5 -90 34.5 -124s59.333 -59.667 103 -77
s91.834 -26 144.501 -26c85.333 0 154.833 20.333 208.5 61s80.5 97 80.5 169c0 98 -50 161.667 -150 191c43.333 16.667 76.833 40.834 100.5 72.501s35.5 67.167 35.5 106.5c0 71.333 -24.667 126.333 -74 165s-116.333 58 -201 58c-78 0 -143.167 -20 -195.5 -60
s-76.5 -91.333 -72.5 -154l2 -6h72c0 44 18.333 79.5 55 106.5s83 40.5 139 40.5c64 0 112.167 -13.667 144.5 -41s48.5 -63 48.5 -107c0 -97.333 -63.333 -146 -190 -146z" />
    <glyph glyph-name="acute" unicode="&#xb4;" horiz-adv-x="365" 
d="M40 1320l181 240h102l2 -5l-215 -239h-66z" />
    <glyph glyph-name="uni00B5" unicode="&#xb5;" horiz-adv-x="1290" 
d="M229 -416l0.000976562 1421l-163 6v71h163h85v-637c0 -144 26 -244.833 78 -302.5s121 -86.5 207 -86.5c109.333 0 190.166 26.667 242.499 80s85.5 129 99.5 227v642l-163 6v71h250v-1005l163 -6v-71h-235l-11 183c-31.333 -66 -75 -116.5 -131 -151.5
s-125 -52.5 -207 -52.5c-64 0 -121.167 12.833 -171.5 38.5s-90.833 67.167 -121.5 124.5v-558h-85z" />
    <glyph glyph-name="paragraph" unicode="&#xb6;" horiz-adv-x="1055" 
d="M522 0l0.000976562 71.001l163 6v443h-115c-104 0 -192.667 19.667 -266 59s-129.333 94.166 -168 164.499s-58 151.833 -58 244.5c0 92 19.5 173.167 58.5 243.5s95.167 125.333 168.5 165s161.666 59.5 264.999 59.5h365v-71l-163 -6v-1302l163 -6v-71h-413z" />
    <glyph glyph-name="periodcentered" unicode="&#xb7;" horiz-adv-x="488" 
d="M172 635v147h112v-147h-112z" />
    <glyph glyph-name="cedilla" unicode="&#xb8;" horiz-adv-x="470" 
d="M47 -435l-7.00098 63c64.667 0 120 11 166 33s69 54.333 69 97c0 40 -14.5 67.833 -43.5 83.5s-80.5 26.5 -154.5 32.5l28 133h74l-13 -79c56.667 -5.33301 101.834 -20.833 135.501 -46.5s50.5 -66.5 50.5 -122.5c0 -59.333 -26.333 -106.5 -79 -141.5
s-128 -52.5 -226 -52.5z" />
    <glyph glyph-name="uni00B9" unicode="&#xb9;" horiz-adv-x="489" 
d="M328 665v812l-238 -23v-74l157 11v-726h81z" />
    <glyph glyph-name="ordmasculine" unicode="&#xba;" horiz-adv-x="913" 
d="M436 691c-96.667 0 -173.334 30.833 -230.001 92.5s-85 142.167 -85 241.5v117c0 98.667 28.167 179.167 84.5 241.5s132.5 93.5 228.5 93.5c96.667 0 173.334 -31.167 230.001 -93.5s85 -142.833 85 -241.5v-117c0 -99.333 -28.167 -179.833 -84.5 -241.5
s-132.5 -92.5 -228.5 -92.5zM436 765c74.667 0 132 24.167 172 72.5s60 110.833 60 187.5v117c0 75.333 -20 137.5 -60 186.5s-98 73.5 -174 73.5c-74.667 0 -132 -24.5 -172 -73.5s-60 -111.167 -60 -186.5v-117c0 -77.333 19.5 -140 58.5 -188s97.5 -72 175.5 -72z" />
    <glyph glyph-name="guillemotright" unicode="&#xbb;" horiz-adv-x="906" 
d="M105 167l284 383l-284 392h88l294 -382v-19l-294 -374h-88zM408 167l284 383l-284 392h88l294 -382v-19l-294 -374h-88z" />
    <glyph glyph-name="onequarter" unicode="&#xbc;" horiz-adv-x="1512" 
d="M315 664v726l-157 -11v74l239 23v-812h-82zM359 134l-60 39l711 1138l60 -39zM1195 0v178h-436l-2 51l432 572h88v-551h164v-72h-164v-178h-82zM863 250h332v442l-6 2l-31 -51z" />
    <glyph glyph-name="onehalf" unicode="&#xbd;" horiz-adv-x="1455" 
d="M372 134l-60 39l711 1138l60 -39zM315 664v726l-157 -11v74l239 23v-812h-82zM898 0l0.000976562 72.001l321 292c53.333 50 89.666 90.833 108.999 122.5s29 64.167 29 97.5c0 47.333 -14.5 85 -43.5 113s-72.5 42 -130.5 42c-63.333 0 -112.166 -15.5 -146.499 -46.5
s-51.5 -70.833 -51.5 -119.5h-74l-3 6c-2 42.667 8.16699 81.667 30.5 117s54.5 63.5 96.5 84.5s91.333 31.5 148 31.5c80 0 142.833 -19.667 188.5 -59s68.5 -96 68.5 -170c0 -32.667 -7.16699 -63.334 -21.5 -92.001s-35.833 -59 -64.5 -91s-64.334 -68.667 -107.001 -110
l-240 -212l2 -6h449v-72h-560z" />
    <glyph glyph-name="threequarters" unicode="&#xbe;" horiz-adv-x="1662" 
d="M577 134l-60 39l711 1138l60 -39zM1411 0v178h-436l-2 51l432 572h88v-551h164v-72h-164v-178h-82zM1079 250h332v442l-6 2l-31 -51zM412 656c-52.667 0 -100.832 8.66797 -144.499 26.001s-78 43 -103 77s-36.5 75.333 -34.5 124l2 6h74c0 -47.333 19 -86 57 -116
s87.667 -45 149 -45c65.333 0 116.166 14 152.499 42s54.5 66.333 54.5 115c0 53.333 -17 92.5 -51 117.5s-85 37.5 -153 37.5h-118v72h118c126.667 0 190 48.667 190 146c0 44 -16.167 79.667 -48.5 107s-80.5 41 -144.5 41c-56 0 -102.333 -13.5 -139 -40.5
s-55 -62.5 -55 -106.5h-72l-2 6c-4 62.667 20.167 114 72.5 154s117.5 60 195.5 60c84.667 0 151.667 -19.333 201 -58s74 -93.667 74 -165c0 -39.333 -11.833 -74.833 -35.5 -106.5s-57.167 -55.834 -100.5 -72.501c100 -29.333 150 -93 150 -191
c0 -72 -26.833 -128.333 -80.5 -169s-123.167 -61 -208.5 -61z" />
    <glyph glyph-name="questiondown" unicode="&#xbf;" horiz-adv-x="851" 
d="M492 681c0 -42 -1.33105 -76.334 -3.99805 -103.001s-8.33398 -50.334 -17.001 -71.001s-21.667 -41 -39 -61s-40.666 -43.333 -69.999 -70c-52.667 -49.333 -94.834 -93.5 -126.501 -132.5s-54.667 -79.167 -69 -120.5s-21.5 -90.333 -21.5 -147
c0 -91.333 24.333 -162.666 73 -213.999s117.667 -77 207 -77c86.667 0 155 25.5 205 76.5s75.667 119.5 77 205.5h79l3 -6c0.666992 -74.667 -14.5 -138.5 -45.5 -191.5s-74 -93.5 -129 -121.5s-118.167 -42 -189.5 -42c-114 0 -203.667 33.667 -269 101s-98 157 -98 269
c0 61.333 9.16699 116.833 27.5 166.5s46.333 97.667 84 144s85.167 95.833 142.5 148.5c27.333 25.333 47.666 48.333 60.999 69s22 44.334 26 71.001s6 62 6 106h87zM496.002 1083v-130h-110v130h110z" />
    <glyph glyph-name="Agrave" unicode="&#xc0;" horiz-adv-x="1486" 
d="M58 0v71l108 3l520 1382h90l519 -1382l107 -3v-71h-334v71l135 4l-132 355h-682l-132 -355l135 -4v-71h-334zM419 510h623l-284 767l-24 71h-6l-24 -71zM805 1590l-3 -4h-67l-215 239l2 5h102z" />
    <glyph glyph-name="Aacute" unicode="&#xc1;" horiz-adv-x="1486" 
d="M58 0v71l108 3l520 1382h90l519 -1382l107 -3v-71h-334v71l135 4l-132 355h-682l-132 -355l135 -4v-71h-334zM419 510h623l-284 767l-24 71h-6l-24 -71zM657 1590l181 240h102l2 -5l-215 -239h-66z" />
    <glyph glyph-name="Acircumflex" unicode="&#xc2;" horiz-adv-x="1486" 
d="M58 0v71l108 3l520 1382h90l519 -1382l107 -3v-71h-334v71l135 4l-132 355h-682l-132 -355l135 -4v-71h-334zM419 510h623l-284 767l-24 71h-6l-24 -71zM466 1598v19l224 213h78l227 -216v-16h-83l-184 177l-180 -177h-82z" />
    <glyph glyph-name="Atilde" unicode="&#xc3;" horiz-adv-x="1486" 
d="M58 0v71l108 3l520 1382h90l519 -1382l107 -3v-71h-334v71l135 4l-132 355h-682l-132 -355l135 -4v-71h-334zM419 510h623l-284 767l-24 71h-6l-24 -71zM470 1627l-65 5c0 38 8 71.333 24 100s37.167 51.5 63.5 68.5s55.5 25.5 87.5 25.5
c36.667 0 72.834 -9.83301 108.501 -29.5l103 -59.5c33 -20 63.5 -30 91.5 -30c27.333 0 52.166 11.333 74.499 34s33.5 53.334 33.5 92.001l65 -6c0 -37.333 -7.66699 -70.833 -23 -100.5s-36 -52.834 -62 -69.501s-54.667 -25 -86 -25c-36.667 0 -72.834 10 -108.501 30
l-103.5 60c-33.333 20 -64.666 30 -93.999 30c-28.667 0 -54 -11 -76 -33s-33 -52.667 -33 -92z" />
    <glyph glyph-name="Adieresis" unicode="&#xc4;" horiz-adv-x="1486" 
d="M58 0v71l108 3l520 1382h90l519 -1382l107 -3v-71h-334v71l135 4l-132 355h-682l-132 -355l135 -4v-71h-334zM419 510h623l-284 767l-24 71h-6l-24 -71zM851 1675v155h103v-155h-103zM507 1675v155h104v-155h-104z" />
    <glyph glyph-name="Aring" unicode="&#xc5;" horiz-adv-x="1486" 
d="M58 0v71l108 3l520 1382h90l519 -1382l107 -3v-71h-334v71l135 4l-132 355h-682l-132 -355l135 -4v-71h-334zM419 510h623l-284 767l-24 71h-6l-24 -71zM731 1485c-50.667 0 -93.334 16.667 -128.001 50s-52 75.333 -52 126s17.333 93.167 52 127.5
s77.334 51.5 128.001 51.5c49.333 0 91.333 -17.167 126 -51.5s52 -76.833 52 -127.5s-17.333 -92.667 -52 -126s-76.667 -50 -126 -50zM731 1547c32 0 58.833 10.499 80.5 31.499s32.5 48.5 32.5 82.5s-10.833 62 -32.5 84s-48.5 33 -80.5 33
c-33.333 0 -60.833 -11 -82.5 -33s-32.5 -50 -32.5 -84c0 -33.333 10.833 -60.666 32.5 -81.999s49.167 -32 82.5 -32z" />
    <glyph glyph-name="AE" unicode="&#xc6;" horiz-adv-x="2042" 
d="M51 0v71l124 4l836 1381h820v-300h-80l-4 223h-611l25 -582h588v-77h-585l27 -643h618l3 222h80v-299h-948v71l160 6l-14 331h-611l-200 -334l120 -3v-71h-348zM527 490h560l-37 874l-5 2l-46 -84z" />
    <glyph glyph-name="Ccedilla" unicode="&#xc7;" horiz-adv-x="1335" 
d="M781 -21c-142 0 -262.336 31.333 -361.003 94s-173.667 149.5 -225 260.5s-77 239.5 -77 385.5v18c0 146 26.5 274.5 79.5 385.5s127.333 197.833 223 260.5s207.834 94 336.501 94c102.667 0 188.834 -13.667 258.501 -41s133.167 -66.333 190.5 -117v-270h-78l-5 233
c-32.667 25.333 -66.167 46.5 -100.5 63.5s-72.666 30 -114.999 39s-92.833 13.5 -151.5 13.5c-110 0 -206.333 -27.667 -289 -83s-146.834 -132.5 -192.501 -231.5s-68.5 -213.833 -68.5 -344.5v-20c0 -133.333 22.667 -249.5 68 -348.5s111 -176 197 -231
s189.333 -82.5 310 -82.5c66.667 0 131.334 8.5 194.001 25.5s115.667 40.167 159 69.5l5 227h78v-280c-60.667 -40 -128 -70 -202 -90s-152 -30 -234 -30zM625.997 -435l-7.00098 63c64.667 0 120 11 166 33s69 54.333 69 97c0 40 -14.5 67.833 -43.5 83.5
s-80.5 26.5 -154.5 32.5l28 133h74l-13 -79c56.667 -5.33301 101.834 -20.833 135.501 -46.5s50.5 -66.5 50.5 -122.5c0 -59.333 -26.333 -106.5 -79 -141.5s-128 -52.5 -226 -52.5z" />
    <glyph glyph-name="Egrave" unicode="&#xc8;" horiz-adv-x="1278" 
d="M73 0v71l163 6v1302l-163 6v71h1033v-306h-78l-5 229h-700v-583h609v-77h-609v-643h730l5 230h78v-306h-1063zM713 1590l-3 -4h-67l-215 239l2 5h102z" />
    <glyph glyph-name="Eacute" unicode="&#xc9;" horiz-adv-x="1278" 
d="M73 0v71l163 6v1302l-163 6v71h1033v-306h-78l-5 229h-700v-583h609v-77h-609v-643h730l5 230h78v-306h-1063zM565 1590l181 240h102l2 -5l-215 -239h-66z" />
    <glyph glyph-name="Ecircumflex" unicode="&#xca;" horiz-adv-x="1278" 
d="M73 0v71l163 6v1302l-163 6v71h1033v-306h-78l-5 229h-700v-583h609v-77h-609v-643h730l5 230h78v-306h-1063zM374 1598v19l224 213h78l227 -216v-16h-83l-184 177l-180 -177h-82z" />
    <glyph glyph-name="Edieresis" unicode="&#xcb;" horiz-adv-x="1278" 
d="M73 0v71l163 6v1302l-163 6v71h1033v-306h-78l-5 229h-700v-583h609v-77h-609v-643h730l5 230h78v-306h-1063zM759 1675v155h103v-155h-103zM415 1675v155h104v-155h-104z" />
    <glyph glyph-name="Igrave" unicode="&#xcc;" horiz-adv-x="560" 
d="M73 0v71l163 6v1302l-163 6v71h413v-71l-163 -6v-1302l163 -6v-71h-413zM354 1590l-3 -4h-67l-215 239l2 5h102z" />
    <glyph glyph-name="Iacute" unicode="&#xcd;" horiz-adv-x="560" 
d="M73 0v71l163 6v1302l-163 6v71h413v-71l-163 -6v-1302l163 -6v-71h-413zM206 1590l181 240h102l2 -5l-215 -239h-66z" />
    <glyph glyph-name="Icircumflex" unicode="&#xce;" horiz-adv-x="560" 
d="M73 0v71l163 6v1302l-163 6v71h413v-71l-163 -6v-1302l163 -6v-71h-413zM15 1598v19l224 213h78l227 -216v-16h-83l-184 177l-180 -177h-82z" />
    <glyph glyph-name="Idieresis" unicode="&#xcf;" horiz-adv-x="560" 
d="M73 0v71l163 6v1302l-163 6v71h413v-71l-163 -6v-1302l163 -6v-71h-413zM399 1675v155h103v-155h-103zM55 1675v155h104v-155h-104z" />
    <glyph glyph-name="Eth" unicode="&#xd0;" horiz-adv-x="1379" 
d="M73 0l-0.000976562 71.001l163 6v1302l-163 6v71h163h398c121.333 0 228.833 -30.833 322.5 -92.5s167.334 -146.334 221.001 -254.001s80.5 -231.5 80.5 -371.5v-21c0 -138.667 -26.5 -262 -79.5 -370s-126.167 -192.833 -219.5 -254.5s-201 -92.5 -323 -92.5h-563z
M322.999 77.001h311c104.667 0 197.334 28 278.001 84s144 132.333 190 229s69 205.667 69 327v24c0 122 -23 231 -69 327s-109.333 171.833 -190 227.5s-173.334 83.5 -278.001 83.5h-311v-1302zM72.999 702.001v77h540v-77h-540z" />
    <glyph glyph-name="Ntilde" unicode="&#xd1;" horiz-adv-x="1534" 
d="M74 0v71l163 6v1302l-163 6v71h163h88l883 -1303l6 2v1224l-166 6v71h250h163v-71l-163 -6v-1379h-84l-887 1306l-6 -2v-1227l167 -6v-71h-414zM506 1627l-65 5c0 38 8 71.333 24 100s37.167 51.5 63.5 68.5s55.5 25.5 87.5 25.5c36.667 0 72.834 -9.83301 108.501 -29.5
l103 -59.5c33 -20 63.5 -30 91.5 -30c27.333 0 52.166 11.333 74.499 34s33.5 53.334 33.5 92.001l65 -6c0 -37.333 -7.66699 -70.833 -23 -100.5s-36 -52.834 -62 -69.501s-54.667 -25 -86 -25c-36.667 0 -72.834 10 -108.501 30l-103.5 60
c-33.333 20 -64.666 30 -93.999 30c-28.667 0 -54 -11 -76 -33s-33 -52.667 -33 -92z" />
    <glyph glyph-name="Ograve" unicode="&#xd2;" horiz-adv-x="1456" 
d="M725 -21c-91.333 0 -174.335 17.667 -249.002 53s-138.834 85.5 -192.501 150.5s-95 142.833 -124 233.5s-43.5 191.667 -43.5 303v18c0 111.333 14.333 212.333 43 303s69.834 168.5 123.501 233.5s117.667 115.167 192 150.5s157.166 53 248.499 53
c92.667 0 176.334 -17.667 251.001 -53s138.834 -85.5 192.501 -150.5s94.834 -142.833 123.501 -233.5s43 -191.667 43 -303v-18c0 -111.333 -14.333 -212.5 -43 -303.5s-69.5 -168.833 -122.5 -233.5s-117 -114.667 -192 -150s-158.5 -53 -250.5 -53zM724.998 58
c108.667 0 201.833 27.333 279.5 82s137.167 131.667 178.5 231s62 215.333 62 348v20c0 132 -20.833 247.333 -62.5 346s-101.5 175.334 -179.5 230.001s-171.333 82 -280 82c-106 0 -197.833 -27.333 -275.5 -82s-137.667 -131.334 -180 -230.001s-63.5 -214 -63.5 -346
v-20c0 -132.667 21.167 -248.5 63.5 -347.5s102.5 -176 180.5 -231s170.333 -82.5 277 -82.5zM797.997 1590l-3 -4h-67l-215 239l2 5h102z" />
    <glyph glyph-name="Oacute" unicode="&#xd3;" horiz-adv-x="1456" 
d="M725 -21c-91.333 0 -174.335 17.667 -249.002 53s-138.834 85.5 -192.501 150.5s-95 142.833 -124 233.5s-43.5 191.667 -43.5 303v18c0 111.333 14.333 212.333 43 303s69.834 168.5 123.501 233.5s117.667 115.167 192 150.5s157.166 53 248.499 53
c92.667 0 176.334 -17.667 251.001 -53s138.834 -85.5 192.501 -150.5s94.834 -142.833 123.501 -233.5s43 -191.667 43 -303v-18c0 -111.333 -14.333 -212.5 -43 -303.5s-69.5 -168.833 -122.5 -233.5s-117 -114.667 -192 -150s-158.5 -53 -250.5 -53zM724.998 58
c108.667 0 201.833 27.333 279.5 82s137.167 131.667 178.5 231s62 215.333 62 348v20c0 132 -20.833 247.333 -62.5 346s-101.5 175.334 -179.5 230.001s-171.333 82 -280 82c-106 0 -197.833 -27.333 -275.5 -82s-137.667 -131.334 -180 -230.001s-63.5 -214 -63.5 -346
v-20c0 -132.667 21.167 -248.5 63.5 -347.5s102.5 -176 180.5 -231s170.333 -82.5 277 -82.5zM649.997 1590l181 240h102l2 -5l-215 -239h-66z" />
    <glyph glyph-name="Ocircumflex" unicode="&#xd4;" horiz-adv-x="1456" 
d="M725 -21c-91.333 0 -174.335 17.667 -249.002 53s-138.834 85.5 -192.501 150.5s-95 142.833 -124 233.5s-43.5 191.667 -43.5 303v18c0 111.333 14.333 212.333 43 303s69.834 168.5 123.501 233.5s117.667 115.167 192 150.5s157.166 53 248.499 53
c92.667 0 176.334 -17.667 251.001 -53s138.834 -85.5 192.501 -150.5s94.834 -142.833 123.501 -233.5s43 -191.667 43 -303v-18c0 -111.333 -14.333 -212.5 -43 -303.5s-69.5 -168.833 -122.5 -233.5s-117 -114.667 -192 -150s-158.5 -53 -250.5 -53zM724.998 58
c108.667 0 201.833 27.333 279.5 82s137.167 131.667 178.5 231s62 215.333 62 348v20c0 132 -20.833 247.333 -62.5 346s-101.5 175.334 -179.5 230.001s-171.333 82 -280 82c-106 0 -197.833 -27.333 -275.5 -82s-137.667 -131.334 -180 -230.001s-63.5 -214 -63.5 -346
v-20c0 -132.667 21.167 -248.5 63.5 -347.5s102.5 -176 180.5 -231s170.333 -82.5 277 -82.5zM458.997 1598v19l224 213h78l227 -216v-16h-83l-184 177l-180 -177h-82z" />
    <glyph glyph-name="Otilde" unicode="&#xd5;" horiz-adv-x="1456" 
d="M725 -21c-91.333 0 -174.335 17.667 -249.002 53s-138.834 85.5 -192.501 150.5s-95 142.833 -124 233.5s-43.5 191.667 -43.5 303v18c0 111.333 14.333 212.333 43 303s69.834 168.5 123.501 233.5s117.667 115.167 192 150.5s157.166 53 248.499 53
c92.667 0 176.334 -17.667 251.001 -53s138.834 -85.5 192.501 -150.5s94.834 -142.833 123.501 -233.5s43 -191.667 43 -303v-18c0 -111.333 -14.333 -212.5 -43 -303.5s-69.5 -168.833 -122.5 -233.5s-117 -114.667 -192 -150s-158.5 -53 -250.5 -53zM724.998 58
c108.667 0 201.833 27.333 279.5 82s137.167 131.667 178.5 231s62 215.333 62 348v20c0 132 -20.833 247.333 -62.5 346s-101.5 175.334 -179.5 230.001s-171.333 82 -280 82c-106 0 -197.833 -27.333 -275.5 -82s-137.667 -131.334 -180 -230.001s-63.5 -214 -63.5 -346
v-20c0 -132.667 21.167 -248.5 63.5 -347.5s102.5 -176 180.5 -231s170.333 -82.5 277 -82.5zM461.997 1627l-65 5c0 38 8 71.333 24 100s37.167 51.5 63.5 68.5s55.5 25.5 87.5 25.5c36.667 0 72.834 -9.83301 108.501 -29.5l103 -59.5c33 -20 63.5 -30 91.5 -30
c27.333 0 52.166 11.333 74.499 34s33.5 53.334 33.5 92.001l65 -6c0 -37.333 -7.66699 -70.833 -23 -100.5s-36 -52.834 -62 -69.501s-54.667 -25 -86 -25c-36.667 0 -72.834 10 -108.501 30l-103.5 60c-33.333 20 -64.666 30 -93.999 30c-28.667 0 -54 -11 -76 -33
s-33 -52.667 -33 -92z" />
    <glyph glyph-name="Odieresis" unicode="&#xd6;" horiz-adv-x="1456" 
d="M725 -21c-91.333 0 -174.335 17.667 -249.002 53s-138.834 85.5 -192.501 150.5s-95 142.833 -124 233.5s-43.5 191.667 -43.5 303v18c0 111.333 14.333 212.333 43 303s69.834 168.5 123.501 233.5s117.667 115.167 192 150.5s157.166 53 248.499 53
c92.667 0 176.334 -17.667 251.001 -53s138.834 -85.5 192.501 -150.5s94.834 -142.833 123.501 -233.5s43 -191.667 43 -303v-18c0 -111.333 -14.333 -212.5 -43 -303.5s-69.5 -168.833 -122.5 -233.5s-117 -114.667 -192 -150s-158.5 -53 -250.5 -53zM724.998 58
c108.667 0 201.833 27.333 279.5 82s137.167 131.667 178.5 231s62 215.333 62 348v20c0 132 -20.833 247.333 -62.5 346s-101.5 175.334 -179.5 230.001s-171.333 82 -280 82c-106 0 -197.833 -27.333 -275.5 -82s-137.667 -131.334 -180 -230.001s-63.5 -214 -63.5 -346
v-20c0 -132.667 21.167 -248.5 63.5 -347.5s102.5 -176 180.5 -231s170.333 -82.5 277 -82.5zM842.997 1675v155h103v-155h-103zM498.997 1675v155h104v-155h-104z" />
    <glyph glyph-name="multiply" unicode="&#xd7;" horiz-adv-x="1050" 
d="M138 246l-59 57l371 380l-350 357l59 59l349 -357l350 357l59 -59l-350 -357l372 -380l-59 -57l-371 377z" />
    <glyph glyph-name="Oslash" unicode="&#xd8;" horiz-adv-x="1456" 
d="M725 -21c-91.333 0 -174.335 17.667 -249.002 53s-138.834 85.5 -192.501 150.5s-95 142.833 -124 233.5s-43.5 191.667 -43.5 303v18c0 111.333 14.333 212.333 43 303s69.834 168.5 123.501 233.5s117.667 115.167 192 150.5s157.166 53 248.499 53
c92.667 0 176.334 -17.667 251.001 -53s138.834 -85.5 192.501 -150.5s94.834 -142.833 123.501 -233.5s43 -191.667 43 -303v-18c0 -111.333 -14.333 -212.5 -43 -303.5s-69.5 -168.833 -122.5 -233.5s-117 -114.667 -192 -150s-158.5 -53 -250.5 -53zM724.998 58
c108.667 0 201.833 27.333 279.5 82s137.167 131.667 178.5 231s62 215.333 62 348v20c0 132 -20.833 247.333 -62.5 346s-101.5 175.334 -179.5 230.001s-171.333 82 -280 82c-106 0 -197.833 -27.333 -275.5 -82s-137.667 -131.334 -180 -230.001s-63.5 -214 -63.5 -346
v-20c0 -132.667 21.167 -248.5 63.5 -347.5s102.5 -176 180.5 -231s170.333 -82.5 277 -82.5zM190.997 -65l988 1579h85l-988 -1579h-85z" />
    <glyph glyph-name="Ugrave" unicode="&#xd9;" horiz-adv-x="1460" 
d="M729 -21c-99.333 0 -186.833 19.001 -262.5 57.001s-134.834 93.5 -177.501 166.5s-64 161.833 -64 266.5v910l-163 6v71h413v-71l-163 -6v-910c0 -87.333 17.667 -161.666 53 -222.999s84.333 -108.166 147 -140.499s135.334 -48.5 218.001 -48.5
c81.333 0 153.5 16.167 216.5 48.5s112.167 79.166 147.5 140.499s53 135.666 53 222.999v910l-163 6v71h413v-71l-163 -6v-910c0 -106 -21.167 -195.333 -63.5 -268s-101.5 -127.834 -177.5 -165.501s-164 -56.5 -264 -56.5zM804 1590l-3 -4h-67l-215 239l2 5h102z" />
    <glyph glyph-name="Uacute" unicode="&#xda;" horiz-adv-x="1460" 
d="M729 -21c-99.333 0 -186.833 19.001 -262.5 57.001s-134.834 93.5 -177.501 166.5s-64 161.833 -64 266.5v910l-163 6v71h413v-71l-163 -6v-910c0 -87.333 17.667 -161.666 53 -222.999s84.333 -108.166 147 -140.499s135.334 -48.5 218.001 -48.5
c81.333 0 153.5 16.167 216.5 48.5s112.167 79.166 147.5 140.499s53 135.666 53 222.999v910l-163 6v71h413v-71l-163 -6v-910c0 -106 -21.167 -195.333 -63.5 -268s-101.5 -127.834 -177.5 -165.501s-164 -56.5 -264 -56.5zM656 1590l181 240h102l2 -5l-215 -239h-66z" />
    <glyph glyph-name="Ucircumflex" unicode="&#xdb;" horiz-adv-x="1460" 
d="M729 -21c-99.333 0 -186.833 19.001 -262.5 57.001s-134.834 93.5 -177.501 166.5s-64 161.833 -64 266.5v910l-163 6v71h413v-71l-163 -6v-910c0 -87.333 17.667 -161.666 53 -222.999s84.333 -108.166 147 -140.499s135.334 -48.5 218.001 -48.5
c81.333 0 153.5 16.167 216.5 48.5s112.167 79.166 147.5 140.499s53 135.666 53 222.999v910l-163 6v71h413v-71l-163 -6v-910c0 -106 -21.167 -195.333 -63.5 -268s-101.5 -127.834 -177.5 -165.501s-164 -56.5 -264 -56.5zM466 1598v19l224 213h78l227 -216v-16h-83
l-184 177l-180 -177h-82z" />
    <glyph glyph-name="Udieresis" unicode="&#xdc;" horiz-adv-x="1460" 
d="M729 -21c-99.333 0 -186.833 19.001 -262.5 57.001s-134.834 93.5 -177.501 166.5s-64 161.833 -64 266.5v910l-163 6v71h413v-71l-163 -6v-910c0 -87.333 17.667 -161.666 53 -222.999s84.333 -108.166 147 -140.499s135.334 -48.5 218.001 -48.5
c81.333 0 153.5 16.167 216.5 48.5s112.167 79.166 147.5 140.499s53 135.666 53 222.999v910l-163 6v71h413v-71l-163 -6v-910c0 -106 -21.167 -195.333 -63.5 -268s-101.5 -127.834 -177.5 -165.501s-164 -56.5 -264 -56.5zM850 1675v155h103v-155h-103zM506 1675v155h104
v-155h-104z" />
    <glyph glyph-name="Yacute" unicode="&#xdd;" horiz-adv-x="1436" 
d="M513 0v71l163 6v471l-499 833l-120 4v71h367v-71l-147 -4l417 -713l25 -47l1 2l24 45l422 713l-148 4v71h364v-71l-121 -4l-497 -830v-474l163 -6v-71h-414zM645 1590l181 240h102l2 -5l-215 -239h-66z" />
    <glyph glyph-name="Thorn" unicode="&#xde;" horiz-adv-x="1249" 
d="M70 0v71l163 6v1302l-163 6v71h250h163v-71l-163 -6v-231h347c144.667 0 257.5 -38.167 338.5 -114.5s121.5 -174.833 121.5 -295.5c0 -121.333 -40.5 -219.833 -121.5 -295.5s-193.833 -113.5 -338.5 -113.5h-347v-252l163 -6v-71h-413zM320 406h347
c82 0 150.5 15.167 205.5 45.5s96.667 70.5 125 120.5s42.5 104.667 42.5 164c0 60.667 -14 116.5 -42 167.5s-69.667 91.667 -125 122s-124 45.5 -206 45.5h-347v-665z" />
    <glyph glyph-name="germandbls" unicode="&#xdf;" horiz-adv-x="1253" 
d="M790 -21c-38.667 0 -78.332 3.83496 -118.999 11.502s-78 18 -112 31s-60 27.167 -78 42.5l29 74c28 -21.333 67.833 -40.5 119.5 -57.5s101.5 -25.5 149.5 -25.5c82.667 0 148.834 22 198.501 66s74.5 100.667 74.5 170c0 46.667 -12.667 88.5 -38 125.5
s-56.666 71.833 -93.999 104.5l-112.5 99c-37.667 33.333 -69.167 69.666 -94.5 108.999s-38 84.333 -38 135c0 32.667 6.33301 67 19 103s27.167 72.667 43.5 110s30.666 74.666 42.999 111.999s18.5 73.666 18.5 108.999c0 59.333 -20.167 108.5 -60.5 147.5
s-95.5 58.5 -165.5 58.5c-80.667 0 -145.5 -28.5 -194.5 -85.5s-73.5 -138.5 -73.5 -244.5v-1174h-250v71l163 6v1097c0 86.667 14.333 160.334 43 221.001s69.167 106.834 121.5 138.501s114.833 47.5 187.5 47.5c60 0 113.667 -11.333 161 -34s84.5 -55.167 111.5 -97.5
s40.5 -92.833 40.5 -151.5c0 -43.333 -6.16699 -84.833 -18.5 -124.5s-26.333 -77.334 -42 -113.001s-29.667 -70 -42 -103s-18.5 -64.5 -18.5 -94.5c0 -41.333 12.667 -78.833 38 -112.5s56.666 -66.167 93.999 -97.5l112.5 -98.5
c37.667 -34.333 69.167 -72.833 94.5 -115.5s38 -92 38 -148c0 -66 -16.167 -122.333 -48.5 -169s-74.833 -82.167 -127.5 -106.5s-110.334 -36.5 -173.001 -36.5z" />
    <glyph glyph-name="agrave" unicode="&#xe0;" horiz-adv-x="1120" 
d="M419 -21c-99.333 0 -177.667 27.168 -235 81.501s-86 127.166 -86 218.499c0 65.333 19.333 123 58 173s93.667 89 165 117s155.333 42 252 42h236v131c0 84 -24.667 152.167 -74 204.5s-125 78.5 -227 78.5c-55.333 0 -105.666 -9.66699 -150.999 -29
s-84.333 -43.333 -117 -72l-4 -171h-77v216c45.333 40.667 96.666 73 153.999 97s122.666 36 195.999 36c126.667 0 222.834 -32.167 288.501 -96.5s98.5 -152.833 98.5 -265.5v-522c0 -24.667 0.833008 -49 2.5 -73s4.83398 -48 9.50098 -72l140 -2v-71h-217
c-8 43.333 -13.667 77.333 -17 102s-5 53 -5 85c-40 -61.333 -93.833 -111.333 -161.5 -150s-143.834 -58 -228.501 -58zM424.999 58.001c78.667 0 153.668 21.332 225.001 63.999s124.333 100.334 159 173.001v243h-236c-118.667 0 -213 -25 -283 -75
s-105 -112.667 -105 -188c0 -62.667 22.167 -114.5 66.5 -155.5s102.166 -61.5 173.499 -61.5zM593 1320l-3 -4h-67l-215 239l2 5h102z" />
    <glyph glyph-name="aacute" unicode="&#xe1;" horiz-adv-x="1120" 
d="M419 -21c-99.333 0 -177.667 27.168 -235 81.501s-86 127.166 -86 218.499c0 65.333 19.333 123 58 173s93.667 89 165 117s155.333 42 252 42h236v131c0 84 -24.667 152.167 -74 204.5s-125 78.5 -227 78.5c-55.333 0 -105.666 -9.66699 -150.999 -29
s-84.333 -43.333 -117 -72l-4 -171h-77v216c45.333 40.667 96.666 73 153.999 97s122.666 36 195.999 36c126.667 0 222.834 -32.167 288.501 -96.5s98.5 -152.833 98.5 -265.5v-522c0 -24.667 0.833008 -49 2.5 -73s4.83398 -48 9.50098 -72l140 -2v-71h-217
c-8 43.333 -13.667 77.333 -17 102s-5 53 -5 85c-40 -61.333 -93.833 -111.333 -161.5 -150s-143.834 -58 -228.501 -58zM424.999 58.001c78.667 0 153.668 21.332 225.001 63.999s124.333 100.334 159 173.001v243h-236c-118.667 0 -213 -25 -283 -75
s-105 -112.667 -105 -188c0 -62.667 22.167 -114.5 66.5 -155.5s102.166 -61.5 173.499 -61.5zM445 1320l181 240h102l2 -5l-215 -239h-66z" />
    <glyph glyph-name="acircumflex" unicode="&#xe2;" horiz-adv-x="1120" 
d="M419 -21c-99.333 0 -177.667 27.168 -235 81.501s-86 127.166 -86 218.499c0 65.333 19.333 123 58 173s93.667 89 165 117s155.333 42 252 42h236v131c0 84 -24.667 152.167 -74 204.5s-125 78.5 -227 78.5c-55.333 0 -105.666 -9.66699 -150.999 -29
s-84.333 -43.333 -117 -72l-4 -171h-77v216c45.333 40.667 96.666 73 153.999 97s122.666 36 195.999 36c126.667 0 222.834 -32.167 288.501 -96.5s98.5 -152.833 98.5 -265.5v-522c0 -24.667 0.833008 -49 2.5 -73s4.83398 -48 9.50098 -72l140 -2v-71h-217
c-8 43.333 -13.667 77.333 -17 102s-5 53 -5 85c-40 -61.333 -93.833 -111.333 -161.5 -150s-143.834 -58 -228.501 -58zM424.999 58.001c78.667 0 153.668 21.332 225.001 63.999s124.333 100.334 159 173.001v243h-236c-118.667 0 -213 -25 -283 -75
s-105 -112.667 -105 -188c0 -62.667 22.167 -114.5 66.5 -155.5s102.166 -61.5 173.499 -61.5zM255 1328v19l224 213h78l227 -216v-16h-83l-184 177l-180 -177h-82z" />
    <glyph glyph-name="atilde" unicode="&#xe3;" horiz-adv-x="1120" 
d="M419 -21c-99.333 0 -177.667 27.168 -235 81.501s-86 127.166 -86 218.499c0 65.333 19.333 123 58 173s93.667 89 165 117s155.333 42 252 42h236v131c0 84 -24.667 152.167 -74 204.5s-125 78.5 -227 78.5c-55.333 0 -105.666 -9.66699 -150.999 -29
s-84.333 -43.333 -117 -72l-4 -171h-77v216c45.333 40.667 96.666 73 153.999 97s122.666 36 195.999 36c126.667 0 222.834 -32.167 288.501 -96.5s98.5 -152.833 98.5 -265.5v-522c0 -24.667 0.833008 -49 2.5 -73s4.83398 -48 9.50098 -72l140 -2v-71h-217
c-8 43.333 -13.667 77.333 -17 102s-5 53 -5 85c-40 -61.333 -93.833 -111.333 -161.5 -150s-143.834 -58 -228.501 -58zM424.999 58.001c78.667 0 153.668 21.332 225.001 63.999s124.333 100.334 159 173.001v243h-236c-118.667 0 -213 -25 -283 -75
s-105 -112.667 -105 -188c0 -62.667 22.167 -114.5 66.5 -155.5s102.166 -61.5 173.499 -61.5zM258 1357l-65 5c0 38 8 71.333 24 100s37.167 51.5 63.5 68.5s55.5 25.5 87.5 25.5c36.667 0 72.834 -9.83301 108.501 -29.5l103 -59.5c33 -20 63.5 -30 91.5 -30
c27.333 0 52.166 11.333 74.499 34s33.5 53.334 33.5 92.001l65 -6c0 -37.333 -7.66699 -70.833 -23 -100.5s-36 -52.834 -62 -69.501s-54.667 -25 -86 -25c-36.667 0 -72.834 10 -108.501 30l-103.5 60c-33.333 20 -64.666 30 -93.999 30c-28.667 0 -54 -11 -76 -33
s-33 -52.667 -33 -92z" />
    <glyph glyph-name="adieresis" unicode="&#xe4;" horiz-adv-x="1120" 
d="M419 -21c-99.333 0 -177.667 27.168 -235 81.501s-86 127.166 -86 218.499c0 65.333 19.333 123 58 173s93.667 89 165 117s155.333 42 252 42h236v131c0 84 -24.667 152.167 -74 204.5s-125 78.5 -227 78.5c-55.333 0 -105.666 -9.66699 -150.999 -29
s-84.333 -43.333 -117 -72l-4 -171h-77v216c45.333 40.667 96.666 73 153.999 97s122.666 36 195.999 36c126.667 0 222.834 -32.167 288.501 -96.5s98.5 -152.833 98.5 -265.5v-522c0 -24.667 0.833008 -49 2.5 -73s4.83398 -48 9.50098 -72l140 -2v-71h-217
c-8 43.333 -13.667 77.333 -17 102s-5 53 -5 85c-40 -61.333 -93.833 -111.333 -161.5 -150s-143.834 -58 -228.501 -58zM424.999 58.001c78.667 0 153.668 21.332 225.001 63.999s124.333 100.334 159 173.001v243h-236c-118.667 0 -213 -25 -283 -75
s-105 -112.667 -105 -188c0 -62.667 22.167 -114.5 66.5 -155.5s102.166 -61.5 173.499 -61.5zM639 1405v155h103v-155h-103zM295 1405v155h104v-155h-104z" />
    <glyph glyph-name="aring" unicode="&#xe5;" horiz-adv-x="1120" 
d="M419 -21c-99.333 0 -177.667 27.168 -235 81.501s-86 127.166 -86 218.499c0 65.333 19.333 123 58 173s93.667 89 165 117s155.333 42 252 42h236v131c0 84 -24.667 152.167 -74 204.5s-125 78.5 -227 78.5c-55.333 0 -105.666 -9.66699 -150.999 -29
s-84.333 -43.333 -117 -72l-4 -171h-77v216c45.333 40.667 96.666 73 153.999 97s122.666 36 195.999 36c126.667 0 222.834 -32.167 288.501 -96.5s98.5 -152.833 98.5 -265.5v-522c0 -24.667 0.833008 -49 2.5 -73s4.83398 -48 9.50098 -72l140 -2v-71h-217
c-8 43.333 -13.667 77.333 -17 102s-5 53 -5 85c-40 -61.333 -93.833 -111.333 -161.5 -150s-143.834 -58 -228.501 -58zM424.999 58.001c78.667 0 153.668 21.332 225.001 63.999s124.333 100.334 159 173.001v243h-236c-118.667 0 -213 -25 -283 -75
s-105 -112.667 -105 -188c0 -62.667 22.167 -114.5 66.5 -155.5s102.166 -61.5 173.499 -61.5zM520 1215c-50.667 0 -93.334 16.667 -128.001 50s-52 75.333 -52 126s17.333 93.167 52 127.5s77.334 51.5 128.001 51.5c49.333 0 91.333 -17.167 126 -51.5
s52 -76.833 52 -127.5s-17.333 -92.667 -52 -126s-76.667 -50 -126 -50zM520 1277c32 0 58.833 10.499 80.5 31.499s32.5 48.5 32.5 82.5s-10.833 62 -32.5 84s-48.5 33 -80.5 33c-33.333 0 -60.833 -11 -82.5 -33s-32.5 -50 -32.5 -84
c0 -33.333 10.833 -60.666 32.5 -81.999s49.167 -32 82.5 -32z" />
    <glyph glyph-name="ae" unicode="&#xe6;" horiz-adv-x="1782" 
d="M421 -21c-99.333 0 -178 28.5 -236 85.5s-87 132.5 -87 226.5c0 68 19.5 127.833 58.5 179.5s94 91.834 165 120.501s154.833 43 251.5 43h236v108c0 84 -24.5 152.167 -73.5 204.5s-124.833 78.5 -227.5 78.5c-55.333 0 -105.666 -9.66699 -150.999 -29
s-84 -43.333 -116 -72l-5 -171h-77v216c46 40.667 97.5 73 154.5 97s122.5 36 196.5 36c102.667 0 184.5 -21.833 245.5 -65.5s100.167 -104.5 117.5 -182.5c20.667 49.333 50.167 92.5 88.5 129.5s82.666 66 132.999 87s102.833 31.5 157.5 31.5
c86.667 0 160.834 -18.167 222.501 -54.5s109 -88.333 142 -156s49.5 -148.5 49.5 -242.5v-91h-770v-60c0 -131.333 31.5 -237.833 94.5 -319.5s157.5 -122.5 283.5 -122.5c68.667 0 129.667 11 183 33s101.666 52.667 144.999 92l39 -64
c-42 -40.667 -91.667 -73.834 -149 -99.501s-130 -38.5 -218 -38.5c-190 0 -327.667 85.333 -413 256c-46.667 -78 -107.667 -140.167 -183 -186.5s-161 -69.5 -257 -69.5zM426 58c53.333 0 105.834 10.501 157.501 31.501s98.667 50.833 141 89.5s75.166 84.667 98.499 138
c-4.66699 31.333 -8.16699 62.166 -10.5 92.499s-3.5 61.166 -3.5 92.499v58h-235c-119.333 0 -214 -25.667 -284 -77s-105 -116.666 -105 -195.999c0 -64.667 22.167 -119 66.5 -163s102.5 -66 174.5 -66zM898.001 634.001h681.001v32c0 104.667 -28.167 190.667 -84.5 258
s-137.166 101 -242.499 101c-66.667 0 -125.834 -16.667 -177.501 -50s-92.834 -79 -123.501 -137s-49 -124.333 -55 -199z" />
    <glyph glyph-name="ccedilla" unicode="&#xe7;" horiz-adv-x="1079" 
d="M545 -21c-86 0 -162.833 22.666 -230.5 67.999s-120.667 108.5 -159 189.5s-57.5 175.5 -57.5 283.5v42c0 106.667 18.667 200.5 56 281.5s89.5 144.333 156.5 190s144.833 68.5 233.5 68.5c82.667 0 156.5 -16.5 221.5 -49.5s119.5 -74.167 163.5 -123.5l1 -239h-77
l-8 207c-38 40 -81.667 71.333 -131 94s-105.333 34 -168 34c-72 0 -135.167 -20 -189.5 -60s-96.5 -94.667 -126.5 -164s-45 -149 -45 -239v-42c0 -92 15 -172.833 45 -242.5s72.167 -124 126.5 -163s117.833 -58.5 190.5 -58.5c86.667 0 159.334 22.5 218.001 67.5
s94 112.833 106 203.5h76l2 -6c-7.33301 -71.333 -28.333 -132.666 -63 -183.999s-80.834 -90.5 -138.501 -117.5s-125.167 -40.5 -202.5 -40.5zM432 -435.001l-7.00098 63c64.667 0 120 11 166 33s69 54.333 69 97c0 40 -14.5 67.833 -43.5 83.5s-80.5 26.5 -154.5 32.5
l28 133h74l-13 -79c56.667 -5.33301 101.834 -20.833 135.501 -46.5s50.5 -66.5 50.5 -122.5c0 -59.333 -26.333 -106.5 -79 -141.5s-128 -52.5 -226 -52.5z" />
    <glyph glyph-name="egrave" unicode="&#xe8;" horiz-adv-x="1078" 
d="M565 -21c-90 0 -169.667 22.3311 -239 66.998s-123.833 106.5 -163.5 185.5s-59.5 170.167 -59.5 273.5v59c0 103.333 19.5 195.5 58.5 276.5s92.167 144.833 159.5 191.5s143 70 227 70c84.667 0 158.167 -18.667 220.5 -56s110.166 -89.666 143.499 -156.999
s50 -147 50 -239v-92h-770l-1 -60c0.666992 -84.667 16.667 -160.334 48 -227.001s75 -119.167 131 -157.5s121 -57.5 195 -57.5c68 0 128.167 11.333 180.5 34s98.833 53.334 139.5 92.001l40 -62c-43.333 -41.333 -94.166 -75.166 -152.499 -101.499
s-127.5 -39.5 -207.5 -39.5zM202 634.998h673v32c0 68 -13.167 129 -39.5 183s-64 96.667 -113 128s-107.167 47 -174.5 47c-62.667 0 -119.167 -16.833 -169.5 -50.5s-91.333 -79.5 -123 -137.5s-50.5 -123.333 -56.5 -196zM623 1320l-3 -4h-67l-215 239l2 5h102z" />
    <glyph glyph-name="eacute" unicode="&#xe9;" horiz-adv-x="1078" 
d="M565 -21c-90 0 -169.667 22.3311 -239 66.998s-123.833 106.5 -163.5 185.5s-59.5 170.167 -59.5 273.5v59c0 103.333 19.5 195.5 58.5 276.5s92.167 144.833 159.5 191.5s143 70 227 70c84.667 0 158.167 -18.667 220.5 -56s110.166 -89.666 143.499 -156.999
s50 -147 50 -239v-92h-770l-1 -60c0.666992 -84.667 16.667 -160.334 48 -227.001s75 -119.167 131 -157.5s121 -57.5 195 -57.5c68 0 128.167 11.333 180.5 34s98.833 53.334 139.5 92.001l40 -62c-43.333 -41.333 -94.166 -75.166 -152.499 -101.499
s-127.5 -39.5 -207.5 -39.5zM202 634.998h673v32c0 68 -13.167 129 -39.5 183s-64 96.667 -113 128s-107.167 47 -174.5 47c-62.667 0 -119.167 -16.833 -169.5 -50.5s-91.333 -79.5 -123 -137.5s-50.5 -123.333 -56.5 -196zM475 1320l181 240h102l2 -5l-215 -239h-66z" />
    <glyph glyph-name="ecircumflex" unicode="&#xea;" horiz-adv-x="1078" 
d="M565 -21c-90 0 -169.667 22.3311 -239 66.998s-123.833 106.5 -163.5 185.5s-59.5 170.167 -59.5 273.5v59c0 103.333 19.5 195.5 58.5 276.5s92.167 144.833 159.5 191.5s143 70 227 70c84.667 0 158.167 -18.667 220.5 -56s110.166 -89.666 143.499 -156.999
s50 -147 50 -239v-92h-770l-1 -60c0.666992 -84.667 16.667 -160.334 48 -227.001s75 -119.167 131 -157.5s121 -57.5 195 -57.5c68 0 128.167 11.333 180.5 34s98.833 53.334 139.5 92.001l40 -62c-43.333 -41.333 -94.166 -75.166 -152.499 -101.499
s-127.5 -39.5 -207.5 -39.5zM202 634.998h673v32c0 68 -13.167 129 -39.5 183s-64 96.667 -113 128s-107.167 47 -174.5 47c-62.667 0 -119.167 -16.833 -169.5 -50.5s-91.333 -79.5 -123 -137.5s-50.5 -123.333 -56.5 -196zM284 1328v19l224 213h78l227 -216v-16h-83
l-184 177l-180 -177h-82z" />
    <glyph glyph-name="edieresis" unicode="&#xeb;" horiz-adv-x="1078" 
d="M565 -21c-90 0 -169.667 22.3311 -239 66.998s-123.833 106.5 -163.5 185.5s-59.5 170.167 -59.5 273.5v59c0 103.333 19.5 195.5 58.5 276.5s92.167 144.833 159.5 191.5s143 70 227 70c84.667 0 158.167 -18.667 220.5 -56s110.166 -89.666 143.499 -156.999
s50 -147 50 -239v-92h-770l-1 -60c0.666992 -84.667 16.667 -160.334 48 -227.001s75 -119.167 131 -157.5s121 -57.5 195 -57.5c68 0 128.167 11.333 180.5 34s98.833 53.334 139.5 92.001l40 -62c-43.333 -41.333 -94.166 -75.166 -152.499 -101.499
s-127.5 -39.5 -207.5 -39.5zM202 634.998h673v32c0 68 -13.167 129 -39.5 183s-64 96.667 -113 128s-107.167 47 -174.5 47c-62.667 0 -119.167 -16.833 -169.5 -50.5s-91.333 -79.5 -123 -137.5s-50.5 -123.333 -56.5 -196zM669 1405v155h103v-155h-103zM325 1405v155h104
v-155h-104z" />
    <glyph glyph-name="igrave" unicode="&#xec;" horiz-adv-x="619" 
d="M84 0v71l163 6v928l-163 6v71h250v-1005l163 -6v-71h-413zM357 1320l-3 -4h-67l-215 239l2 5h102z" />
    <glyph glyph-name="iacute" unicode="&#xed;" horiz-adv-x="619" 
d="M84 0v71l163 6v928l-163 6v71h250v-1005l163 -6v-71h-413zM209 1320l181 240h102l2 -5l-215 -239h-66z" />
    <glyph glyph-name="icircumflex" unicode="&#xee;" horiz-adv-x="619" 
d="M84 0v71l163 6v928l-163 6v71h250v-1005l163 -6v-71h-413zM19 1328v19l224 213h78l227 -216v-16h-83l-184 177l-180 -177h-82z" />
    <glyph glyph-name="idieresis" unicode="&#xef;" horiz-adv-x="619" 
d="M84 0v71l163 6v928l-163 6v71h250v-1005l163 -6v-71h-413zM403 1405v155h103v-155h-103zM59 1405v155h104v-155h-104z" />
    <glyph glyph-name="eth" unicode="&#xf0;" horiz-adv-x="1175" 
d="M543 -21c-90 0 -170.167 20.6689 -240.5 62.002s-125.333 97.666 -165 168.999s-59.5 151.666 -59.5 240.999c0 106 19 196.833 57 272.5s92.5 133.834 163.5 174.501s155.167 61 252.5 61c76.667 0 146.834 -14.5 210.501 -43.5s112.834 -68.167 147.501 -117.5l4 4
c-10.667 98.667 -34 185.834 -70 261.501s-81.667 141.5 -137 197.5l-323 -184l-39 60l305 175c-31.333 24 -64.833 46.667 -100.5 68s-74.167 41.666 -115.5 60.999l29 76c51.333 -22.667 99.166 -47.167 143.499 -73.5s85.166 -55.166 122.499 -86.499l269 154l40 -60
l-254 -146c77.333 -81.333 135.333 -177.833 174 -289.5s58 -243.834 58 -396.501v-84c0 -108.667 -20.5 -204.834 -61.5 -288.501s-97 -149.167 -168 -196.5s-151.833 -71 -242.5 -71zM547 59.002c75.333 0 141.501 20.3281 198.501 60.9951s101.667 96.834 134 168.501
s48.5 153.834 48.5 246.501v86v57c-26 56 -70.667 103.333 -134 142s-144.333 58 -243 58c-84.667 0 -155.5 -18.167 -212.5 -54.5s-100 -86.666 -129 -150.999s-43.5 -138.166 -43.5 -221.499c0 -70 15.5 -134.667 46.5 -194s75.167 -107.166 132.5 -143.499
s124.666 -54.5 201.999 -54.5z" />
    <glyph glyph-name="ntilde" unicode="&#xf1;" horiz-adv-x="1325" 
d="M86 0l0.000976562 71l163 6v928l-163 6v71h239l8 -209c33.333 72.667 80.5 129 141.5 169s134.833 60 221.5 60c117.333 0 206.166 -36.5 266.499 -109.5s90.5 -187.833 90.5 -344.5v-571l163 -6v-71h-413v71l163 6v571c0 137.333 -25 234.333 -75 291
s-119.333 85 -208 85c-102.667 0 -182 -30 -238 -90s-92.333 -137.333 -109 -232v-625l163 -6v-71h-413zM402.001 1357l-65 5c0 38 8 71.333 24 100s37.167 51.5 63.5 68.5s55.5 25.5 87.5 25.5c36.667 0 72.834 -9.83301 108.501 -29.5l103 -59.5c33 -20 63.5 -30 91.5 -30
c27.333 0 52.166 11.333 74.499 34s33.5 53.334 33.5 92.001l65 -6c0 -37.333 -7.66699 -70.833 -23 -100.5s-36 -52.834 -62 -69.501s-54.667 -25 -86 -25c-36.667 0 -72.834 10 -108.501 30l-103.5 60c-33.333 20 -64.666 30 -93.999 30c-28.667 0 -54 -11 -76 -33
s-33 -52.667 -33 -92z" />
    <glyph glyph-name="ograve" unicode="&#xf2;" horiz-adv-x="1148" 
d="M575 -21c-95.333 0 -178.666 23.167 -249.999 69.5s-127 110.333 -167 192s-60 175.5 -60 281.5v37c0 106.667 20 200.667 60 282s95.5 145.166 166.5 191.499s153.833 69.5 248.5 69.5c95.333 0 178.666 -23.167 249.999 -69.5s127 -110.166 167 -191.499
s60 -175.333 60 -282v-37c0 -106 -20 -200 -60 -282s-95.5 -146 -166.5 -192s-153.833 -69 -248.5 -69zM575 56c80 0 148.999 20.8311 206.999 62.498s102.667 97.667 134 168s47 148.833 47 235.5v37c0 86 -15.833 164.167 -47.5 234.5s-76.667 126.5 -135 168.5
s-127.5 63 -207.5 63c-79.333 0 -148.166 -21 -206.499 -63s-103.166 -98.167 -134.499 -168.5s-47 -148.5 -47 -234.5v-37c0 -87.333 15.667 -166.166 47 -236.499s76.166 -126.166 134.499 -167.499s127.833 -62 208.5 -62zM647.999 1320l-3 -4h-67l-215 239l2 5h102z" />
    <glyph glyph-name="oacute" unicode="&#xf3;" horiz-adv-x="1148" 
d="M575 -21c-95.333 0 -178.666 23.167 -249.999 69.5s-127 110.333 -167 192s-60 175.5 -60 281.5v37c0 106.667 20 200.667 60 282s95.5 145.166 166.5 191.499s153.833 69.5 248.5 69.5c95.333 0 178.666 -23.167 249.999 -69.5s127 -110.166 167 -191.499
s60 -175.333 60 -282v-37c0 -106 -20 -200 -60 -282s-95.5 -146 -166.5 -192s-153.833 -69 -248.5 -69zM575 56c80 0 148.999 20.8311 206.999 62.498s102.667 97.667 134 168s47 148.833 47 235.5v37c0 86 -15.833 164.167 -47.5 234.5s-76.667 126.5 -135 168.5
s-127.5 63 -207.5 63c-79.333 0 -148.166 -21 -206.499 -63s-103.166 -98.167 -134.499 -168.5s-47 -148.5 -47 -234.5v-37c0 -87.333 15.667 -166.166 47 -236.499s76.166 -126.166 134.499 -167.499s127.833 -62 208.5 -62zM499.999 1320l181 240h102l2 -5l-215 -239h-66z
" />
    <glyph glyph-name="ocircumflex" unicode="&#xf4;" horiz-adv-x="1148" 
d="M575 -21c-95.333 0 -178.666 23.167 -249.999 69.5s-127 110.333 -167 192s-60 175.5 -60 281.5v37c0 106.667 20 200.667 60 282s95.5 145.166 166.5 191.499s153.833 69.5 248.5 69.5c95.333 0 178.666 -23.167 249.999 -69.5s127 -110.166 167 -191.499
s60 -175.333 60 -282v-37c0 -106 -20 -200 -60 -282s-95.5 -146 -166.5 -192s-153.833 -69 -248.5 -69zM575 56c80 0 148.999 20.8311 206.999 62.498s102.667 97.667 134 168s47 148.833 47 235.5v37c0 86 -15.833 164.167 -47.5 234.5s-76.667 126.5 -135 168.5
s-127.5 63 -207.5 63c-79.333 0 -148.166 -21 -206.499 -63s-103.166 -98.167 -134.499 -168.5s-47 -148.5 -47 -234.5v-37c0 -87.333 15.667 -166.166 47 -236.499s76.166 -126.166 134.499 -167.499s127.833 -62 208.5 -62zM309.999 1328v19l224 213h78l227 -216v-16h-83
l-184 177l-180 -177h-82z" />
    <glyph glyph-name="otilde" unicode="&#xf5;" horiz-adv-x="1148" 
d="M575 -21c-95.333 0 -178.666 23.167 -249.999 69.5s-127 110.333 -167 192s-60 175.5 -60 281.5v37c0 106.667 20 200.667 60 282s95.5 145.166 166.5 191.499s153.833 69.5 248.5 69.5c95.333 0 178.666 -23.167 249.999 -69.5s127 -110.166 167 -191.499
s60 -175.333 60 -282v-37c0 -106 -20 -200 -60 -282s-95.5 -146 -166.5 -192s-153.833 -69 -248.5 -69zM575 56c80 0 148.999 20.8311 206.999 62.498s102.667 97.667 134 168s47 148.833 47 235.5v37c0 86 -15.833 164.167 -47.5 234.5s-76.667 126.5 -135 168.5
s-127.5 63 -207.5 63c-79.333 0 -148.166 -21 -206.499 -63s-103.166 -98.167 -134.499 -168.5s-47 -148.5 -47 -234.5v-37c0 -87.333 15.667 -166.166 47 -236.499s76.166 -126.166 134.499 -167.499s127.833 -62 208.5 -62zM312.999 1357l-65 5c0 38 8 71.333 24 100
s37.167 51.5 63.5 68.5s55.5 25.5 87.5 25.5c36.667 0 72.834 -9.83301 108.501 -29.5l103 -59.5c33 -20 63.5 -30 91.5 -30c27.333 0 52.166 11.333 74.499 34s33.5 53.334 33.5 92.001l65 -6c0 -37.333 -7.66699 -70.833 -23 -100.5s-36 -52.834 -62 -69.501
s-54.667 -25 -86 -25c-36.667 0 -72.834 10 -108.501 30l-103.5 60c-33.333 20 -64.666 30 -93.999 30c-28.667 0 -54 -11 -76 -33s-33 -52.667 -33 -92z" />
    <glyph glyph-name="odieresis" unicode="&#xf6;" horiz-adv-x="1148" 
d="M575 -21c-95.333 0 -178.666 23.167 -249.999 69.5s-127 110.333 -167 192s-60 175.5 -60 281.5v37c0 106.667 20 200.667 60 282s95.5 145.166 166.5 191.499s153.833 69.5 248.5 69.5c95.333 0 178.666 -23.167 249.999 -69.5s127 -110.166 167 -191.499
s60 -175.333 60 -282v-37c0 -106 -20 -200 -60 -282s-95.5 -146 -166.5 -192s-153.833 -69 -248.5 -69zM575 56c80 0 148.999 20.8311 206.999 62.498s102.667 97.667 134 168s47 148.833 47 235.5v37c0 86 -15.833 164.167 -47.5 234.5s-76.667 126.5 -135 168.5
s-127.5 63 -207.5 63c-79.333 0 -148.166 -21 -206.499 -63s-103.166 -98.167 -134.499 -168.5s-47 -148.5 -47 -234.5v-37c0 -87.333 15.667 -166.166 47 -236.499s76.166 -126.166 134.499 -167.499s127.833 -62 208.5 -62zM693.999 1405v155h103v-155h-103zM349.999 1405
v155h104v-155h-104z" />
    <glyph glyph-name="divide" unicode="&#xf7;" horiz-adv-x="1148" 
d="M74 665v84h998v-84h-998zM522 227v141h119v-141h-119zM522 1015v141h119v-141h-119z" />
    <glyph glyph-name="oslash" unicode="&#xf8;" horiz-adv-x="1148" 
d="M575 -21c-95.333 0 -178.666 23.167 -249.999 69.5s-127 110.333 -167 192s-60 175.5 -60 281.5v37c0 106.667 20 200.667 60 282s95.5 145.166 166.5 191.499s153.833 69.5 248.5 69.5c95.333 0 178.666 -23.167 249.999 -69.5s127 -110.166 167 -191.499
s60 -175.333 60 -282v-37c0 -106 -20 -200 -60 -282s-95.5 -146 -166.5 -192s-153.833 -69 -248.5 -69zM575 56c80 0 148.999 20.8311 206.999 62.498s102.667 97.667 134 168s47 148.833 47 235.5v37c0 86 -15.833 164.167 -47.5 234.5s-76.667 126.5 -135 168.5
s-127.5 63 -207.5 63c-79.333 0 -148.166 -21 -206.499 -63s-103.166 -98.167 -134.499 -168.5s-47 -148.5 -47 -234.5v-37c0 -87.333 15.667 -166.166 47 -236.499s76.166 -126.166 134.499 -167.499s127.833 -62 208.5 -62zM179.999 -139.002l709 1360h79l-710 -1360h-78z
" />
    <glyph glyph-name="ugrave" unicode="&#xf9;" horiz-adv-x="1212" 
d="M537 -21c-111.333 0 -198.001 39 -260.001 117s-93 199.333 -93 364v545l-138 6v71h138h87v-624c0 -139.333 23.833 -241 71.5 -305s114.5 -96 200.5 -96c102.667 0 181.167 24.667 235.5 74s90.833 115 109.5 197v677l-159 6v71h159h87v-1005l154 -6v-71h-229l-9 186
c-34 -66 -80.167 -117 -138.5 -153s-130.166 -54 -215.499 -54zM675.999 1320l-3 -4h-67l-215 239l2 5h102z" />
    <glyph glyph-name="uacute" unicode="&#xfa;" horiz-adv-x="1212" 
d="M537 -21c-111.333 0 -198.001 39 -260.001 117s-93 199.333 -93 364v545l-138 6v71h138h87v-624c0 -139.333 23.833 -241 71.5 -305s114.5 -96 200.5 -96c102.667 0 181.167 24.667 235.5 74s90.833 115 109.5 197v677l-159 6v71h159h87v-1005l154 -6v-71h-229l-9 186
c-34 -66 -80.167 -117 -138.5 -153s-130.166 -54 -215.499 -54zM527.999 1320l181 240h102l2 -5l-215 -239h-66z" />
    <glyph glyph-name="ucircumflex" unicode="&#xfb;" horiz-adv-x="1212" 
d="M537 -21c-111.333 0 -198.001 39 -260.001 117s-93 199.333 -93 364v545l-138 6v71h138h87v-624c0 -139.333 23.833 -241 71.5 -305s114.5 -96 200.5 -96c102.667 0 181.167 24.667 235.5 74s90.833 115 109.5 197v677l-159 6v71h159h87v-1005l154 -6v-71h-229l-9 186
c-34 -66 -80.167 -117 -138.5 -153s-130.166 -54 -215.499 -54zM336.999 1328v19l224 213h78l227 -216v-16h-83l-184 177l-180 -177h-82z" />
    <glyph glyph-name="udieresis" unicode="&#xfc;" horiz-adv-x="1212" 
d="M537 -21c-111.333 0 -198.001 39 -260.001 117s-93 199.333 -93 364v545l-138 6v71h138h87v-624c0 -139.333 23.833 -241 71.5 -305s114.5 -96 200.5 -96c102.667 0 181.167 24.667 235.5 74s90.833 115 109.5 197v677l-159 6v71h159h87v-1005l154 -6v-71h-229l-9 186
c-34 -66 -80.167 -117 -138.5 -153s-130.166 -54 -215.499 -54zM721.999 1405v155h103v-155h-103zM377.999 1405v155h104v-155h-104z" />
    <glyph glyph-name="yacute" unicode="&#xfd;" horiz-adv-x="1187" 
d="M289 -437c-13.333 0 -28.668 1.33203 -46.001 3.99902s-30.333 5.33398 -39 8.00098l11 75c8 -2 20 -3.83301 36 -5.5s28 -2.5 36 -2.5c56.667 0 101.334 17.5 134.001 52.5s61.667 86.167 87 153.5l61 162l-404 997l-117 4v71h350v-71l-139 -4l306 -765l42 -116h6
l334 881l-141 4v71h349v-71l-117 -4l-452 -1184c-19.333 -50.667 -41.166 -95.667 -65.499 -135s-54.833 -70 -91.5 -92s-83.334 -33 -140.001 -33zM519.998 1320l181 240h102l2 -5l-215 -239h-66z" />
    <glyph glyph-name="thorn" unicode="&#xfe;" horiz-adv-x="1167" 
d="M56 -416l-0.000976562 71l163 6v1822l-163 6v71h250v-654c36 61.333 83.5 109.333 142.5 144s128.833 52 209.5 52c85.333 0 158.833 -23.167 220.5 -69.5s108.834 -111.833 141.501 -196.5s49 -184.334 49 -299.001v-21c0 -109.333 -16.333 -204.166 -49 -284.499
s-79.5 -142.5 -140.5 -186.5s-134.167 -66 -219.5 -66c-80.667 0 -151 15.667 -211 47s-107.667 74.333 -143 129v-494l163 -6v-71h-413zM646.999 56c109.333 0 192.334 41.667 249.001 125s85 195 85 335v21c0 96 -12.833 180.5 -38.5 253.5s-63.5 130.167 -113.5 171.5
s-111.333 62 -184 62c-94 0 -167.833 -23.333 -221.5 -70s-92.834 -104.667 -117.501 -174v-510c26 -65.333 67.667 -117.333 125 -156s129.333 -58 216 -58z" />
    <glyph glyph-name="ydieresis" unicode="&#xff;" horiz-adv-x="1187" 
d="M289 -437c-13.333 0 -28.668 1.33203 -46.001 3.99902s-30.333 5.33398 -39 8.00098l11 75c8 -2 20 -3.83301 36 -5.5s28 -2.5 36 -2.5c56.667 0 101.334 17.5 134.001 52.5s61.667 86.167 87 153.5l61 162l-404 997l-117 4v71h350v-71l-139 -4l306 -765l42 -116h6
l334 881l-141 4v71h349v-71l-117 -4l-452 -1184c-19.333 -50.667 -41.166 -95.667 -65.499 -135s-54.833 -70 -91.5 -92s-83.334 -33 -140.001 -33zM712.998 1405v155h103v-155h-103zM368.998 1405v155h104v-155h-104z" />
    <glyph glyph-name="Amacron" unicode="&#x100;" horiz-adv-x="1486" 
d="M58 0v71l108 3l520 1382h90l519 -1382l107 -3v-71h-334v71l135 4l-132 355h-682l-132 -355l135 -4v-71h-334zM419 510h623l-284 767l-24 71h-6l-24 -71zM406 1674v74h649v-74h-649z" />
    <glyph glyph-name="amacron" unicode="&#x101;" horiz-adv-x="1120" 
d="M419 -21c-99.333 0 -177.667 27.168 -235 81.501s-86 127.166 -86 218.499c0 65.333 19.333 123 58 173s93.667 89 165 117s155.333 42 252 42h236v131c0 84 -24.667 152.167 -74 204.5s-125 78.5 -227 78.5c-55.333 0 -105.666 -9.66699 -150.999 -29
s-84.333 -43.333 -117 -72l-4 -171h-77v216c45.333 40.667 96.666 73 153.999 97s122.666 36 195.999 36c126.667 0 222.834 -32.167 288.501 -96.5s98.5 -152.833 98.5 -265.5v-522c0 -24.667 0.833008 -49 2.5 -73s4.83398 -48 9.50098 -72l140 -2v-71h-217
c-8 43.333 -13.667 77.333 -17 102s-5 53 -5 85c-40 -61.333 -93.833 -111.333 -161.5 -150s-143.834 -58 -228.501 -58zM424.999 58.001c78.667 0 153.668 21.332 225.001 63.999s124.333 100.334 159 173.001v243h-236c-118.667 0 -213 -25 -283 -75
s-105 -112.667 -105 -188c0 -62.667 22.167 -114.5 66.5 -155.5s102.166 -61.5 173.499 -61.5zM195 1404v74h649v-74h-649z" />
    <glyph glyph-name="Abreve" unicode="&#x102;" horiz-adv-x="1486" 
d="M58 0v71l108 3l520 1382h90l519 -1382l107 -3v-71h-334v71l135 4l-132 355h-682l-132 -355l135 -4v-71h-334zM419 510h623l-284 767l-24 71h-6l-24 -71zM731 1577c-88 0 -157.333 23 -208 69s-75.667 105.333 -75 178l2 6h75c0 -54 16.5 -97.833 49.5 -131.5
s85.167 -50.5 156.5 -50.5c68.667 0 120.167 17 154.5 51s51.5 77.667 51.5 131h75l2 -6c0 -72.667 -25.167 -132 -75.5 -178s-119.5 -69 -207.5 -69z" />
    <glyph glyph-name="abreve" unicode="&#x103;" horiz-adv-x="1120" 
d="M419 -21c-99.333 0 -177.667 27.168 -235 81.501s-86 127.166 -86 218.499c0 65.333 19.333 123 58 173s93.667 89 165 117s155.333 42 252 42h236v131c0 84 -24.667 152.167 -74 204.5s-125 78.5 -227 78.5c-55.333 0 -105.666 -9.66699 -150.999 -29
s-84.333 -43.333 -117 -72l-4 -171h-77v216c45.333 40.667 96.666 73 153.999 97s122.666 36 195.999 36c126.667 0 222.834 -32.167 288.501 -96.5s98.5 -152.833 98.5 -265.5v-522c0 -24.667 0.833008 -49 2.5 -73s4.83398 -48 9.50098 -72l140 -2v-71h-217
c-8 43.333 -13.667 77.333 -17 102s-5 53 -5 85c-40 -61.333 -93.833 -111.333 -161.5 -150s-143.834 -58 -228.501 -58zM424.999 58.001c78.667 0 153.668 21.332 225.001 63.999s124.333 100.334 159 173.001v243h-236c-118.667 0 -213 -25 -283 -75
s-105 -112.667 -105 -188c0 -62.667 22.167 -114.5 66.5 -155.5s102.166 -61.5 173.499 -61.5zM520 1307c-88 0 -157.333 23 -208 69s-75.667 105.333 -75 178l2 6h75c0 -54 16.5 -97.833 49.5 -131.5s85.167 -50.5 156.5 -50.5c68.667 0 120.167 17 154.5 51
s51.5 77.667 51.5 131h75l2 -6c0 -72.667 -25.167 -132 -75.5 -178s-119.5 -69 -207.5 -69z" />
    <glyph glyph-name="Aogonek" unicode="&#x104;" horiz-adv-x="1486" 
d="M58 0v71l108 3l520 1382h90l519 -1382l107 -3v-71h-334v71l135 4l-132 355h-682l-132 -355l135 -4v-71h-334zM419 510h623l-284 767l-24 71h-6l-24 -71zM1335 -425c-54 0 -97.832 15.834 -131.499 47.501s-50.5 76.167 -50.5 133.5c0 46 14.833 90.5 44.5 133.5
s79.167 89.5 148.5 139.5l56 -29c-56.667 -48.667 -98.834 -90.334 -126.501 -125.001s-41.5 -72.667 -41.5 -114c0 -25.333 7.33301 -50.333 22 -75s44 -37 88 -37c20 0 38.167 3.33301 54.5 10s32.833 15 49.5 25l20 -65c-18 -12 -37.833 -22.333 -59.5 -31
s-46.167 -13 -73.5 -13z" />
    <glyph glyph-name="aogonek" unicode="&#x105;" horiz-adv-x="1120" 
d="M419 -21c-99.333 0 -177.667 27.168 -235 81.501s-86 127.166 -86 218.499c0 65.333 19.333 123 58 173s93.667 89 165 117s155.333 42 252 42h236v131c0 84 -24.667 152.167 -74 204.5s-125 78.5 -227 78.5c-55.333 0 -105.666 -9.66699 -150.999 -29
s-84.333 -43.333 -117 -72l-4 -171h-77v216c45.333 40.667 96.666 73 153.999 97s122.666 36 195.999 36c126.667 0 222.834 -32.167 288.501 -96.5s98.5 -152.833 98.5 -265.5v-522c0 -24.667 0.833008 -49 2.5 -73s4.83398 -48 9.50098 -72l140 -2v-71h-217
c-8 43.333 -13.667 77.333 -17 102s-5 53 -5 85c-40 -61.333 -93.833 -111.333 -161.5 -150s-143.834 -58 -228.501 -58zM424.999 58.001c78.667 0 153.668 21.332 225.001 63.999s124.333 100.334 159 173.001v243h-236c-118.667 0 -213 -25 -283 -75
s-105 -112.667 -105 -188c0 -62.667 22.167 -114.5 66.5 -155.5s102.166 -61.5 173.499 -61.5zM981 -425c-54 0 -97.832 15.834 -131.499 47.501s-50.5 76.167 -50.5 133.5c0 46 14.833 90.5 44.5 133.5s79.167 89.5 148.5 139.5l56 -29
c-56.667 -48.667 -98.834 -90.334 -126.501 -125.001s-41.5 -72.667 -41.5 -114c0 -25.333 7.33301 -50.333 22 -75s44 -37 88 -37c20 0 38.167 3.33301 54.5 10s32.833 15 49.5 25l20 -65c-18 -12 -37.833 -22.333 -59.5 -31s-46.167 -13 -73.5 -13z" />
    <glyph glyph-name="Cacute" unicode="&#x106;" horiz-adv-x="1335" 
d="M781 -21c-142 0 -262.336 31.333 -361.003 94s-173.667 149.5 -225 260.5s-77 239.5 -77 385.5v18c0 146 26.5 274.5 79.5 385.5s127.333 197.833 223 260.5s207.834 94 336.501 94c102.667 0 188.834 -13.667 258.501 -41s133.167 -66.333 190.5 -117v-270h-78l-5 233
c-32.667 25.333 -66.167 46.5 -100.5 63.5s-72.666 30 -114.999 39s-92.833 13.5 -151.5 13.5c-110 0 -206.333 -27.667 -289 -83s-146.834 -132.5 -192.501 -231.5s-68.5 -213.833 -68.5 -344.5v-20c0 -133.333 22.667 -249.5 68 -348.5s111 -176 197 -231
s189.333 -82.5 310 -82.5c66.667 0 131.334 8.5 194.001 25.5s115.667 40.167 159 69.5l5 227h78v-280c-60.667 -40 -128 -70 -202 -90s-152 -30 -234 -30zM663.997 1590l181 240h102l2 -5l-215 -239h-66z" />
    <glyph glyph-name="cacute" unicode="&#x107;" horiz-adv-x="1079" 
d="M545 -21c-86 0 -162.833 22.666 -230.5 67.999s-120.667 108.5 -159 189.5s-57.5 175.5 -57.5 283.5v42c0 106.667 18.667 200.5 56 281.5s89.5 144.333 156.5 190s144.833 68.5 233.5 68.5c82.667 0 156.5 -16.5 221.5 -49.5s119.5 -74.167 163.5 -123.5l1 -239h-77
l-8 207c-38 40 -81.667 71.333 -131 94s-105.333 34 -168 34c-72 0 -135.167 -20 -189.5 -60s-96.5 -94.667 -126.5 -164s-45 -149 -45 -239v-42c0 -92 15 -172.833 45 -242.5s72.167 -124 126.5 -163s117.833 -58.5 190.5 -58.5c86.667 0 159.334 22.5 218.001 67.5
s94 112.833 106 203.5h76l2 -6c-7.33301 -71.333 -28.333 -132.666 -63 -183.999s-80.834 -90.5 -138.501 -117.5s-125.167 -40.5 -202.5 -40.5zM471 1320l181 240h102l2 -5l-215 -239h-66z" />
    <glyph glyph-name="Ccircumflex" unicode="&#x108;" horiz-adv-x="1335" 
d="M781 -21c-142 0 -262.336 31.333 -361.003 94s-173.667 149.5 -225 260.5s-77 239.5 -77 385.5v18c0 146 26.5 274.5 79.5 385.5s127.333 197.833 223 260.5s207.834 94 336.501 94c102.667 0 188.834 -13.667 258.501 -41s133.167 -66.333 190.5 -117v-270h-78l-5 233
c-32.667 25.333 -66.167 46.5 -100.5 63.5s-72.666 30 -114.999 39s-92.833 13.5 -151.5 13.5c-110 0 -206.333 -27.667 -289 -83s-146.834 -132.5 -192.501 -231.5s-68.5 -213.833 -68.5 -344.5v-20c0 -133.333 22.667 -249.5 68 -348.5s111 -176 197 -231
s189.333 -82.5 310 -82.5c66.667 0 131.334 8.5 194.001 25.5s115.667 40.167 159 69.5l5 227h78v-280c-60.667 -40 -128 -70 -202 -90s-152 -30 -234 -30zM473.997 1598v19l224 213h78l227 -216v-16h-83l-184 177l-180 -177h-82z" />
    <glyph glyph-name="ccircumflex" unicode="&#x109;" horiz-adv-x="1079" 
d="M545 -21c-86 0 -162.833 22.666 -230.5 67.999s-120.667 108.5 -159 189.5s-57.5 175.5 -57.5 283.5v42c0 106.667 18.667 200.5 56 281.5s89.5 144.333 156.5 190s144.833 68.5 233.5 68.5c82.667 0 156.5 -16.5 221.5 -49.5s119.5 -74.167 163.5 -123.5l1 -239h-77
l-8 207c-38 40 -81.667 71.333 -131 94s-105.333 34 -168 34c-72 0 -135.167 -20 -189.5 -60s-96.5 -94.667 -126.5 -164s-45 -149 -45 -239v-42c0 -92 15 -172.833 45 -242.5s72.167 -124 126.5 -163s117.833 -58.5 190.5 -58.5c86.667 0 159.334 22.5 218.001 67.5
s94 112.833 106 203.5h76l2 -6c-7.33301 -71.333 -28.333 -132.666 -63 -183.999s-80.834 -90.5 -138.501 -117.5s-125.167 -40.5 -202.5 -40.5zM280 1328v19l224 213h78l227 -216v-16h-83l-184 177l-180 -177h-82z" />
    <glyph glyph-name="Cdotaccent" unicode="&#x10a;" horiz-adv-x="1335" 
d="M781 -21c-142 0 -262.336 31.333 -361.003 94s-173.667 149.5 -225 260.5s-77 239.5 -77 385.5v18c0 146 26.5 274.5 79.5 385.5s127.333 197.833 223 260.5s207.834 94 336.501 94c102.667 0 188.834 -13.667 258.501 -41s133.167 -66.333 190.5 -117v-270h-78l-5 233
c-32.667 25.333 -66.167 46.5 -100.5 63.5s-72.666 30 -114.999 39s-92.833 13.5 -151.5 13.5c-110 0 -206.333 -27.667 -289 -83s-146.834 -132.5 -192.501 -231.5s-68.5 -213.833 -68.5 -344.5v-20c0 -133.333 22.667 -249.5 68 -348.5s111 -176 197 -231
s189.333 -82.5 310 -82.5c66.667 0 131.334 8.5 194.001 25.5s115.667 40.167 159 69.5l5 227h78v-280c-60.667 -40 -128 -70 -202 -90s-152 -30 -234 -30zM685.997 1674v156h103v-156h-103z" />
    <glyph glyph-name="cdotaccent" unicode="&#x10b;" horiz-adv-x="1079" 
d="M545 -21c-86 0 -162.833 22.666 -230.5 67.999s-120.667 108.5 -159 189.5s-57.5 175.5 -57.5 283.5v42c0 106.667 18.667 200.5 56 281.5s89.5 144.333 156.5 190s144.833 68.5 233.5 68.5c82.667 0 156.5 -16.5 221.5 -49.5s119.5 -74.167 163.5 -123.5l1 -239h-77
l-8 207c-38 40 -81.667 71.333 -131 94s-105.333 34 -168 34c-72 0 -135.167 -20 -189.5 -60s-96.5 -94.667 -126.5 -164s-45 -149 -45 -239v-42c0 -92 15 -172.833 45 -242.5s72.167 -124 126.5 -163s117.833 -58.5 190.5 -58.5c86.667 0 159.334 22.5 218.001 67.5
s94 112.833 106 203.5h76l2 -6c-7.33301 -71.333 -28.333 -132.666 -63 -183.999s-80.834 -90.5 -138.501 -117.5s-125.167 -40.5 -202.5 -40.5zM492 1404v156h103v-156h-103z" />
    <glyph glyph-name="Ccaron" unicode="&#x10c;" horiz-adv-x="1335" 
d="M781 -21c-142 0 -262.336 31.333 -361.003 94s-173.667 149.5 -225 260.5s-77 239.5 -77 385.5v18c0 146 26.5 274.5 79.5 385.5s127.333 197.833 223 260.5s207.834 94 336.501 94c102.667 0 188.834 -13.667 258.501 -41s133.167 -66.333 190.5 -117v-270h-78l-5 233
c-32.667 25.333 -66.167 46.5 -100.5 63.5s-72.666 30 -114.999 39s-92.833 13.5 -151.5 13.5c-110 0 -206.333 -27.667 -289 -83s-146.834 -132.5 -192.501 -231.5s-68.5 -213.833 -68.5 -344.5v-20c0 -133.333 22.667 -249.5 68 -348.5s111 -176 197 -231
s189.333 -82.5 310 -82.5c66.667 0 131.334 8.5 194.001 25.5s115.667 40.167 159 69.5l5 227h78v-280c-60.667 -40 -128 -70 -202 -90s-152 -30 -234 -30zM1003 1830v-19l-224 -213h-78l-227 216v16h83l184 -177l180 177h82z" />
    <glyph glyph-name="ccaron" unicode="&#x10d;" horiz-adv-x="1079" 
d="M545 -21c-86 0 -162.833 22.666 -230.5 67.999s-120.667 108.5 -159 189.5s-57.5 175.5 -57.5 283.5v42c0 106.667 18.667 200.5 56 281.5s89.5 144.333 156.5 190s144.833 68.5 233.5 68.5c82.667 0 156.5 -16.5 221.5 -49.5s119.5 -74.167 163.5 -123.5l1 -239h-77
l-8 207c-38 40 -81.667 71.333 -131 94s-105.333 34 -168 34c-72 0 -135.167 -20 -189.5 -60s-96.5 -94.667 -126.5 -164s-45 -149 -45 -239v-42c0 -92 15 -172.833 45 -242.5s72.167 -124 126.5 -163s117.833 -58.5 190.5 -58.5c86.667 0 159.334 22.5 218.001 67.5
s94 112.833 106 203.5h76l2 -6c-7.33301 -71.333 -28.333 -132.666 -63 -183.999s-80.834 -90.5 -138.501 -117.5s-125.167 -40.5 -202.5 -40.5zM809 1560v-19l-224 -213h-78l-227 216v16h83l184 -177l180 177h82z" />
    <glyph glyph-name="Dcaron" unicode="&#x10e;" horiz-adv-x="1379" 
d="M73 0l-0.000976562 71.001l163 6v1302l-163 6v71h163h398c121.333 0 228.833 -30.833 322.5 -92.5s167.334 -146.334 221.001 -254.001s80.5 -231.5 80.5 -371.5v-21c0 -138.667 -26.5 -262 -79.5 -370s-126.167 -192.833 -219.5 -254.5s-201 -92.5 -323 -92.5h-563z
M322.999 77.001h311c104.667 0 197.334 28 278.001 84s144 132.333 190 229s69 205.667 69 327v24c0 122 -23 231 -69 327s-109.333 171.833 -190 227.5s-173.334 83.5 -278.001 83.5h-311v-1302zM937.999 1830v-19l-224 -213h-78l-227 216v16h83l184 -177l180 177h82z" />
    <glyph glyph-name="dcaron" unicode="&#x10f;" horiz-adv-x="1208" 
d="M507 -21c-85.333 0 -158.501 22 -219.501 66s-107.833 106.167 -140.5 186.5s-49 175.166 -49 284.499v21c0 114.667 16.333 214.334 49 299.001s79.667 150.167 141 196.5s135 69.5 221 69.5c80.667 0 150.334 -17.667 209.001 -53s106 -84.333 142 -147v581l-163 6v71
h163h87v-1483l163 -6v-71h-243l-5 163c-35.333 -57.333 -83 -102.333 -143 -135s-130.667 -49 -212 -49zM517.999 57c86 0 157.667 19.5 215 58.5s99.666 91.833 126.999 158.5v505c-26 70 -66 128.333 -120 175s-127.333 70 -220 70
c-73.333 0 -134.666 -20.667 -183.999 -62s-86.5 -98.5 -111.5 -171.5s-37.5 -157.5 -37.5 -253.5v-21c0 -140 27.833 -251.5 83.5 -334.5s138.167 -124.5 247.5 -124.5zM1101 1260l-48 42c22 30 38 59 48 87s15 61.333 15 100v71h83v-69c0 -48 -8.33301 -91 -25 -129
s-41 -72 -73 -102z" />
    <glyph glyph-name="Dcroat" unicode="&#x110;" horiz-adv-x="1379" 
d="M73 0l-0.000976562 71.001l163 6v1302l-163 6v71h163h398c121.333 0 228.833 -30.833 322.5 -92.5s167.334 -146.334 221.001 -254.001s80.5 -231.5 80.5 -371.5v-21c0 -138.667 -26.5 -262 -79.5 -370s-126.167 -192.833 -219.5 -254.5s-201 -92.5 -323 -92.5h-563z
M322.999 77.001h311c104.667 0 197.334 28 278.001 84s144 132.333 190 229s69 205.667 69 327v24c0 122 -23 231 -69 327s-109.333 171.833 -190 227.5s-173.334 83.5 -278.001 83.5h-311v-1302zM72.999 702.001v77h540v-77h-540z" />
    <glyph glyph-name="dcroat" unicode="&#x111;" horiz-adv-x="1208" 
d="M507 -21c-85.333 0 -158.501 22 -219.501 66s-107.833 106.167 -140.5 186.5s-49 175.166 -49 284.499v21c0 114.667 16.333 214.334 49 299.001s79.667 150.167 141 196.5s135 69.5 221 69.5c80.667 0 150.334 -17.667 209.001 -53s106 -84.333 142 -147v581l-163 6v71
h163h87v-1483l163 -6v-71h-243l-5 163c-35.333 -57.333 -83 -102.333 -143 -135s-130.667 -49 -212 -49zM517.999 57c86 0 157.667 19.5 215 58.5s99.666 91.833 126.999 158.5v505c-26 70 -66 128.333 -120 175s-127.333 70 -220 70
c-73.333 0 -134.666 -20.667 -183.999 -62s-86.5 -98.5 -111.5 -171.5s-37.5 -157.5 -37.5 -253.5v-21c0 -140 27.833 -251.5 83.5 -334.5s138.167 -124.5 247.5 -124.5zM569.999 1234v77h540v-77h-540z" />
    <glyph glyph-name="Emacron" unicode="&#x112;" horiz-adv-x="1278" 
d="M73 0v71l163 6v1302l-163 6v71h1033v-306h-78l-5 229h-700v-583h609v-77h-609v-643h730l5 230h78v-306h-1063zM314 1674v74h649v-74h-649z" />
    <glyph glyph-name="emacron" unicode="&#x113;" horiz-adv-x="1078" 
d="M565 -21c-90 0 -169.667 22.3311 -239 66.998s-123.833 106.5 -163.5 185.5s-59.5 170.167 -59.5 273.5v59c0 103.333 19.5 195.5 58.5 276.5s92.167 144.833 159.5 191.5s143 70 227 70c84.667 0 158.167 -18.667 220.5 -56s110.166 -89.666 143.499 -156.999
s50 -147 50 -239v-92h-770l-1 -60c0.666992 -84.667 16.667 -160.334 48 -227.001s75 -119.167 131 -157.5s121 -57.5 195 -57.5c68 0 128.167 11.333 180.5 34s98.833 53.334 139.5 92.001l40 -62c-43.333 -41.333 -94.166 -75.166 -152.499 -101.499
s-127.5 -39.5 -207.5 -39.5zM202 634.998h673v32c0 68 -13.167 129 -39.5 183s-64 96.667 -113 128s-107.167 47 -174.5 47c-62.667 0 -119.167 -16.833 -169.5 -50.5s-91.333 -79.5 -123 -137.5s-50.5 -123.333 -56.5 -196zM224 1404v74h649v-74h-649z" />
    <glyph glyph-name="Ebreve" unicode="&#x114;" horiz-adv-x="1278" 
d="M73 0v71l163 6v1302l-163 6v71h1033v-306h-78l-5 229h-700v-583h609v-77h-609v-643h730l5 230h78v-306h-1063zM640 1577c-88 0 -157.333 23 -208 69s-75.667 105.333 -75 178l2 6h75c0 -54 16.5 -97.833 49.5 -131.5s85.167 -50.5 156.5 -50.5
c68.667 0 120.167 17 154.5 51s51.5 77.667 51.5 131h75l2 -6c0 -72.667 -25.167 -132 -75.5 -178s-119.5 -69 -207.5 -69z" />
    <glyph glyph-name="ebreve" unicode="&#x115;" horiz-adv-x="1078" 
d="M565 -21c-90 0 -169.667 22.3311 -239 66.998s-123.833 106.5 -163.5 185.5s-59.5 170.167 -59.5 273.5v59c0 103.333 19.5 195.5 58.5 276.5s92.167 144.833 159.5 191.5s143 70 227 70c84.667 0 158.167 -18.667 220.5 -56s110.166 -89.666 143.499 -156.999
s50 -147 50 -239v-92h-770l-1 -60c0.666992 -84.667 16.667 -160.334 48 -227.001s75 -119.167 131 -157.5s121 -57.5 195 -57.5c68 0 128.167 11.333 180.5 34s98.833 53.334 139.5 92.001l40 -62c-43.333 -41.333 -94.166 -75.166 -152.499 -101.499
s-127.5 -39.5 -207.5 -39.5zM202 634.998h673v32c0 68 -13.167 129 -39.5 183s-64 96.667 -113 128s-107.167 47 -174.5 47c-62.667 0 -119.167 -16.833 -169.5 -50.5s-91.333 -79.5 -123 -137.5s-50.5 -123.333 -56.5 -196zM550 1307c-88 0 -157.333 23 -208 69
s-75.667 105.333 -75 178l2 6h75c0 -54 16.5 -97.833 49.5 -131.5s85.167 -50.5 156.5 -50.5c68.667 0 120.167 17 154.5 51s51.5 77.667 51.5 131h75l2 -6c0 -72.667 -25.167 -132 -75.5 -178s-119.5 -69 -207.5 -69z" />
    <glyph glyph-name="Edotaccent" unicode="&#x116;" horiz-adv-x="1278" 
d="M73 0v71l163 6v1302l-163 6v71h1033v-306h-78l-5 229h-700v-583h609v-77h-609v-643h730l5 230h78v-306h-1063zM587 1674v156h103v-156h-103z" />
    <glyph glyph-name="edotaccent" unicode="&#x117;" horiz-adv-x="1078" 
d="M565 -21c-90 0 -169.667 22.3311 -239 66.998s-123.833 106.5 -163.5 185.5s-59.5 170.167 -59.5 273.5v59c0 103.333 19.5 195.5 58.5 276.5s92.167 144.833 159.5 191.5s143 70 227 70c84.667 0 158.167 -18.667 220.5 -56s110.166 -89.666 143.499 -156.999
s50 -147 50 -239v-92h-770l-1 -60c0.666992 -84.667 16.667 -160.334 48 -227.001s75 -119.167 131 -157.5s121 -57.5 195 -57.5c68 0 128.167 11.333 180.5 34s98.833 53.334 139.5 92.001l40 -62c-43.333 -41.333 -94.166 -75.166 -152.499 -101.499
s-127.5 -39.5 -207.5 -39.5zM202 634.998h673v32c0 68 -13.167 129 -39.5 183s-64 96.667 -113 128s-107.167 47 -174.5 47c-62.667 0 -119.167 -16.833 -169.5 -50.5s-91.333 -79.5 -123 -137.5s-50.5 -123.333 -56.5 -196zM497 1404v156h103v-156h-103z" />
    <glyph glyph-name="Eogonek" unicode="&#x118;" horiz-adv-x="1278" 
d="M73 0v71l163 6v1302l-163 6v71h1033v-306h-78l-5 229h-700v-583h609v-77h-609v-643h730l5 230h78v-306h-1063zM1069 -425c-54 0 -97.832 15.834 -131.499 47.501s-50.5 76.167 -50.5 133.5c0 46 14.833 90.5 44.5 133.5s79.167 89.5 148.5 139.5l56 -29
c-56.667 -48.667 -98.834 -90.334 -126.501 -125.001s-41.5 -72.667 -41.5 -114c0 -25.333 7.33301 -50.333 22 -75s44 -37 88 -37c20 0 38.167 3.33301 54.5 10s32.833 15 49.5 25l20 -65c-18 -12 -37.833 -22.333 -59.5 -31s-46.167 -13 -73.5 -13z" />
    <glyph glyph-name="eogonek" unicode="&#x119;" horiz-adv-x="1078" 
d="M565 -21c-90 0 -169.667 22.3311 -239 66.998s-123.833 106.5 -163.5 185.5s-59.5 170.167 -59.5 273.5v59c0 103.333 19.5 195.5 58.5 276.5s92.167 144.833 159.5 191.5s143 70 227 70c84.667 0 158.167 -18.667 220.5 -56s110.166 -89.666 143.499 -156.999
s50 -147 50 -239v-92h-770l-1 -60c0.666992 -84.667 16.667 -160.334 48 -227.001s75 -119.167 131 -157.5s121 -57.5 195 -57.5c68 0 128.167 11.333 180.5 34s98.833 53.334 139.5 92.001l40 -62c-43.333 -41.333 -94.166 -75.166 -152.499 -101.499
s-127.5 -39.5 -207.5 -39.5zM202 634.998h673v32c0 68 -13.167 129 -39.5 183s-64 96.667 -113 128s-107.167 47 -174.5 47c-62.667 0 -119.167 -16.833 -169.5 -50.5s-91.333 -79.5 -123 -137.5s-50.5 -123.333 -56.5 -196zM780 -425.002c-54.667 0 -99.666 17 -134.999 51
s-53 85.333 -53 154c0 60.667 17.167 117.167 51.5 169.5s91.166 102.5 170.499 150.5l43 -34c-61.333 -46.667 -107.333 -91.167 -138 -133.5s-46 -91.5 -46 -147.5c0 -37.333 7.83301 -69.333 23.5 -96s47.167 -40 94.5 -40c22 0 41.167 3.33301 57.5 10
s32.833 15 49.5 25l20 -65c-18 -12 -38 -22.333 -60 -31s-48 -13 -78 -13z" />
    <glyph glyph-name="Ecaron" unicode="&#x11a;" horiz-adv-x="1278" 
d="M73 0v71l163 6v1302l-163 6v71h1033v-306h-78l-5 229h-700v-583h609v-77h-609v-643h730l5 230h78v-306h-1063zM903 1830v-19l-224 -213h-78l-227 216v16h83l184 -177l180 177h82z" />
    <glyph glyph-name="ecaron" unicode="&#x11b;" horiz-adv-x="1078" 
d="M565 -21c-90 0 -169.667 22.3311 -239 66.998s-123.833 106.5 -163.5 185.5s-59.5 170.167 -59.5 273.5v59c0 103.333 19.5 195.5 58.5 276.5s92.167 144.833 159.5 191.5s143 70 227 70c84.667 0 158.167 -18.667 220.5 -56s110.166 -89.666 143.499 -156.999
s50 -147 50 -239v-92h-770l-1 -60c0.666992 -84.667 16.667 -160.334 48 -227.001s75 -119.167 131 -157.5s121 -57.5 195 -57.5c68 0 128.167 11.333 180.5 34s98.833 53.334 139.5 92.001l40 -62c-43.333 -41.333 -94.166 -75.166 -152.499 -101.499
s-127.5 -39.5 -207.5 -39.5zM202 634.998h673v32c0 68 -13.167 129 -39.5 183s-64 96.667 -113 128s-107.167 47 -174.5 47c-62.667 0 -119.167 -16.833 -169.5 -50.5s-91.333 -79.5 -123 -137.5s-50.5 -123.333 -56.5 -196zM813 1560v-19l-224 -213h-78l-227 216v16h83
l184 -177l180 177h82z" />
    <glyph glyph-name="Gcircumflex" unicode="&#x11c;" horiz-adv-x="1401" 
d="M763 -21c-133.333 0 -248.167 31.165 -344.5 93.498s-170.5 149.166 -222.5 260.499s-78 240 -78 386v35c0 142.667 27 268.334 81 377.001s128 193.5 222 254.5s200.667 91.5 320 91.5c105.333 0 194.666 -13.667 267.999 -41s139.666 -64 198.999 -110v-262h-79l-5 221
c-45.333 34.667 -97.166 62.167 -155.499 82.5s-132.5 30.5 -222.5 30.5c-102.667 0 -194.667 -27.167 -276 -81.5s-145.666 -129.666 -192.999 -225.999s-71 -207.833 -71 -334.5v-37c0 -130.667 21.833 -245.667 65.5 -345s107 -176.833 190 -232.5
s182.833 -83.5 299.5 -83.5c84 0 159 9.66699 225 29s122.667 42 170 68v405l-307 3v75h394v-521c-56.667 -37.333 -123.667 -69.666 -201 -96.999s-170.333 -41 -279 -41zM435.999 1598v19l224 213h78l227 -216v-16h-83l-184 177l-180 -177h-82z" />
    <glyph glyph-name="gcircumflex" unicode="&#x11d;" horiz-adv-x="1155" 
d="M530 -437c-52.667 0 -108.002 5.83398 -166.002 17.501s-108.667 27.834 -152 48.501l24 77c46 -20.667 92.167 -36.5 138.5 -47.5s97.5 -16.5 153.5 -16.5c108.667 0 191.167 33 247.5 99s84.5 157 84.5 273v145c-35.333 -56 -82.666 -100 -141.999 -132
s-129 -48 -209 -48c-85.333 0 -158.833 22 -220.5 66s-108.834 106.333 -141.501 187s-49 175.334 -49 284.001v21c0 115.333 16.333 215.166 49 299.499s79.834 149.666 141.501 195.999s135.834 69.5 222.501 69.5c81.333 0 151.666 -18.167 210.999 -54.5
s106.666 -86.5 141.999 -150.5l11 185h73v-1068c0 -92 -16.667 -171.833 -50 -239.5s-81.166 -119.834 -143.499 -156.501s-137.166 -55 -224.499 -55zM518.998 57.001c88 0 160.334 20.167 217.001 60.5s98 94.5 124 162.5v493c-25.333 71.333 -64.5 131 -117.5 179
s-126.833 72 -221.5 72c-72.667 0 -134 -20.667 -184 -62s-87.667 -98.5 -113 -171.5s-38 -157.5 -38 -253.5v-21c0 -140 28.167 -251.5 84.5 -334.5s139.166 -124.5 248.499 -124.5zM925.999 1003l-23 79h186v-71zM299.999 1328v19l224 213h78l227 -216v-16h-83l-184 177
l-180 -177h-82z" />
    <glyph glyph-name="Gbreve" unicode="&#x11e;" horiz-adv-x="1401" 
d="M763 -21c-133.333 0 -248.167 31.165 -344.5 93.498s-170.5 149.166 -222.5 260.499s-78 240 -78 386v35c0 142.667 27 268.334 81 377.001s128 193.5 222 254.5s200.667 91.5 320 91.5c105.333 0 194.666 -13.667 267.999 -41s139.666 -64 198.999 -110v-262h-79l-5 221
c-45.333 34.667 -97.166 62.167 -155.499 82.5s-132.5 30.5 -222.5 30.5c-102.667 0 -194.667 -27.167 -276 -81.5s-145.666 -129.666 -192.999 -225.999s-71 -207.833 -71 -334.5v-37c0 -130.667 21.833 -245.667 65.5 -345s107 -176.833 190 -232.5
s182.833 -83.5 299.5 -83.5c84 0 159 9.66699 225 29s122.667 42 170 68v405l-307 3v75h394v-521c-56.667 -37.333 -123.667 -69.666 -201 -96.999s-170.333 -41 -279 -41zM700.999 1577c-88 0 -157.333 23 -208 69s-75.667 105.333 -75 178l2 6h75
c0 -54 16.5 -97.833 49.5 -131.5s85.167 -50.5 156.5 -50.5c68.667 0 120.167 17 154.5 51s51.5 77.667 51.5 131h75l2 -6c0 -72.667 -25.167 -132 -75.5 -178s-119.5 -69 -207.5 -69z" />
    <glyph glyph-name="gbreve" unicode="&#x11f;" horiz-adv-x="1155" 
d="M530 -437c-52.667 0 -108.002 5.83398 -166.002 17.501s-108.667 27.834 -152 48.501l24 77c46 -20.667 92.167 -36.5 138.5 -47.5s97.5 -16.5 153.5 -16.5c108.667 0 191.167 33 247.5 99s84.5 157 84.5 273v145c-35.333 -56 -82.666 -100 -141.999 -132
s-129 -48 -209 -48c-85.333 0 -158.833 22 -220.5 66s-108.834 106.333 -141.501 187s-49 175.334 -49 284.001v21c0 115.333 16.333 215.166 49 299.499s79.834 149.666 141.501 195.999s135.834 69.5 222.501 69.5c81.333 0 151.666 -18.167 210.999 -54.5
s106.666 -86.5 141.999 -150.5l11 185h73v-1068c0 -92 -16.667 -171.833 -50 -239.5s-81.166 -119.834 -143.499 -156.501s-137.166 -55 -224.499 -55zM518.998 57.001c88 0 160.334 20.167 217.001 60.5s98 94.5 124 162.5v493c-25.333 71.333 -64.5 131 -117.5 179
s-126.833 72 -221.5 72c-72.667 0 -134 -20.667 -184 -62s-87.667 -98.5 -113 -171.5s-38 -157.5 -38 -253.5v-21c0 -140 28.167 -251.5 84.5 -334.5s139.166 -124.5 248.499 -124.5zM925.999 1003l-23 79h186v-71zM564.999 1307c-88 0 -157.333 23 -208 69
s-75.667 105.333 -75 178l2 6h75c0 -54 16.5 -97.833 49.5 -131.5s85.167 -50.5 156.5 -50.5c68.667 0 120.167 17 154.5 51s51.5 77.667 51.5 131h75l2 -6c0 -72.667 -25.167 -132 -75.5 -178s-119.5 -69 -207.5 -69z" />
    <glyph glyph-name="Gdotaccent" unicode="&#x120;" horiz-adv-x="1401" 
d="M763 -21c-133.333 0 -248.167 31.165 -344.5 93.498s-170.5 149.166 -222.5 260.499s-78 240 -78 386v35c0 142.667 27 268.334 81 377.001s128 193.5 222 254.5s200.667 91.5 320 91.5c105.333 0 194.666 -13.667 267.999 -41s139.666 -64 198.999 -110v-262h-79l-5 221
c-45.333 34.667 -97.166 62.167 -155.499 82.5s-132.5 30.5 -222.5 30.5c-102.667 0 -194.667 -27.167 -276 -81.5s-145.666 -129.666 -192.999 -225.999s-71 -207.833 -71 -334.5v-37c0 -130.667 21.833 -245.667 65.5 -345s107 -176.833 190 -232.5
s182.833 -83.5 299.5 -83.5c84 0 159 9.66699 225 29s122.667 42 170 68v405l-307 3v75h394v-521c-56.667 -37.333 -123.667 -69.666 -201 -96.999s-170.333 -41 -279 -41zM647.999 1674v156h103v-156h-103z" />
    <glyph glyph-name="gdotaccent" unicode="&#x121;" horiz-adv-x="1155" 
d="M530 -437c-52.667 0 -108.002 5.83398 -166.002 17.501s-108.667 27.834 -152 48.501l24 77c46 -20.667 92.167 -36.5 138.5 -47.5s97.5 -16.5 153.5 -16.5c108.667 0 191.167 33 247.5 99s84.5 157 84.5 273v145c-35.333 -56 -82.666 -100 -141.999 -132
s-129 -48 -209 -48c-85.333 0 -158.833 22 -220.5 66s-108.834 106.333 -141.501 187s-49 175.334 -49 284.001v21c0 115.333 16.333 215.166 49 299.499s79.834 149.666 141.501 195.999s135.834 69.5 222.501 69.5c81.333 0 151.666 -18.167 210.999 -54.5
s106.666 -86.5 141.999 -150.5l11 185h73v-1068c0 -92 -16.667 -171.833 -50 -239.5s-81.166 -119.834 -143.499 -156.501s-137.166 -55 -224.499 -55zM518.998 57.001c88 0 160.334 20.167 217.001 60.5s98 94.5 124 162.5v493c-25.333 71.333 -64.5 131 -117.5 179
s-126.833 72 -221.5 72c-72.667 0 -134 -20.667 -184 -62s-87.667 -98.5 -113 -171.5s-38 -157.5 -38 -253.5v-21c0 -140 28.167 -251.5 84.5 -334.5s139.166 -124.5 248.499 -124.5zM925.999 1003l-23 79h186v-71zM512.999 1404v156h103v-156h-103z" />
    <glyph glyph-name="uni0122" unicode="&#x122;" horiz-adv-x="1401" 
d="M763 -21c-133.333 0 -248.167 31.165 -344.5 93.498s-170.5 149.166 -222.5 260.499s-78 240 -78 386v35c0 142.667 27 268.334 81 377.001s128 193.5 222 254.5s200.667 91.5 320 91.5c105.333 0 194.666 -13.667 267.999 -41s139.666 -64 198.999 -110v-262h-79l-5 221
c-45.333 34.667 -97.166 62.167 -155.499 82.5s-132.5 30.5 -222.5 30.5c-102.667 0 -194.667 -27.167 -276 -81.5s-145.666 -129.666 -192.999 -225.999s-71 -207.833 -71 -334.5v-37c0 -130.667 21.833 -245.667 65.5 -345s107 -176.833 190 -232.5
s182.833 -83.5 299.5 -83.5c84 0 159 9.66699 225 29s122.667 42 170 68v405l-307 3v75h394v-521c-56.667 -37.333 -123.667 -69.666 -201 -96.999s-170.333 -41 -279 -41zM687.999 -532.002l-48 40.999c22 30.667 38 60 48 88s15 61.333 15 100v71h83v-69
c0 -48 -8.33301 -91.167 -25 -129.5s-41 -72.166 -73 -101.499z" />
    <glyph glyph-name="uni0123" unicode="&#x123;" horiz-adv-x="1155" 
d="M530 -437c-52.667 0 -108.002 5.83398 -166.002 17.501s-108.667 27.834 -152 48.501l24 77c46 -20.667 92.167 -36.5 138.5 -47.5s97.5 -16.5 153.5 -16.5c108.667 0 191.167 33 247.5 99s84.5 157 84.5 273v145c-35.333 -56 -82.666 -100 -141.999 -132
s-129 -48 -209 -48c-85.333 0 -158.833 22 -220.5 66s-108.834 106.333 -141.501 187s-49 175.334 -49 284.001v21c0 115.333 16.333 215.166 49 299.499s79.834 149.666 141.501 195.999s135.834 69.5 222.501 69.5c81.333 0 151.666 -18.167 210.999 -54.5
s106.666 -86.5 141.999 -150.5l11 185h73v-1068c0 -92 -16.667 -171.833 -50 -239.5s-81.166 -119.834 -143.499 -156.501s-137.166 -55 -224.499 -55zM518.998 57.001c88 0 160.334 20.167 217.001 60.5s98 94.5 124 162.5v493c-25.333 71.333 -64.5 131 -117.5 179
s-126.833 72 -221.5 72c-72.667 0 -134 -20.667 -184 -62s-87.667 -98.5 -113 -171.5s-38 -157.5 -38 -253.5v-21c0 -140 28.167 -251.5 84.5 -334.5s139.166 -124.5 248.499 -124.5zM925.999 1003l-23 79h186v-71zM589.999 1649l47.999 -42.001
c-21.333 -29.333 -37.166 -58.166 -47.499 -86.499s-15.5 -61.833 -15.5 -100.5v-71h-83v69c0 48.667 8.5 92 25.5 130s41.167 71.667 72.5 101z" />
    <glyph glyph-name="Hcircumflex" unicode="&#x124;" horiz-adv-x="1523" 
d="M73 0v71l163 6v1302l-163 6v71h413v-71l-163 -6v-619h876v619l-163 6v71h163h87h163v-71l-163 -6v-1302l163 -6v-71h-413v71l163 6v606h-876v-606l163 -6v-71h-413zM497 1598v19l224 213h78l227 -216v-16h-83l-184 177l-180 -177h-82z" />
    <glyph glyph-name="hcircumflex" unicode="&#x125;" horiz-adv-x="1287" 
d="M59 0l0.000976562 71l163 6v1406l-163 6v71h250v-687c34 72.667 82.167 129 144.5 169s137.166 60 224.499 60c113.333 0 199.833 -35.5 259.5 -106.5s89.5 -181.833 89.5 -332.5v-586l163 -6v-71h-414v71l163 6v588c0 129.333 -24.5 221.5 -73.5 276.5
s-116.167 82.5 -201.5 82.5c-102 0 -182 -29.833 -240 -89.5s-96.333 -136.5 -115 -230.5v-627l163 -6v-71h-413zM6.00098 1702v19l224 213h78l227 -216v-16h-83l-184 177l-180 -177h-82z" />
    <glyph glyph-name="Hbar" unicode="&#x126;" horiz-adv-x="1523" 
d="M73 0v71l163 6v1302l-163 6v71h413v-71l-163 -6v-619h876v619l-163 6v71h163h87h163v-71l-163 -6v-1302l163 -6v-71h-413v71l163 6v606h-876v-606l163 -6v-71h-413zM76 1011v75h1370v-75h-1370z" />
    <glyph glyph-name="hbar" unicode="&#x127;" horiz-adv-x="1287" 
d="M59 0l0.000976562 71l163 6v1406l-163 6v71h250v-687c34 72.667 82.167 129 144.5 169s137.166 60 224.499 60c113.333 0 199.833 -35.5 259.5 -106.5s89.5 -181.833 89.5 -332.5v-586l163 -6v-71h-414v71l163 6v588c0 129.333 -24.5 221.5 -73.5 276.5
s-116.167 82.5 -201.5 82.5c-102 0 -182 -29.833 -240 -89.5s-96.333 -136.5 -115 -230.5v-627l163 -6v-71h-413zM59.001 1234v77h540v-77h-540z" />
    <glyph glyph-name="Itilde" unicode="&#x128;" horiz-adv-x="560" 
d="M73 0v71l163 6v1302l-163 6v71h413v-71l-163 -6v-1302l163 -6v-71h-413zM18 1627l-65 5c0 38 8 71.333 24 100s37.167 51.5 63.5 68.5s55.5 25.5 87.5 25.5c36.667 0 72.834 -9.83301 108.501 -29.5l103 -59.5c33 -20 63.5 -30 91.5 -30
c27.333 0 52.166 11.333 74.499 34s33.5 53.334 33.5 92.001l65 -6c0 -37.333 -7.66699 -70.833 -23 -100.5s-36 -52.834 -62 -69.501s-54.667 -25 -86 -25c-36.667 0 -72.834 10 -108.501 30l-103.5 60c-33.333 20 -64.666 30 -93.999 30c-28.667 0 -54 -11 -76 -33
s-33 -52.667 -33 -92z" />
    <glyph glyph-name="itilde" unicode="&#x129;" horiz-adv-x="619" 
d="M84 0v71l163 6v928l-163 6v71h250v-1005l163 -6v-71h-413zM22 1357l-65 5c0 38 8 71.333 24 100s37.167 51.5 63.5 68.5s55.5 25.5 87.5 25.5c36.667 0 72.834 -9.83301 108.501 -29.5l103 -59.5c33 -20 63.5 -30 91.5 -30c27.333 0 52.166 11.333 74.499 34
s33.5 53.334 33.5 92.001l65 -6c0 -37.333 -7.66699 -70.833 -23 -100.5s-36 -52.834 -62 -69.501s-54.667 -25 -86 -25c-36.667 0 -72.834 10 -108.501 30l-103.5 60c-33.333 20 -64.666 30 -93.999 30c-28.667 0 -54 -11 -76 -33s-33 -52.667 -33 -92z" />
    <glyph glyph-name="Imacron" unicode="&#x12a;" horiz-adv-x="560" 
d="M73 0v71l163 6v1302l-163 6v71h413v-71l-163 -6v-1302l163 -6v-71h-413zM-45 1674v74h649v-74h-649z" />
    <glyph glyph-name="imacron" unicode="&#x12b;" horiz-adv-x="619" 
d="M84 0v71l163 6v928l-163 6v71h250v-1005l163 -6v-71h-413zM-42 1404v74h649v-74h-649z" />
    <glyph glyph-name="Ibreve" unicode="&#x12c;" horiz-adv-x="560" 
d="M73 0v71l163 6v1302l-163 6v71h413v-71l-163 -6v-1302l163 -6v-71h-413zM280 1577c-88 0 -157.333 23 -208 69s-75.667 105.333 -75 178l2 6h75c0 -54 16.5 -97.833 49.5 -131.5s85.167 -50.5 156.5 -50.5c68.667 0 120.167 17 154.5 51s51.5 77.667 51.5 131h75l2 -6
c0 -72.667 -25.167 -132 -75.5 -178s-119.5 -69 -207.5 -69z" />
    <glyph glyph-name="ibreve" unicode="&#x12d;" horiz-adv-x="619" 
d="M84 0v71l163 6v928l-163 6v71h250v-1005l163 -6v-71h-413zM284 1307c-88 0 -157.333 23 -208 69s-75.667 105.333 -75 178l2 6h75c0 -54 16.5 -97.833 49.5 -131.5s85.167 -50.5 156.5 -50.5c68.667 0 120.167 17 154.5 51s51.5 77.667 51.5 131h75l2 -6
c0 -72.667 -25.167 -132 -75.5 -178s-119.5 -69 -207.5 -69z" />
    <glyph glyph-name="Iogonek" unicode="&#x12e;" horiz-adv-x="560" 
d="M73 0v71l163 6v1302l-163 6v71h413v-71l-163 -6v-1302l163 -6v-71h-413zM419 -425c-54 0 -97.832 15.834 -131.499 47.501s-50.5 76.167 -50.5 133.5c0 46 14.833 90.5 44.5 133.5s79.167 89.5 148.5 139.5l56 -29c-56.667 -48.667 -98.834 -90.334 -126.501 -125.001
s-41.5 -72.667 -41.5 -114c0 -25.333 7.33301 -50.333 22 -75s44 -37 88 -37c20 0 38.167 3.33301 54.5 10s32.833 15 49.5 25l20 -65c-18 -12 -37.833 -22.333 -59.5 -31s-46.167 -13 -73.5 -13z" />
    <glyph glyph-name="iogonek" unicode="&#x12f;" horiz-adv-x="619" 
d="M84 0v71l163 6v928l-163 6v71h250v-1005l163 -6v-71h-413zM231 1404v156h103v-156h-103zM430 -425c-54 0 -97.832 15.834 -131.499 47.501s-50.5 76.167 -50.5 133.5c0 46 14.833 90.5 44.5 133.5s79.167 89.5 148.5 139.5l56 -29
c-56.667 -48.667 -98.834 -90.334 -126.501 -125.001s-41.5 -72.667 -41.5 -114c0 -25.333 7.33301 -50.333 22 -75s44 -37 88 -37c20 0 38.167 3.33301 54.5 10s32.833 15 49.5 25l20 -65c-18 -12 -37.833 -22.333 -59.5 -31s-46.167 -13 -73.5 -13z" />
    <glyph glyph-name="Idotaccent" unicode="&#x130;" horiz-adv-x="560" 
d="M73 0v71l163 6v1302l-163 6v71h413v-71l-163 -6v-1302l163 -6v-71h-413zM227 1674v156h103v-156h-103z" />
    <glyph glyph-name="dotlessi" unicode="&#x131;" horiz-adv-x="619" 
d="M84 0v71l163 6v928l-163 6v71h250v-1005l163 -6v-71h-413z" />
    <glyph glyph-name="IJ" unicode="&#x132;" horiz-adv-x="1702" 
d="M73 0v71l163 6v1302l-163 6v71h413v-71l-163 -6v-1302l163 -6v-71h-413zM1032 -21c-86.667 0 -162.338 15.832 -227.005 47.499s-114.667 78.667 -150 141s-52.666 139.833 -51.999 232.5l2 6h79c0.666992 -114 30.834 -200.667 90.501 -260s145.5 -89 257.5 -89
c64.667 0 121.834 14.833 171.501 44.5s88.167 71.834 115.5 126.501s41 118.667 41 192v959l-188 6v71h438v-71l-163 -6v-959c0 -89.333 -17.167 -167 -51.5 -233s-82.666 -117.167 -144.999 -153.5s-135.166 -54.5 -218.499 -54.5z" />
    <glyph glyph-name="ij" unicode="&#x133;" horiz-adv-x="1189" 
d="M84 0v71l163 6v928l-163 6v71h250v-1005l163 -6v-71h-413zM231 1404v156h103v-156h-103zM720 -437c-20 0 -38.6641 1.66602 -55.9971 4.99902s-36 8.33301 -56 15l13 74c11.333 -4 26.666 -7.83301 45.999 -11.5s37 -5.5 53 -5.5c65.333 0 116.166 23.667 152.499 71
s54.5 114 54.5 200v1094l-163 6v71h250v-1171c0 -111.333 -25.833 -197.166 -77.5 -257.499s-123.834 -90.5 -216.501 -90.5zM906.003 1404v156h103v-156h-103z" />
    <glyph glyph-name="Jcircumflex" unicode="&#x134;" horiz-adv-x="1144" 
d="M478 -21c-86.667 0 -162.338 15.832 -227.005 47.499s-114.667 78.667 -150 141s-52.666 139.833 -51.999 232.5l2 6h79c0.666992 -114 30.834 -200.667 90.501 -260s145.5 -89 257.5 -89c64.667 0 121.834 14.833 171.501 44.5s88.167 71.834 115.5 126.501
s41 118.667 41 192v959l-188 6v71h438v-71l-163 -6v-959c0 -89.333 -17.167 -167 -51.5 -233s-82.666 -117.167 -144.999 -153.5s-135.166 -54.5 -218.499 -54.5zM579.996 1598v19l224 213h78l227 -216v-16h-83l-184 177l-180 -177h-82z" />
    <glyph glyph-name="jcircumflex" unicode="&#x135;" horiz-adv-x="554" 
d="M96 -437c-20 0 -38.6641 1.66602 -55.9971 4.99902s-36 8.33301 -56 15l13 74c11.333 -4 26.666 -7.83301 45.999 -11.5s37 -5.5 53 -5.5c65.333 0 116.166 23.667 152.499 71s54.5 114 54.5 200v1094l-163 6v71h250v-1171c0 -111.333 -25.833 -197.166 -77.5 -257.499
s-123.834 -90.5 -216.501 -90.5zM70.0029 1328v19l224 213h78l227 -216v-16h-83l-184 177l-180 -177h-82z" />
    <glyph glyph-name="uni0136" unicode="&#x136;" horiz-adv-x="1414" 
d="M306 398l-39 76l806 903l-1 5l-154 3v71h385v-71l-120 -6zM73 0v71l163 6v1302l-163 6v71h413v-71l-163 -6v-1302l163 -6v-71h-413zM961 0v71l153 3l2 5l-510 700l64 58l559 -761l122 -5v-71h-390zM664 -532l-48 40.999c22 30.667 38 60 48 88s15 61.333 15 100v71h83
v-69c0 -48 -8.33301 -91.167 -25 -129.5s-41 -72.166 -73 -101.499z" />
    <glyph glyph-name="uni0137" unicode="&#x137;" horiz-adv-x="1185" 
d="M62 0v71l163 6v1406l-163 6v71h250v-1483l163 -6v-71h-413zM761 0v71l122 3l1 4l-379 521l52 63l437 -586l126 -5v-71h-359zM302 338l-31 78l560 586l-1 6l-118 3v71h355v-71l-126 -6zM549 -532l-48 40.999c22 30.667 38 60 48 88s15 61.333 15 100v71h83v-69
c0 -48 -8.33301 -91.167 -25 -129.5s-41 -72.166 -73 -101.499z" />
    <glyph glyph-name="kgreenlandic" unicode="&#x138;" horiz-adv-x="1185" 
d="M302 338l-31 78l564 586v6l-118 3v71h354v-71l-126 -6zM62 0v71l163 6v928l-163 6v71h250v-1005l163 -6v-71h-413zM935 0l-431 599l53 63l431 -586l117 -5v-71h-170z" />
    <glyph glyph-name="Lacute" unicode="&#x139;" horiz-adv-x="1172" 
d="M73 0v71l163 6v1302l-163 6v71h163h88h163v-71l-163 -6v-1303h652l5 237h77v-313h-985zM209 1590l181 240h102l2 -5l-215 -239h-66z" />
    <glyph glyph-name="lacute" unicode="&#x13a;" horiz-adv-x="598" 
d="M78 0v71l163 6v1406l-163 6v71h250v-1483l163 -6v-71h-413zM214 1694l181 240h102l2 -5l-215 -239h-66z" />
    <glyph glyph-name="uni013B" unicode="&#x13b;" horiz-adv-x="1172" 
d="M73 0v71l163 6v1302l-163 6v71h163h88h163v-71l-163 -6v-1303h652l5 237h77v-313h-985zM543 -532l-48 40.999c22 30.667 38 60 48 88s15 61.333 15 100v71h83v-69c0 -48 -8.33301 -91.167 -25 -129.5s-41 -72.166 -73 -101.499z" />
    <glyph glyph-name="uni013C" unicode="&#x13c;" horiz-adv-x="598" 
d="M78 0v71l163 6v1406l-163 6v71h250v-1483l163 -6v-71h-413zM256 -532l-48 40.999c22 30.667 38 60 48 88s15 61.333 15 100v71h83v-69c0 -48 -8.33301 -91.167 -25 -129.5s-41 -72.166 -73 -101.499z" />
    <glyph glyph-name="Lcaron" unicode="&#x13d;" horiz-adv-x="1172" 
d="M73 0v71l163 6v1302l-163 6v71h163h88h163v-71l-163 -6v-1303h652l5 237h77v-313h-985zM963 1156l-48 42c22 30 38 59 48 87s15 61.333 15 100v71h83v-69c0 -48 -8.33301 -91 -25 -129s-41 -72 -73 -102z" />
    <glyph glyph-name="lcaron" unicode="&#x13e;" horiz-adv-x="598" 
d="M78 0v71l163 6v1406l-163 6v71h250v-1483l163 -6v-71h-413zM482 1260l-48 42c22 30 38 59 48 87s15 61.333 15 100v71h83v-69c0 -48 -8.33301 -91 -25 -129s-41 -72 -73 -102z" />
    <glyph glyph-name="Ldot" unicode="&#x13f;" horiz-adv-x="1172" 
d="M73 0v71l163 6v1302l-163 6v71h163h88h163v-71l-163 -6v-1303h652l5 237h77v-313h-985zM808 635v147h112v-147h-112z" />
    <glyph glyph-name="ldot" unicode="&#x140;" horiz-adv-x="598" 
d="M78 0v71l163 6v1406l-163 6v71h250v-1483l163 -6v-71h-413zM472 635v147h112v-147h-112z" />
    <glyph glyph-name="Lslash" unicode="&#x141;" horiz-adv-x="1172" 
d="M73 0v71l163 6v1302l-163 6v71h163h88h163v-71l-163 -6v-1303h652l5 237h77v-313h-985zM69 631v82l590 187v-82z" />
    <glyph glyph-name="lslash" unicode="&#x142;" horiz-adv-x="598" 
d="M78 0v71l163 6v1406l-163 6v71h250v-1483l163 -6v-71h-413zM55 660v83l467 187v-83z" />
    <glyph glyph-name="Nacute" unicode="&#x143;" horiz-adv-x="1534" 
d="M74 0v71l163 6v1302l-163 6v71h163h88l883 -1303l6 2v1224l-166 6v71h250h163v-71l-163 -6v-1379h-84l-887 1306l-6 -2v-1227l167 -6v-71h-414zM693 1590l181 240h102l2 -5l-215 -239h-66z" />
    <glyph glyph-name="nacute" unicode="&#x144;" horiz-adv-x="1325" 
d="M86 0l0.000976562 71l163 6v928l-163 6v71h239l8 -209c33.333 72.667 80.5 129 141.5 169s134.833 60 221.5 60c117.333 0 206.166 -36.5 266.499 -109.5s90.5 -187.833 90.5 -344.5v-571l163 -6v-71h-413v71l163 6v571c0 137.333 -25 234.333 -75 291
s-119.333 85 -208 85c-102.667 0 -182 -30 -238 -90s-92.333 -137.333 -109 -232v-625l163 -6v-71h-413zM589.001 1320l181 240h102l2 -5l-215 -239h-66z" />
    <glyph glyph-name="uni0145" unicode="&#x145;" horiz-adv-x="1534" 
d="M74 0v71l163 6v1302l-163 6v71h163h88l883 -1303l6 2v1224l-166 6v71h250h163v-71l-163 -6v-1379h-84l-887 1306l-6 -2v-1227l167 -6v-71h-414zM724 -532l-48 40.999c22 30.667 38 60 48 88s15 61.333 15 100v71h83v-69c0 -48 -8.33301 -91.167 -25 -129.5
s-41 -72.166 -73 -101.499z" />
    <glyph glyph-name="uni0146" unicode="&#x146;" horiz-adv-x="1325" 
d="M86 0l0.000976562 71l163 6v928l-163 6v71h239l8 -209c33.333 72.667 80.5 129 141.5 169s134.833 60 221.5 60c117.333 0 206.166 -36.5 266.499 -109.5s90.5 -187.833 90.5 -344.5v-571l163 -6v-71h-413v71l163 6v571c0 137.333 -25 234.333 -75 291
s-119.333 85 -208 85c-102.667 0 -182 -30 -238 -90s-92.333 -137.333 -109 -232v-625l163 -6v-71h-413zM620.001 -532l-48 40.999c22 30.667 38 60 48 88s15 61.333 15 100v71h83v-69c0 -48 -8.33301 -91.167 -25 -129.5s-41 -72.166 -73 -101.499z" />
    <glyph glyph-name="Ncaron" unicode="&#x147;" horiz-adv-x="1534" 
d="M74 0v71l163 6v1302l-163 6v71h163h88l883 -1303l6 2v1224l-166 6v71h250h163v-71l-163 -6v-1379h-84l-887 1306l-6 -2v-1227l167 -6v-71h-414zM1032 1830v-19l-224 -213h-78l-227 216v16h83l184 -177l180 177h82z" />
    <glyph glyph-name="ncaron" unicode="&#x148;" horiz-adv-x="1325" 
d="M86 0l0.000976562 71l163 6v928l-163 6v71h239l8 -209c33.333 72.667 80.5 129 141.5 169s134.833 60 221.5 60c117.333 0 206.166 -36.5 266.499 -109.5s90.5 -187.833 90.5 -344.5v-571l163 -6v-71h-413v71l163 6v571c0 137.333 -25 234.333 -75 291
s-119.333 85 -208 85c-102.667 0 -182 -30 -238 -90s-92.333 -137.333 -109 -232v-625l163 -6v-71h-413zM928.001 1560v-19l-224 -213h-78l-227 216v16h83l184 -177l180 177h82z" />
    <glyph glyph-name="napostrophe" unicode="&#x149;" horiz-adv-x="1325" 
d="M86 0l0.000976562 71l163 6v928l-163 6v71h239l8 -209c33.333 72.667 80.5 129 141.5 169s134.833 60 221.5 60c117.333 0 206.166 -36.5 266.499 -109.5s90.5 -187.833 90.5 -344.5v-571l163 -6v-71h-413v71l163 6v571c0 137.333 -25 234.333 -75 291
s-119.333 85 -208 85c-102.667 0 -182 -30 -238 -90s-92.333 -137.333 -109 -232v-625l163 -6v-71h-413zM108.001 1260l-48 40.999c22 30.667 38 60 48 88s15 61.333 15 100v71h83v-69c0 -48 -8.33301 -91.167 -25 -129.5s-41 -72.166 -73 -101.499z" />
    <glyph glyph-name="Eng" unicode="&#x14a;" horiz-adv-x="1542" 
d="M1000 -437c-20 0 -38.667 1.66602 -56 4.99902s-36 8.33301 -56 15l13 74c11.333 -4 26.5 -7.83301 45.5 -11.5s36.833 -5.5 53.5 -5.5c66 0 117.167 23.833 153.5 71.5s54.5 114.167 54.5 199.5v89l-882 1300l-6 -2v-1221l163 -6v-71h-413v71l163 6v1302l-163 6v71h250
l882 -1299l6 2v1220l-163 6v71h413v-71l-163 -6v-1468c0 -111.333 -26 -197.166 -78 -257.499s-124.333 -90.5 -217 -90.5z" />
    <glyph glyph-name="eng" unicode="&#x14b;" horiz-adv-x="1234" 
d="M762 -437c-23.333 0 -45.001 1.66602 -65.001 4.99902s-41 8.33301 -63 15l13 76c12.667 -4 30.334 -7.83301 53.001 -11.5s43.334 -5.5 62.001 -5.5c66 0 117.167 23.5 153.5 70.5s54.5 113.167 54.5 198.5v737c0 137.333 -25 234.333 -75 291s-119.333 85 -208 85
c-102.667 0 -181.834 -29 -237.501 -87s-92.167 -133 -109.5 -225v-635l163 -6v-71h-413v71l163 6v928l-163 6v71h241l7 -207c33.333 72 80.333 127.833 141 167.5s134.334 59.5 221.001 59.5c117.333 0 206.166 -36.5 266.499 -109.5s90.5 -187.833 90.5 -344.5v-737
c0 -111.333 -26 -197.166 -78 -257.499s-124.333 -90.5 -217 -90.5z" />
    <glyph glyph-name="Omacron" unicode="&#x14c;" horiz-adv-x="1456" 
d="M725 -21c-91.333 0 -174.335 17.667 -249.002 53s-138.834 85.5 -192.501 150.5s-95 142.833 -124 233.5s-43.5 191.667 -43.5 303v18c0 111.333 14.333 212.333 43 303s69.834 168.5 123.501 233.5s117.667 115.167 192 150.5s157.166 53 248.499 53
c92.667 0 176.334 -17.667 251.001 -53s138.834 -85.5 192.501 -150.5s94.834 -142.833 123.501 -233.5s43 -191.667 43 -303v-18c0 -111.333 -14.333 -212.5 -43 -303.5s-69.5 -168.833 -122.5 -233.5s-117 -114.667 -192 -150s-158.5 -53 -250.5 -53zM724.998 58
c108.667 0 201.833 27.333 279.5 82s137.167 131.667 178.5 231s62 215.333 62 348v20c0 132 -20.833 247.333 -62.5 346s-101.5 175.334 -179.5 230.001s-171.333 82 -280 82c-106 0 -197.833 -27.333 -275.5 -82s-137.667 -131.334 -180 -230.001s-63.5 -214 -63.5 -346
v-20c0 -132.667 21.167 -248.5 63.5 -347.5s102.5 -176 180.5 -231s170.333 -82.5 277 -82.5zM398.997 1674v74h649v-74h-649z" />
    <glyph glyph-name="omacron" unicode="&#x14d;" horiz-adv-x="1148" 
d="M575 -21c-95.333 0 -178.666 23.167 -249.999 69.5s-127 110.333 -167 192s-60 175.5 -60 281.5v37c0 106.667 20 200.667 60 282s95.5 145.166 166.5 191.499s153.833 69.5 248.5 69.5c95.333 0 178.666 -23.167 249.999 -69.5s127 -110.166 167 -191.499
s60 -175.333 60 -282v-37c0 -106 -20 -200 -60 -282s-95.5 -146 -166.5 -192s-153.833 -69 -248.5 -69zM575 56c80 0 148.999 20.8311 206.999 62.498s102.667 97.667 134 168s47 148.833 47 235.5v37c0 86 -15.833 164.167 -47.5 234.5s-76.667 126.5 -135 168.5
s-127.5 63 -207.5 63c-79.333 0 -148.166 -21 -206.499 -63s-103.166 -98.167 -134.499 -168.5s-47 -148.5 -47 -234.5v-37c0 -87.333 15.667 -166.166 47 -236.499s76.166 -126.166 134.499 -167.499s127.833 -62 208.5 -62zM248.999 1404v74h649v-74h-649z" />
    <glyph glyph-name="Obreve" unicode="&#x14e;" horiz-adv-x="1456" 
d="M725 -21c-91.333 0 -174.335 17.667 -249.002 53s-138.834 85.5 -192.501 150.5s-95 142.833 -124 233.5s-43.5 191.667 -43.5 303v18c0 111.333 14.333 212.333 43 303s69.834 168.5 123.501 233.5s117.667 115.167 192 150.5s157.166 53 248.499 53
c92.667 0 176.334 -17.667 251.001 -53s138.834 -85.5 192.501 -150.5s94.834 -142.833 123.501 -233.5s43 -191.667 43 -303v-18c0 -111.333 -14.333 -212.5 -43 -303.5s-69.5 -168.833 -122.5 -233.5s-117 -114.667 -192 -150s-158.5 -53 -250.5 -53zM724.998 58
c108.667 0 201.833 27.333 279.5 82s137.167 131.667 178.5 231s62 215.333 62 348v20c0 132 -20.833 247.333 -62.5 346s-101.5 175.334 -179.5 230.001s-171.333 82 -280 82c-106 0 -197.833 -27.333 -275.5 -82s-137.667 -131.334 -180 -230.001s-63.5 -214 -63.5 -346
v-20c0 -132.667 21.167 -248.5 63.5 -347.5s102.5 -176 180.5 -231s170.333 -82.5 277 -82.5zM723.997 1577c-88 0 -157.333 23 -208 69s-75.667 105.333 -75 178l2 6h75c0 -54 16.5 -97.833 49.5 -131.5s85.167 -50.5 156.5 -50.5c68.667 0 120.167 17 154.5 51
s51.5 77.667 51.5 131h75l2 -6c0 -72.667 -25.167 -132 -75.5 -178s-119.5 -69 -207.5 -69z" />
    <glyph glyph-name="obreve" unicode="&#x14f;" horiz-adv-x="1148" 
d="M575 -21c-95.333 0 -178.666 23.167 -249.999 69.5s-127 110.333 -167 192s-60 175.5 -60 281.5v37c0 106.667 20 200.667 60 282s95.5 145.166 166.5 191.499s153.833 69.5 248.5 69.5c95.333 0 178.666 -23.167 249.999 -69.5s127 -110.166 167 -191.499
s60 -175.333 60 -282v-37c0 -106 -20 -200 -60 -282s-95.5 -146 -166.5 -192s-153.833 -69 -248.5 -69zM575 56c80 0 148.999 20.8311 206.999 62.498s102.667 97.667 134 168s47 148.833 47 235.5v37c0 86 -15.833 164.167 -47.5 234.5s-76.667 126.5 -135 168.5
s-127.5 63 -207.5 63c-79.333 0 -148.166 -21 -206.499 -63s-103.166 -98.167 -134.499 -168.5s-47 -148.5 -47 -234.5v-37c0 -87.333 15.667 -166.166 47 -236.499s76.166 -126.166 134.499 -167.499s127.833 -62 208.5 -62zM574.999 1307c-88 0 -157.333 23 -208 69
s-75.667 105.333 -75 178l2 6h75c0 -54 16.5 -97.833 49.5 -131.5s85.167 -50.5 156.5 -50.5c68.667 0 120.167 17 154.5 51s51.5 77.667 51.5 131h75l2 -6c0 -72.667 -25.167 -132 -75.5 -178s-119.5 -69 -207.5 -69z" />
    <glyph glyph-name="Ohungarumlaut" unicode="&#x150;" horiz-adv-x="1456" 
d="M725 -21c-91.333 0 -174.335 17.667 -249.002 53s-138.834 85.5 -192.501 150.5s-95 142.833 -124 233.5s-43.5 191.667 -43.5 303v18c0 111.333 14.333 212.333 43 303s69.834 168.5 123.501 233.5s117.667 115.167 192 150.5s157.166 53 248.499 53
c92.667 0 176.334 -17.667 251.001 -53s138.834 -85.5 192.501 -150.5s94.834 -142.833 123.501 -233.5s43 -191.667 43 -303v-18c0 -111.333 -14.333 -212.5 -43 -303.5s-69.5 -168.833 -122.5 -233.5s-117 -114.667 -192 -150s-158.5 -53 -250.5 -53zM724.998 58
c108.667 0 201.833 27.333 279.5 82s137.167 131.667 178.5 231s62 215.333 62 348v20c0 132 -20.833 247.333 -62.5 346s-101.5 175.334 -179.5 230.001s-171.333 82 -280 82c-106 0 -197.833 -27.333 -275.5 -82s-137.667 -131.334 -180 -230.001s-63.5 -214 -63.5 -346
v-20c0 -132.667 21.167 -248.5 63.5 -347.5s102.5 -176 180.5 -231s170.333 -82.5 277 -82.5zM747.997 1586l-2 5l220 239h105l2 -6l-246 -238h-79zM505.997 1588l-3 4l180 238h98l3 -6l-206 -236h-72z" />
    <glyph glyph-name="ohungarumlaut" unicode="&#x151;" horiz-adv-x="1148" 
d="M575 -21c-95.333 0 -178.666 23.167 -249.999 69.5s-127 110.333 -167 192s-60 175.5 -60 281.5v37c0 106.667 20 200.667 60 282s95.5 145.166 166.5 191.499s153.833 69.5 248.5 69.5c95.333 0 178.666 -23.167 249.999 -69.5s127 -110.166 167 -191.499
s60 -175.333 60 -282v-37c0 -106 -20 -200 -60 -282s-95.5 -146 -166.5 -192s-153.833 -69 -248.5 -69zM575 56c80 0 148.999 20.8311 206.999 62.498s102.667 97.667 134 168s47 148.833 47 235.5v37c0 86 -15.833 164.167 -47.5 234.5s-76.667 126.5 -135 168.5
s-127.5 63 -207.5 63c-79.333 0 -148.166 -21 -206.499 -63s-103.166 -98.167 -134.499 -168.5s-47 -148.5 -47 -234.5v-37c0 -87.333 15.667 -166.166 47 -236.499s76.166 -126.166 134.499 -167.499s127.833 -62 208.5 -62zM598.999 1316l-2 5l220 239h105l2 -6l-246 -238
h-79zM356.999 1318l-3 4l180 238h98l3 -6l-206 -236h-72z" />
    <glyph glyph-name="OE" unicode="&#x152;" horiz-adv-x="2019" 
d="M770 -21c-102 0 -193.165 17.668 -273.498 53.001s-148.833 85.5 -205.5 150.5s-100 142.833 -130 233.5s-45 191.667 -45 303v18c0 111.333 14.833 212.333 44.5 303s72.667 168.5 129 233.5s124.666 115.167 204.999 150.5s171.5 53 273.5 53
c42.667 0 89.334 -3.16699 140.001 -9.5s99.667 -15.833 147 -28.5l-15 -88c-44 15.333 -89.667 26.833 -137 34.5s-92.333 11.5 -135 11.5c-120 0 -222 -27.333 -306 -82s-148 -131.334 -192 -230.001s-66 -214 -66 -346v-20c0 -133.333 22.167 -249.333 66.5 -348
s108.666 -175.5 192.999 -230.5s186.5 -82.5 306.5 -82.5c42.667 0 87.5 4 134.5 12s92.167 19.333 135.5 34l15 -88c-46.667 -12 -95.334 -21.167 -146.001 -27.5s-97 -9.5 -139 -9.5zM908.002 0.000976562l64 69v1317l-64 70h966v-306h-81l-3 229h-731v-583h613v-77h-613
v-642h733l4 229h80v-306h-968z" />
    <glyph glyph-name="oe" unicode="&#x153;" horiz-adv-x="1960" 
d="M575 -21c-95.333 0 -178.83 23.1709 -250.497 69.5039s-127.334 110.333 -167.001 192s-59.5 175.5 -59.5 281.5v37c0 106.667 19.833 200.667 59.5 282s95.167 145.166 166.5 191.499s154.333 69.5 249 69.5c104.667 0 195.334 -28.833 272.001 -86.5
s131.667 -135.834 165 -234.501c33.333 97.333 87.166 175.166 161.499 233.499s158.166 87.5 251.499 87.5c85.333 0 159.5 -18.667 222.5 -56s111.833 -89.666 146.5 -156.999s52 -147 52 -239v-92h-786l-1 -60c0.666992 -83.333 17.167 -158.333 49.5 -225
s76.666 -119.5 132.999 -158.5s120.5 -58.5 192.5 -58.5c52 0 98.333 4.66699 139 14s77 23.5 109 42.5s60.667 42.167 86 69.5l40 -62c-42 -44.667 -93.667 -79.334 -155 -104.001s-134.333 -37 -219 -37c-63.333 0 -123 13.167 -179 39.5s-105 63.333 -147 111
s-74.333 103.5 -97 167.5c-34 -98.667 -89 -176.334 -165 -233.001s-165.667 -85 -269 -85zM575.003 56.0039c79.333 0 148.167 20.8311 206.5 62.498s103.166 97.667 134.499 168s47 148.833 47 235.5v37c0 86 -15.833 164.167 -47.5 234.5s-76.667 126.5 -135 168.5
s-127.5 63 -207.5 63c-79.333 0 -148.166 -21 -206.499 -63s-103.166 -98.167 -134.499 -168.5s-47 -148.5 -47 -234.5v-37c0 -87.333 15.667 -166.166 47 -236.499s76.166 -126.166 134.499 -167.499s127.833 -62 208.5 -62zM1068 635.002h688.998v32
c0 68 -13.833 129 -41.5 183s-66.5 96.667 -116.5 128s-108.667 47 -176 47c-65.333 0 -123.666 -16.833 -174.999 -50.5s-93.166 -79.5 -125.499 -137.5s-51.5 -123.333 -57.5 -196z" />
    <glyph glyph-name="Racute" unicode="&#x154;" horiz-adv-x="1369" 
d="M73 -1l-0.00195312 70.999l163 6v1302l-163 6v71h600c103.333 0 190.833 -15 262.5 -45s126 -74.167 163 -132.5s55.5 -130.166 55.5 -215.499c0 -82.667 -19.667 -152.667 -59 -210s-94.666 -100.833 -165.999 -130.5s-154.666 -44.5 -249.999 -44.5l-356 -2v-599
l163 -6v-71h-413zM1061 -1.00098l-309 721l87 1l283 -646l125 -4v-72h-186zM322.998 752.999l341.999 -0.000976562c138.667 0 240.334 28.833 305.001 86.5s97 131.834 97 222.501c0 101.333 -32.833 179.333 -98.5 234s-164.167 82 -295.5 82h-350v-625zM609.997 1590
l181 240h102l2 -5l-215 -239h-66z" />
    <glyph glyph-name="racute" unicode="&#x155;" horiz-adv-x="830" 
d="M85 0v71l163 6v928l-163 6v71h238l11 -176l1 -33c30 72 73 128.167 129 168.5s124 60.5 204 60.5c16.667 0 35 -1.5 55 -4.5s34.667 -5.83301 44 -8.5l-10 -79l-101 7c-86.667 0.666992 -157.167 -26 -211.5 -80s-90.833 -125.667 -109.5 -215v-645l163 -6v-71h-413z
M347 1320l181 240h102l2 -5l-215 -239h-66z" />
    <glyph glyph-name="uni0156" unicode="&#x156;" horiz-adv-x="1369" 
d="M73 -1l-0.00195312 70.999l163 6v1302l-163 6v71h600c103.333 0 190.833 -15 262.5 -45s126 -74.167 163 -132.5s55.5 -130.166 55.5 -215.499c0 -82.667 -19.667 -152.667 -59 -210s-94.666 -100.833 -165.999 -130.5s-154.666 -44.5 -249.999 -44.5l-356 -2v-599
l163 -6v-71h-413zM1061 -1.00098l-309 721l87 1l283 -646l125 -4v-72h-186zM322.998 752.999l341.999 -0.000976562c138.667 0 240.334 28.833 305.001 86.5s97 131.834 97 222.501c0 101.333 -32.833 179.333 -98.5 234s-164.167 82 -295.5 82h-350v-625zM640.997 -532.002
l-48 40.999c22 30.667 38 60 48 88s15 61.333 15 100v71h83v-69c0 -48 -8.33301 -91.167 -25 -129.5s-41 -72.166 -73 -101.499z" />
    <glyph glyph-name="uni0157" unicode="&#x157;" horiz-adv-x="830" 
d="M85 0v71l163 6v928l-163 6v71h238l11 -176l1 -33c30 72 73 128.167 129 168.5s124 60.5 204 60.5c16.667 0 35 -1.5 55 -4.5s34.667 -5.83301 44 -8.5l-10 -79l-101 7c-86.667 0.666992 -157.167 -26 -211.5 -80s-90.833 -125.667 -109.5 -215v-645l163 -6v-71h-413z
M249 -532l-48 40.999c22 30.667 38 60 48 88s15 61.333 15 100v71h83v-69c0 -48 -8.33301 -91.167 -25 -129.5s-41 -72.166 -73 -101.499z" />
    <glyph glyph-name="Rcaron" unicode="&#x158;" horiz-adv-x="1369" 
d="M73 -1l-0.00195312 70.999l163 6v1302l-163 6v71h600c103.333 0 190.833 -15 262.5 -45s126 -74.167 163 -132.5s55.5 -130.166 55.5 -215.499c0 -82.667 -19.667 -152.667 -59 -210s-94.666 -100.833 -165.999 -130.5s-154.666 -44.5 -249.999 -44.5l-356 -2v-599
l163 -6v-71h-413zM1061 -1.00098l-309 721l87 1l283 -646l125 -4v-72h-186zM322.998 752.999l341.999 -0.000976562c138.667 0 240.334 28.833 305.001 86.5s97 131.834 97 222.501c0 101.333 -32.833 179.333 -98.5 234s-164.167 82 -295.5 82h-350v-625zM948.997 1830v-19
l-224 -213h-78l-227 216v16h83l184 -177l180 177h82z" />
    <glyph glyph-name="rcaron" unicode="&#x159;" horiz-adv-x="830" 
d="M85 0v71l163 6v928l-163 6v71h238l11 -176l1 -33c30 72 73 128.167 129 168.5s124 60.5 204 60.5c16.667 0 35 -1.5 55 -4.5s34.667 -5.83301 44 -8.5l-10 -79l-101 7c-86.667 0.666992 -157.167 -26 -211.5 -80s-90.833 -125.667 -109.5 -215v-645l163 -6v-71h-413z
M685 1560v-19l-224 -213h-78l-227 216v16h83l184 -177l180 177h82z" />
    <glyph glyph-name="Sacute" unicode="&#x15a;" horiz-adv-x="1188" 
d="M593 -21c-80.667 0 -162.833 12.4961 -246.5 37.4961s-164.834 64.167 -243.501 117.5v270h77l8 -227c65.333 -41.333 132.333 -71.666 201 -90.999s136.667 -29 204 -29c80.667 0 151.834 12.5 213.501 37.5s109.834 60 144.501 105s52 96.833 52 155.5
c0 58 -13.667 108.333 -41 151s-71.833 80.5 -133.5 113.5s-144.834 63.5 -249.501 91.5c-108 29.333 -195 61.833 -261 97.5s-114 78.334 -144 128.001s-45 109.834 -45 180.501c0 71.333 19 133.833 57 187.5s91.333 95.834 160 126.501s148.667 46 240 46
c95.333 0 181.166 -14.333 257.499 -43s142.166 -66.334 197.499 -113.001v-247h-77l-7 205c-47.333 38.667 -102.166 68.334 -164.499 89.001s-131.166 31 -206.499 31c-78 0 -144.667 -12.667 -200 -38s-97.5 -59.166 -126.5 -101.499s-43.5 -88.833 -43.5 -139.5
c0 -52 10.833 -97.667 32.5 -137s60.834 -74.333 117.501 -105s137 -59.667 241 -87c159.333 -42 279.833 -96.333 361.5 -163s122.5 -157 122.5 -271c0 -76.667 -21.5 -143.334 -64.5 -200.001s-101.833 -100.5 -176.5 -131.5s-160.334 -46.5 -257.001 -46.5zM520.001 1590
l181 240h102l2 -5l-215 -239h-66z" />
    <glyph glyph-name="sacute" unicode="&#x15b;" horiz-adv-x="1012" 
d="M493 -21c-77.333 0 -148.833 11.5 -214.5 34.5s-123.834 55.167 -174.501 96.5l-1 208h76l9 -162c38.667 -35.333 84.334 -61 137.001 -77s108.667 -24 168 -24c95.333 0 169.5 21.5 222.5 64.5s79.5 93.167 79.5 150.5c0 54 -22.833 102.5 -68.5 145.5
s-126.167 77.167 -241.5 102.5c-128 27.333 -220 63.5 -276 108.5s-84 108.833 -84 191.5c0 54 14.667 102.333 44 145s71.166 76.5 125.499 101.5s118.5 37.5 192.5 37.5c78.667 0 147.334 -12.333 206.001 -37s108.667 -58 150 -100l2 -212h-75l-8 168
c-32 33.333 -69.833 59 -113.5 77s-97.5 27 -161.5 27c-89.333 0 -157.5 -20.667 -204.5 -62s-70.5 -88.666 -70.5 -141.999c0 -35.333 7.66699 -66.5 23 -93.5s44 -51 86 -72s103.667 -40.833 185 -59.5c128 -28.667 222.667 -68.5 284 -119.5s92 -118.833 92 -203.5
c0 -86.667 -34.5 -157.334 -103.5 -212.001s-164.167 -82 -285.5 -82zM432 1320l181 240h102l2 -5l-215 -239h-66z" />
    <glyph glyph-name="Scircumflex" unicode="&#x15c;" horiz-adv-x="1188" 
d="M593 -21c-80.667 0 -162.833 12.4961 -246.5 37.4961s-164.834 64.167 -243.501 117.5v270h77l8 -227c65.333 -41.333 132.333 -71.666 201 -90.999s136.667 -29 204 -29c80.667 0 151.834 12.5 213.501 37.5s109.834 60 144.501 105s52 96.833 52 155.5
c0 58 -13.667 108.333 -41 151s-71.833 80.5 -133.5 113.5s-144.834 63.5 -249.501 91.5c-108 29.333 -195 61.833 -261 97.5s-114 78.334 -144 128.001s-45 109.834 -45 180.501c0 71.333 19 133.833 57 187.5s91.333 95.834 160 126.501s148.667 46 240 46
c95.333 0 181.166 -14.333 257.499 -43s142.166 -66.334 197.499 -113.001v-247h-77l-7 205c-47.333 38.667 -102.166 68.334 -164.499 89.001s-131.166 31 -206.499 31c-78 0 -144.667 -12.667 -200 -38s-97.5 -59.166 -126.5 -101.499s-43.5 -88.833 -43.5 -139.5
c0 -52 10.833 -97.667 32.5 -137s60.834 -74.333 117.501 -105s137 -59.667 241 -87c159.333 -42 279.833 -96.333 361.5 -163s122.5 -157 122.5 -271c0 -76.667 -21.5 -143.334 -64.5 -200.001s-101.833 -100.5 -176.5 -131.5s-160.334 -46.5 -257.001 -46.5zM330.001 1598
v19l224 213h78l227 -216v-16h-83l-184 177l-180 -177h-82z" />
    <glyph glyph-name="scircumflex" unicode="&#x15d;" horiz-adv-x="1012" 
d="M493 -21c-77.333 0 -148.833 11.5 -214.5 34.5s-123.834 55.167 -174.501 96.5l-1 208h76l9 -162c38.667 -35.333 84.334 -61 137.001 -77s108.667 -24 168 -24c95.333 0 169.5 21.5 222.5 64.5s79.5 93.167 79.5 150.5c0 54 -22.833 102.5 -68.5 145.5
s-126.167 77.167 -241.5 102.5c-128 27.333 -220 63.5 -276 108.5s-84 108.833 -84 191.5c0 54 14.667 102.333 44 145s71.166 76.5 125.499 101.5s118.5 37.5 192.5 37.5c78.667 0 147.334 -12.333 206.001 -37s108.667 -58 150 -100l2 -212h-75l-8 168
c-32 33.333 -69.833 59 -113.5 77s-97.5 27 -161.5 27c-89.333 0 -157.5 -20.667 -204.5 -62s-70.5 -88.666 -70.5 -141.999c0 -35.333 7.66699 -66.5 23 -93.5s44 -51 86 -72s103.667 -40.833 185 -59.5c128 -28.667 222.667 -68.5 284 -119.5s92 -118.833 92 -203.5
c0 -86.667 -34.5 -157.334 -103.5 -212.001s-164.167 -82 -285.5 -82zM242 1328v19l224 213h78l227 -216v-16h-83l-184 177l-180 -177h-82z" />
    <glyph glyph-name="Scedilla" unicode="&#x15e;" horiz-adv-x="1188" 
d="M593 -21c-80.667 0 -162.833 12.4961 -246.5 37.4961s-164.834 64.167 -243.501 117.5v270h77l8 -227c65.333 -41.333 132.333 -71.666 201 -90.999s136.667 -29 204 -29c80.667 0 151.834 12.5 213.501 37.5s109.834 60 144.501 105s52 96.833 52 155.5
c0 58 -13.667 108.333 -41 151s-71.833 80.5 -133.5 113.5s-144.834 63.5 -249.501 91.5c-108 29.333 -195 61.833 -261 97.5s-114 78.334 -144 128.001s-45 109.834 -45 180.501c0 71.333 19 133.833 57 187.5s91.333 95.834 160 126.501s148.667 46 240 46
c95.333 0 181.166 -14.333 257.499 -43s142.166 -66.334 197.499 -113.001v-247h-77l-7 205c-47.333 38.667 -102.166 68.334 -164.499 89.001s-131.166 31 -206.499 31c-78 0 -144.667 -12.667 -200 -38s-97.5 -59.166 -126.5 -101.499s-43.5 -88.833 -43.5 -139.5
c0 -52 10.833 -97.667 32.5 -137s60.834 -74.333 117.501 -105s137 -59.667 241 -87c159.333 -42 279.833 -96.333 361.5 -163s122.5 -157 122.5 -271c0 -76.667 -21.5 -143.334 -64.5 -200.001s-101.833 -100.5 -176.5 -131.5s-160.334 -46.5 -257.001 -46.5z
M482.001 -435.004l-7.00098 63c64.667 0 120 11 166 33s69 54.333 69 97c0 40 -14.5 67.833 -43.5 83.5s-80.5 26.5 -154.5 32.5l28 133h74l-13 -79c56.667 -5.33301 101.834 -20.833 135.501 -46.5s50.5 -66.5 50.5 -122.5c0 -59.333 -26.333 -106.5 -79 -141.5
s-128 -52.5 -226 -52.5z" />
    <glyph glyph-name="scedilla" unicode="&#x15f;" horiz-adv-x="1012" 
d="M493 -21c-77.333 0 -148.833 11.5 -214.5 34.5s-123.834 55.167 -174.501 96.5l-1 208h76l9 -162c38.667 -35.333 84.334 -61 137.001 -77s108.667 -24 168 -24c95.333 0 169.5 21.5 222.5 64.5s79.5 93.167 79.5 150.5c0 54 -22.833 102.5 -68.5 145.5
s-126.167 77.167 -241.5 102.5c-128 27.333 -220 63.5 -276 108.5s-84 108.833 -84 191.5c0 54 14.667 102.333 44 145s71.166 76.5 125.499 101.5s118.5 37.5 192.5 37.5c78.667 0 147.334 -12.333 206.001 -37s108.667 -58 150 -100l2 -212h-75l-8 168
c-32 33.333 -69.833 59 -113.5 77s-97.5 27 -161.5 27c-89.333 0 -157.5 -20.667 -204.5 -62s-70.5 -88.666 -70.5 -141.999c0 -35.333 7.66699 -66.5 23 -93.5s44 -51 86 -72s103.667 -40.833 185 -59.5c128 -28.667 222.667 -68.5 284 -119.5s92 -118.833 92 -203.5
c0 -86.667 -34.5 -157.334 -103.5 -212.001s-164.167 -82 -285.5 -82zM393 -435l-7.00098 63c64.667 0 120 11 166 33s69 54.333 69 97c0 40 -14.5 67.833 -43.5 83.5s-80.5 26.5 -154.5 32.5l28 133h74l-13 -79c56.667 -5.33301 101.834 -20.833 135.501 -46.5
s50.5 -66.5 50.5 -122.5c0 -59.333 -26.333 -106.5 -79 -141.5s-128 -52.5 -226 -52.5z" />
    <glyph glyph-name="Scaron" unicode="&#x160;" horiz-adv-x="1188" 
d="M593 -21c-80.667 0 -162.833 12.4961 -246.5 37.4961s-164.834 64.167 -243.501 117.5v270h77l8 -227c65.333 -41.333 132.333 -71.666 201 -90.999s136.667 -29 204 -29c80.667 0 151.834 12.5 213.501 37.5s109.834 60 144.501 105s52 96.833 52 155.5
c0 58 -13.667 108.333 -41 151s-71.833 80.5 -133.5 113.5s-144.834 63.5 -249.501 91.5c-108 29.333 -195 61.833 -261 97.5s-114 78.334 -144 128.001s-45 109.834 -45 180.501c0 71.333 19 133.833 57 187.5s91.333 95.834 160 126.501s148.667 46 240 46
c95.333 0 181.166 -14.333 257.499 -43s142.166 -66.334 197.499 -113.001v-247h-77l-7 205c-47.333 38.667 -102.166 68.334 -164.499 89.001s-131.166 31 -206.499 31c-78 0 -144.667 -12.667 -200 -38s-97.5 -59.166 -126.5 -101.499s-43.5 -88.833 -43.5 -139.5
c0 -52 10.833 -97.667 32.5 -137s60.834 -74.333 117.501 -105s137 -59.667 241 -87c159.333 -42 279.833 -96.333 361.5 -163s122.5 -157 122.5 -271c0 -76.667 -21.5 -143.334 -64.5 -200.001s-101.833 -100.5 -176.5 -131.5s-160.334 -46.5 -257.001 -46.5zM859.001 1830
v-19l-224 -213h-78l-227 216v16h83l184 -177l180 177h82z" />
    <glyph glyph-name="scaron" unicode="&#x161;" horiz-adv-x="1012" 
d="M493 -21c-77.333 0 -148.833 11.5 -214.5 34.5s-123.834 55.167 -174.501 96.5l-1 208h76l9 -162c38.667 -35.333 84.334 -61 137.001 -77s108.667 -24 168 -24c95.333 0 169.5 21.5 222.5 64.5s79.5 93.167 79.5 150.5c0 54 -22.833 102.5 -68.5 145.5
s-126.167 77.167 -241.5 102.5c-128 27.333 -220 63.5 -276 108.5s-84 108.833 -84 191.5c0 54 14.667 102.333 44 145s71.166 76.5 125.499 101.5s118.5 37.5 192.5 37.5c78.667 0 147.334 -12.333 206.001 -37s108.667 -58 150 -100l2 -212h-75l-8 168
c-32 33.333 -69.833 59 -113.5 77s-97.5 27 -161.5 27c-89.333 0 -157.5 -20.667 -204.5 -62s-70.5 -88.666 -70.5 -141.999c0 -35.333 7.66699 -66.5 23 -93.5s44 -51 86 -72s103.667 -40.833 185 -59.5c128 -28.667 222.667 -68.5 284 -119.5s92 -118.833 92 -203.5
c0 -86.667 -34.5 -157.334 -103.5 -212.001s-164.167 -82 -285.5 -82zM771 1560v-19l-224 -213h-78l-227 216v16h83l184 -177l180 177h82z" />
    <glyph glyph-name="uni0162" unicode="&#x162;" horiz-adv-x="1307" 
d="M445 0v71l163 6v1303h-442l-7 -230h-75v306h1136v-306h-75l-7 230h-443v-1303l163 -6v-71h-413zM541 -435l-7.00098 63c64.667 0 120 11 166 33s69 54.333 69 97c0 40 -14.5 67.833 -43.5 83.5s-80.5 26.5 -154.5 32.5l28 133h74l-13 -79
c56.667 -5.33301 101.834 -20.833 135.501 -46.5s50.5 -66.5 50.5 -122.5c0 -59.333 -26.333 -106.5 -79 -141.5s-128 -52.5 -226 -52.5z" />
    <glyph glyph-name="uni0163" unicode="&#x163;" horiz-adv-x="722" 
d="M480 -20c-74.667 0 -131.832 23.667 -171.499 71s-59.5 123.333 -59.5 228v727h-193v76h193v285h88v-285h258v-76h-258v-727c0 -80 13.833 -137.333 41.5 -172s64.5 -52 110.5 -52c22 0 42.667 1 62 3s42 4.66699 68 8l14 -68c-22 -6 -45.833 -10.5 -71.5 -13.5
s-52.834 -4.5 -81.501 -4.5zM338.002 -435l-7.00098 63c64.667 0 120 11 166 33s69 54.333 69 97c0 40 -14.5 67.833 -43.5 83.5s-80.5 26.5 -154.5 32.5l28 133h74l-13 -79c56.667 -5.33301 101.834 -20.833 135.501 -46.5s50.5 -66.5 50.5 -122.5
c0 -59.333 -26.333 -106.5 -79 -141.5s-128 -52.5 -226 -52.5z" />
    <glyph glyph-name="Tcaron" unicode="&#x164;" horiz-adv-x="1307" 
d="M445 0v71l163 6v1303h-442l-7 -230h-75v306h1136v-306h-75l-7 230h-443v-1303l163 -6v-71h-413zM918 1830v-19l-224 -213h-78l-227 216v16h83l184 -177l180 177h82z" />
    <glyph glyph-name="tcaron" unicode="&#x165;" horiz-adv-x="722" 
d="M480 -20c-74.667 0 -131.832 23.667 -171.499 71s-59.5 123.333 -59.5 228v727h-193v76h193v285h88v-285h258v-76h-258v-727c0 -80 13.833 -137.333 41.5 -172s64.5 -52 110.5 -52c22 0 42.667 1 62 3s42 4.66699 68 8l14 -68c-22 -6 -45.833 -10.5 -71.5 -13.5
s-52.834 -4.5 -81.501 -4.5zM554.002 1260l-48 42c22 30 38 59 48 87s15 61.333 15 100v71h83v-69c0 -48 -8.33301 -91 -25 -129s-41 -72 -73 -102z" />
    <glyph glyph-name="Tbar" unicode="&#x166;" horiz-adv-x="1307" 
d="M445 0v71l163 6v1303h-442l-7 -230h-75v306h1136v-306h-75l-7 230h-443v-1303l163 -6v-71h-413zM383 695v77h540v-77h-540z" />
    <glyph glyph-name="tbar" unicode="&#x167;" horiz-adv-x="722" 
d="M480 -20c-74.667 0 -131.832 23.667 -171.499 71s-59.5 123.333 -59.5 228v727h-193v76h193v285h88v-285h258v-76h-258v-727c0 -80 13.833 -137.333 41.5 -172s64.5 -52 110.5 -52c22 0 42.667 1 62 3s42 4.66699 68 8l14 -68c-22 -6 -45.833 -10.5 -71.5 -13.5
s-52.834 -4.5 -81.501 -4.5zM55.002 625v77h540v-77h-540z" />
    <glyph glyph-name="Utilde" unicode="&#x168;" horiz-adv-x="1460" 
d="M729 -21c-99.333 0 -186.833 19.001 -262.5 57.001s-134.834 93.5 -177.501 166.5s-64 161.833 -64 266.5v910l-163 6v71h413v-71l-163 -6v-910c0 -87.333 17.667 -161.666 53 -222.999s84.333 -108.166 147 -140.499s135.334 -48.5 218.001 -48.5
c81.333 0 153.5 16.167 216.5 48.5s112.167 79.166 147.5 140.499s53 135.666 53 222.999v910l-163 6v71h413v-71l-163 -6v-910c0 -106 -21.167 -195.333 -63.5 -268s-101.5 -127.834 -177.5 -165.501s-164 -56.5 -264 -56.5zM469 1627l-65 5c0 38 8 71.333 24 100
s37.167 51.5 63.5 68.5s55.5 25.5 87.5 25.5c36.667 0 72.834 -9.83301 108.501 -29.5l103 -59.5c33 -20 63.5 -30 91.5 -30c27.333 0 52.166 11.333 74.499 34s33.5 53.334 33.5 92.001l65 -6c0 -37.333 -7.66699 -70.833 -23 -100.5s-36 -52.834 -62 -69.501
s-54.667 -25 -86 -25c-36.667 0 -72.834 10 -108.501 30l-103.5 60c-33.333 20 -64.666 30 -93.999 30c-28.667 0 -54 -11 -76 -33s-33 -52.667 -33 -92z" />
    <glyph glyph-name="utilde" unicode="&#x169;" horiz-adv-x="1212" 
d="M537 -21c-111.333 0 -198.001 39 -260.001 117s-93 199.333 -93 364v545l-138 6v71h138h87v-624c0 -139.333 23.833 -241 71.5 -305s114.5 -96 200.5 -96c102.667 0 181.167 24.667 235.5 74s90.833 115 109.5 197v677l-159 6v71h159h87v-1005l154 -6v-71h-229l-9 186
c-34 -66 -80.167 -117 -138.5 -153s-130.166 -54 -215.499 -54zM340.999 1357l-65 5c0 38 8 71.333 24 100s37.167 51.5 63.5 68.5s55.5 25.5 87.5 25.5c36.667 0 72.834 -9.83301 108.501 -29.5l103 -59.5c33 -20 63.5 -30 91.5 -30c27.333 0 52.166 11.333 74.499 34
s33.5 53.334 33.5 92.001l65 -6c0 -37.333 -7.66699 -70.833 -23 -100.5s-36 -52.834 -62 -69.501s-54.667 -25 -86 -25c-36.667 0 -72.834 10 -108.501 30l-103.5 60c-33.333 20 -64.666 30 -93.999 30c-28.667 0 -54 -11 -76 -33s-33 -52.667 -33 -92z" />
    <glyph glyph-name="Umacron" unicode="&#x16a;" horiz-adv-x="1460" 
d="M729 -21c-99.333 0 -186.833 19.001 -262.5 57.001s-134.834 93.5 -177.501 166.5s-64 161.833 -64 266.5v910l-163 6v71h413v-71l-163 -6v-910c0 -87.333 17.667 -161.666 53 -222.999s84.333 -108.166 147 -140.499s135.334 -48.5 218.001 -48.5
c81.333 0 153.5 16.167 216.5 48.5s112.167 79.166 147.5 140.499s53 135.666 53 222.999v910l-163 6v71h413v-71l-163 -6v-910c0 -106 -21.167 -195.333 -63.5 -268s-101.5 -127.834 -177.5 -165.501s-164 -56.5 -264 -56.5zM405 1674v74h649v-74h-649z" />
    <glyph glyph-name="umacron" unicode="&#x16b;" horiz-adv-x="1212" 
d="M537 -21c-111.333 0 -198.001 39 -260.001 117s-93 199.333 -93 364v545l-138 6v71h138h87v-624c0 -139.333 23.833 -241 71.5 -305s114.5 -96 200.5 -96c102.667 0 181.167 24.667 235.5 74s90.833 115 109.5 197v677l-159 6v71h159h87v-1005l154 -6v-71h-229l-9 186
c-34 -66 -80.167 -117 -138.5 -153s-130.166 -54 -215.499 -54zM276.999 1404v74h649v-74h-649z" />
    <glyph glyph-name="Ubreve" unicode="&#x16c;" horiz-adv-x="1460" 
d="M729 -21c-99.333 0 -186.833 19.001 -262.5 57.001s-134.834 93.5 -177.501 166.5s-64 161.833 -64 266.5v910l-163 6v71h413v-71l-163 -6v-910c0 -87.333 17.667 -161.666 53 -222.999s84.333 -108.166 147 -140.499s135.334 -48.5 218.001 -48.5
c81.333 0 153.5 16.167 216.5 48.5s112.167 79.166 147.5 140.499s53 135.666 53 222.999v910l-163 6v71h413v-71l-163 -6v-910c0 -106 -21.167 -195.333 -63.5 -268s-101.5 -127.834 -177.5 -165.501s-164 -56.5 -264 -56.5zM731 1577c-88 0 -157.333 23 -208 69
s-75.667 105.333 -75 178l2 6h75c0 -54 16.5 -97.833 49.5 -131.5s85.167 -50.5 156.5 -50.5c68.667 0 120.167 17 154.5 51s51.5 77.667 51.5 131h75l2 -6c0 -72.667 -25.167 -132 -75.5 -178s-119.5 -69 -207.5 -69z" />
    <glyph glyph-name="ubreve" unicode="&#x16d;" horiz-adv-x="1212" 
d="M537 -21c-111.333 0 -198.001 39 -260.001 117s-93 199.333 -93 364v545l-138 6v71h138h87v-624c0 -139.333 23.833 -241 71.5 -305s114.5 -96 200.5 -96c102.667 0 181.167 24.667 235.5 74s90.833 115 109.5 197v677l-159 6v71h159h87v-1005l154 -6v-71h-229l-9 186
c-34 -66 -80.167 -117 -138.5 -153s-130.166 -54 -215.499 -54zM602.999 1307c-88 0 -157.333 23 -208 69s-75.667 105.333 -75 178l2 6h75c0 -54 16.5 -97.833 49.5 -131.5s85.167 -50.5 156.5 -50.5c68.667 0 120.167 17 154.5 51s51.5 77.667 51.5 131h75l2 -6
c0 -72.667 -25.167 -132 -75.5 -178s-119.5 -69 -207.5 -69z" />
    <glyph glyph-name="Uring" unicode="&#x16e;" horiz-adv-x="1460" 
d="M729 -21c-99.333 0 -186.833 19.001 -262.5 57.001s-134.834 93.5 -177.501 166.5s-64 161.833 -64 266.5v910l-163 6v71h413v-71l-163 -6v-910c0 -87.333 17.667 -161.666 53 -222.999s84.333 -108.166 147 -140.499s135.334 -48.5 218.001 -48.5
c81.333 0 153.5 16.167 216.5 48.5s112.167 79.166 147.5 140.499s53 135.666 53 222.999v910l-163 6v71h413v-71l-163 -6v-910c0 -106 -21.167 -195.333 -63.5 -268s-101.5 -127.834 -177.5 -165.501s-164 -56.5 -264 -56.5zM731 1485
c-50.667 0 -93.334 16.667 -128.001 50s-52 75.333 -52 126s17.333 93.167 52 127.5s77.334 51.5 128.001 51.5c49.333 0 91.333 -17.167 126 -51.5s52 -76.833 52 -127.5s-17.333 -92.667 -52 -126s-76.667 -50 -126 -50zM731 1547c32 0 58.833 10.499 80.5 31.499
s32.5 48.5 32.5 82.5s-10.833 62 -32.5 84s-48.5 33 -80.5 33c-33.333 0 -60.833 -11 -82.5 -33s-32.5 -50 -32.5 -84c0 -33.333 10.833 -60.666 32.5 -81.999s49.167 -32 82.5 -32z" />
    <glyph glyph-name="uring" unicode="&#x16f;" horiz-adv-x="1212" 
d="M537 -21c-111.333 0 -198.001 39 -260.001 117s-93 199.333 -93 364v545l-138 6v71h138h87v-624c0 -139.333 23.833 -241 71.5 -305s114.5 -96 200.5 -96c102.667 0 181.167 24.667 235.5 74s90.833 115 109.5 197v677l-159 6v71h159h87v-1005l154 -6v-71h-229l-9 186
c-34 -66 -80.167 -117 -138.5 -153s-130.166 -54 -215.499 -54zM602.999 1215c-50.667 0 -93.334 16.667 -128.001 50s-52 75.333 -52 126s17.333 93.167 52 127.5s77.334 51.5 128.001 51.5c49.333 0 91.333 -17.167 126 -51.5s52 -76.833 52 -127.5
s-17.333 -92.667 -52 -126s-76.667 -50 -126 -50zM602.999 1277c32 0 58.833 10.499 80.5 31.499s32.5 48.5 32.5 82.5s-10.833 62 -32.5 84s-48.5 33 -80.5 33c-33.333 0 -60.833 -11 -82.5 -33s-32.5 -50 -32.5 -84c0 -33.333 10.833 -60.666 32.5 -81.999
s49.167 -32 82.5 -32z" />
    <glyph glyph-name="Uhungarumlaut" unicode="&#x170;" horiz-adv-x="1460" 
d="M729 -21c-99.333 0 -186.833 19.001 -262.5 57.001s-134.834 93.5 -177.501 166.5s-64 161.833 -64 266.5v910l-163 6v71h413v-71l-163 -6v-910c0 -87.333 17.667 -161.666 53 -222.999s84.333 -108.166 147 -140.499s135.334 -48.5 218.001 -48.5
c81.333 0 153.5 16.167 216.5 48.5s112.167 79.166 147.5 140.499s53 135.666 53 222.999v910l-163 6v71h413v-71l-163 -6v-910c0 -106 -21.167 -195.333 -63.5 -268s-101.5 -127.834 -177.5 -165.501s-164 -56.5 -264 -56.5zM754 1586l-2 5l220 239h105l2 -6l-246 -238h-79
zM512 1588l-3 4l180 238h98l3 -6l-206 -236h-72z" />
    <glyph glyph-name="uhungarumlaut" unicode="&#x171;" horiz-adv-x="1212" 
d="M537 -21c-111.333 0 -198.001 39 -260.001 117s-93 199.333 -93 364v545l-138 6v71h138h87v-624c0 -139.333 23.833 -241 71.5 -305s114.5 -96 200.5 -96c102.667 0 181.167 24.667 235.5 74s90.833 115 109.5 197v677l-159 6v71h159h87v-1005l154 -6v-71h-229l-9 186
c-34 -66 -80.167 -117 -138.5 -153s-130.166 -54 -215.499 -54zM625.999 1316l-2 5l220 239h105l2 -6l-246 -238h-79zM383.999 1318l-3 4l180 238h98l3 -6l-206 -236h-72z" />
    <glyph glyph-name="Uogonek" unicode="&#x172;" horiz-adv-x="1460" 
d="M729 -21c-99.333 0 -186.833 19.001 -262.5 57.001s-134.834 93.5 -177.501 166.5s-64 161.833 -64 266.5v910l-163 6v71h413v-71l-163 -6v-910c0 -87.333 17.667 -161.666 53 -222.999s84.333 -108.166 147 -140.499s135.334 -48.5 218.001 -48.5
c81.333 0 153.5 16.167 216.5 48.5s112.167 79.166 147.5 140.499s53 135.666 53 222.999v910l-163 6v71h413v-71l-163 -6v-910c0 -106 -21.167 -195.333 -63.5 -268s-101.5 -127.834 -177.5 -165.501s-164 -56.5 -264 -56.5zM772 -424.999
c-54 0 -97.832 15.834 -131.499 47.501s-50.5 76.167 -50.5 133.5c0 46 14.833 90.5 44.5 133.5s79.167 89.5 148.5 139.5l56 -29c-56.667 -48.667 -98.834 -90.334 -126.501 -125.001s-41.5 -72.667 -41.5 -114c0 -25.333 7.33301 -50.333 22 -75s44 -37 88 -37
c20 0 38.167 3.33301 54.5 10s32.833 15 49.5 25l20 -65c-18 -12 -37.833 -22.333 -59.5 -31s-46.167 -13 -73.5 -13z" />
    <glyph glyph-name="uogonek" unicode="&#x173;" horiz-adv-x="1212" 
d="M537 -21c-111.333 0 -198.001 39 -260.001 117s-93 199.333 -93 364v545l-138 6v71h138h87v-624c0 -139.333 23.833 -241 71.5 -305s114.5 -96 200.5 -96c102.667 0 181.167 24.667 235.5 74s90.833 115 109.5 197v677l-159 6v71h159h87v-1005l154 -6v-71h-229l-9 186
c-34 -66 -80.167 -117 -138.5 -153s-130.166 -54 -215.499 -54zM1062 -425c-54 0 -97.832 15.834 -131.499 47.501s-50.5 76.167 -50.5 133.5c0 46 14.833 90.5 44.5 133.5s79.167 89.5 148.5 139.5l56 -29c-56.667 -48.667 -98.834 -90.334 -126.501 -125.001
s-41.5 -72.667 -41.5 -114c0 -25.333 7.33301 -50.333 22 -75s44 -37 88 -37c20 0 38.167 3.33301 54.5 10s32.833 15 49.5 25l20 -65c-18 -12 -37.833 -22.333 -59.5 -31s-46.167 -13 -73.5 -13z" />
    <glyph glyph-name="Wcircumflex" unicode="&#x174;" horiz-adv-x="2030" 
d="M521 0l-354 1382l-107 3v71h356v-71l-158 -5l250 -1010l59 -219h6l62 219l347 1086h87l346 -1086l61 -222h6l62 222l248 1010l-160 5v71h353v-71l-105 -3l-350 -1382h-90l-366 1166l-46 146h-6l-45 -146l-368 -1166h-88zM760 1598v19l224 213h78l227 -216v-16h-83
l-184 177l-180 -177h-82z" />
    <glyph glyph-name="wcircumflex" unicode="&#x175;" horiz-adv-x="1795" 
d="M484 0l-310 1008l-122 3v71h359v-71l-145 -5l201 -674l58 -200l6 -1l64 201l252 750h81l254 -750l69 -206h6l63 206l201 674l-146 5v71h357v-71l-122 -4l-310 -1007h-85l-268 775l-57 180h-6l-54 -180l-265 -775h-81zM633 1328v19l224 213h78l227 -216v-16h-83l-184 177
l-180 -177h-82z" />
    <glyph glyph-name="Ycircumflex" unicode="&#x176;" horiz-adv-x="1436" 
d="M513 0v71l163 6v471l-499 833l-120 4v71h367v-71l-147 -4l417 -713l25 -47l1 2l24 45l422 713l-148 4v71h364v-71l-121 -4l-497 -830v-474l163 -6v-71h-414zM454 1598v19l224 213h78l227 -216v-16h-83l-184 177l-180 -177h-82z" />
    <glyph glyph-name="ycircumflex" unicode="&#x177;" horiz-adv-x="1187" 
d="M289 -437c-13.333 0 -28.668 1.33203 -46.001 3.99902s-30.333 5.33398 -39 8.00098l11 75c8 -2 20 -3.83301 36 -5.5s28 -2.5 36 -2.5c56.667 0 101.334 17.5 134.001 52.5s61.667 86.167 87 153.5l61 162l-404 997l-117 4v71h350v-71l-139 -4l306 -765l42 -116h6
l334 881l-141 4v71h349v-71l-117 -4l-452 -1184c-19.333 -50.667 -41.166 -95.667 -65.499 -135s-54.833 -70 -91.5 -92s-83.334 -33 -140.001 -33zM328.998 1328v19l224 213h78l227 -216v-16h-83l-184 177l-180 -177h-82z" />
    <glyph glyph-name="Ydieresis" unicode="&#x178;" horiz-adv-x="1436" 
d="M513 0v71l163 6v471l-499 833l-120 4v71h367v-71l-147 -4l417 -713l25 -47l1 2l24 45l422 713l-148 4v71h364v-71l-121 -4l-497 -830v-474l163 -6v-71h-414zM838 1675v155h103v-155h-103zM494 1675v155h104v-155h-104z" />
    <glyph glyph-name="Zacute" unicode="&#x179;" horiz-adv-x="1215" 
d="M92 0v68l889 1312h-773l-4 -228h-78v304h965v-63l-891 -1316h841l4 231h78v-308h-1031zM530 1590l181 240h102l2 -5l-215 -239h-66z" />
    <glyph glyph-name="zacute" unicode="&#x17a;" horiz-adv-x="1067" 
d="M113 0v66l682 939h-597l-6 -225h-76v302h792v-68l-684 -938h657l6 226h75v-302h-849zM460 1320l181 240h102l2 -5l-215 -239h-66z" />
    <glyph glyph-name="Zdotaccent" unicode="&#x17b;" horiz-adv-x="1215" 
d="M92 0v68l889 1312h-773l-4 -228h-78v304h965v-63l-891 -1316h841l4 231h78v-308h-1031zM552 1674v156h103v-156h-103z" />
    <glyph glyph-name="zdotaccent" unicode="&#x17c;" horiz-adv-x="1067" 
d="M113 0v66l682 939h-597l-6 -225h-76v302h792v-68l-684 -938h657l6 226h75v-302h-849zM481 1404v156h103v-156h-103z" />
    <glyph glyph-name="Zcaron" unicode="&#x17d;" horiz-adv-x="1215" 
d="M92 0v68l889 1312h-773l-4 -228h-78v304h965v-63l-891 -1316h841l4 231h78v-308h-1031zM869 1830v-19l-224 -213h-78l-227 216v16h83l184 -177l180 177h82z" />
    <glyph glyph-name="zcaron" unicode="&#x17e;" horiz-adv-x="1067" 
d="M113 0v66l682 939h-597l-6 -225h-76v302h792v-68l-684 -938h657l6 226h75v-302h-849zM798 1560v-19l-224 -213h-78l-227 216v16h83l184 -177l180 177h82z" />
    <glyph glyph-name="longs" unicode="&#x17f;" horiz-adv-x="707" 
d="M57 0v71.001l163 6v1174c0 105.333 26 186.666 78 243.999s124.667 86 218 86c22.667 0 45 -1.5 67 -4.5s43.667 -7.5 65 -13.5l-12 -73c-18 4.66699 -35.333 8.16699 -52 10.5s-36.667 3.5 -60 3.5c-68.667 0 -122 -22.333 -160 -67s-57 -106.667 -57 -186v-1174l163 -6
v-71h-413z" />
    <glyph glyph-name="uni018F" unicode="&#x18f;" horiz-adv-x="1391" 
d="M681 -21c-124 0 -231.165 25.1689 -321.498 75.502s-159.833 122.166 -208.5 215.499s-73 203.666 -73 330.999v120h1091v108c0 112.667 -19.333 211.834 -58 297.501s-97 152.667 -175 201s-175.333 72.5 -292 72.5c-90 0 -170.667 -12.333 -242 -37
s-134.666 -58.334 -189.999 -101.001l-35 65c53.333 44 116.166 80 188.499 108s165.166 42 278.499 42c128.667 0 238.667 -27.167 330 -81.5s161.166 -130 209.499 -227s72.5 -210.167 72.5 -339.5v-170c0 -132.667 -25 -250.167 -75 -352.5
s-118.167 -182.5 -204.5 -240.5s-184.833 -87 -295.5 -87zM681.002 56.002c98.667 0 184 25.667 256 77s128 121.166 168 209.499s60 188.5 60 300.5l-1 4h-999v-63c0 -102.667 20.167 -193.667 60.5 -273s99 -141.666 176 -186.999s170.167 -68 279.5 -68z" />
    <glyph glyph-name="florin" unicode="&#x192;" horiz-adv-x="777" 
d="M109 -437c-20 0 -38.6641 1.66504 -55.9971 4.99805s-36 8.33301 -56 15l13 74c11.333 -4 26.666 -7.83301 45.999 -11.5s37 -5.5 53 -5.5c65.333 0 116.166 23.667 152.499 71s54.5 114 54.5 200v1095h-184v76h184v169c0 104.667 26 185.834 78 243.501
s125 86.5 219 86.5c22 0 44 -1.5 66 -4.5s44 -7.5 66 -13.5l-12 -75c-19.333 5.33301 -37.166 9 -53.499 11s-36.5 3 -60.5 3c-68.667 0 -121.834 -22.167 -159.501 -66.5s-56.5 -105.833 -56.5 -184.5v-169h265v-76h-265v-1095c0 -111.333 -25.833 -197.166 -77.5 -257.499
s-123.834 -90.5 -216.501 -90.5z" />
    <glyph glyph-name="Ohorn" unicode="&#x1a0;" horiz-adv-x="1456" 
d="M725 -21c-91.333 0 -174.335 17.667 -249.002 53s-138.834 85.5 -192.501 150.5s-95 142.833 -124 233.5s-43.5 191.667 -43.5 303v18c0 111.333 14.333 212.333 43 303s69.834 168.5 123.501 233.5s117.667 115.167 192 150.5s157.166 53 248.499 53
c92.667 0 176.334 -17.667 251.001 -53s138.834 -85.5 192.501 -150.5s94.834 -142.833 123.501 -233.5s43 -191.667 43 -303v-18c0 -111.333 -14.333 -212.5 -43 -303.5s-69.5 -168.833 -122.5 -233.5s-117 -114.667 -192 -150s-158.5 -53 -250.5 -53zM724.998 58
c108.667 0 201.833 27.333 279.5 82s137.167 131.667 178.5 231s62 215.333 62 348v20c0 132 -20.833 247.333 -62.5 346s-101.5 175.334 -179.5 230.001s-171.333 82 -280 82c-106 0 -197.833 -27.333 -275.5 -82s-137.667 -131.334 -180 -230.001s-63.5 -214 -63.5 -346
v-20c0 -132.667 21.167 -248.5 63.5 -347.5s102.5 -176 180.5 -231s170.333 -82.5 277 -82.5zM1120 1213v72c84 0 143 23.667 177 71s50.667 113 50 197h83c0 -68 -10.333 -127.5 -31 -178.5s-53.667 -90.667 -99 -119s-105.333 -42.5 -180 -42.5z" />
    <glyph glyph-name="ohorn" unicode="&#x1a1;" horiz-adv-x="1163" 
d="M575 -21c-95.333 0 -178.666 23.167 -249.999 69.5s-127 110.333 -167 192s-60 175.5 -60 281.5v37c0 106.667 20 200.667 60 282s95.5 145.166 166.5 191.499s153.833 69.5 248.5 69.5c95.333 0 178.666 -23.167 249.999 -69.5s127 -110.166 167 -191.499
s60 -175.333 60 -282v-37c0 -106 -20 -200 -60 -282s-95.5 -146 -166.5 -192s-153.833 -69 -248.5 -69zM575 56c80 0 148.999 20.8311 206.999 62.498s102.667 97.667 134 168s47 148.833 47 235.5v37c0 86 -15.833 164.167 -47.5 234.5s-76.667 126.5 -135 168.5
s-127.5 63 -207.5 63c-79.333 0 -148.166 -21 -206.499 -63s-103.166 -98.167 -134.499 -168.5s-47 -148.5 -47 -234.5v-37c0 -87.333 15.667 -166.166 47 -236.499s76.166 -126.166 134.499 -167.499s127.833 -62 208.5 -62zM881.999 885.998v67.9971
c54.667 0 97 8.5 127 25.5s51 43.333 63 79s18 81.834 18 138.501h79c0 -68.667 -9.5 -126.167 -28.5 -172.5s-49.333 -81.166 -91 -104.499s-97.5 -34.666 -167.5 -33.999z" />
    <glyph glyph-name="Uhorn" unicode="&#x1af;" horiz-adv-x="1582" 
d="M733 -21c-101.333 0 -189.998 18.834 -265.998 56.501s-135.333 93 -178 166s-64 162.167 -64 267.5v910l-163 6v71h414v-71l-163 -6v-910c0 -87.333 17.667 -161.666 53 -222.999s84.666 -108.333 147.999 -141s136.333 -49 219 -49c83.333 0 156.833 16.333 220.5 49
s113.5 79.667 149.5 141s54 135.666 54 222.999v910l-163 6v71h250v-987c0 -106 -21.667 -195.333 -65 -268s-103.333 -127.834 -180 -165.501s-165.334 -56.5 -266.001 -56.5zM1218 1172l5 83.0029c92.667 -2.66699 156.667 20.166 192 68.499s53 124.166 53 227.499h79v-5
c2 -122.667 -22.833 -215.334 -74.5 -278.001s-136.5 -94.667 -254.5 -96z" />
    <glyph glyph-name="uhorn" unicode="&#x1b0;" horiz-adv-x="1239" 
d="M537 -21c-111.333 0 -198.001 39 -260.001 117s-93 199.333 -93 364v545l-138 6v71h138h87v-624c0 -139.333 23.833 -241 71.5 -305s114.5 -96 200.5 -96c102.667 0 181.167 24.667 235.5 74s90.833 115 109.5 197v677l-159 6v71h159h87v-1005l154 -6v-71h-229l-9 186
c-34 -66 -80.167 -117 -138.5 -153s-130.166 -54 -215.499 -54zM948.999 886v67.9971c54.667 0 97 8.5 127 25.5s51 43.333 63 79s18 81.834 18 138.501h79c0 -68.667 -9.5 -126.167 -28.5 -172.5s-49.333 -81.166 -91 -104.499s-97.5 -34.666 -167.5 -33.999z" />
    <glyph glyph-name="uni01F0" unicode="&#x1f0;" horiz-adv-x="554" 
d="M96 -437c-20 0 -38.6641 1.66602 -55.9971 4.99902s-36 8.33301 -56 15l13 74c11.333 -4 26.666 -7.83301 45.999 -11.5s37 -5.5 53 -5.5c65.333 0 116.166 23.667 152.499 71s54.5 114 54.5 200v1094l-163 6v71h250v-1171c0 -111.333 -25.833 -197.166 -77.5 -257.499
s-123.834 -90.5 -216.501 -90.5zM599.003 1560v-19l-224 -213h-78l-227 216v16h83l184 -177l180 177h82z" />
    <glyph glyph-name="Aringacute" unicode="&#x1fa;" horiz-adv-x="1486" 
d="M58 0v71l108 3l520 1382h90l519 -1382l107 -3v-71h-334v71l135 4l-132 355h-682l-132 -355l135 -4v-71h-334zM419 510h623l-284 767l-24 71h-6l-24 -71zM731 1396c-47.333 0 -87.666 15.667 -120.999 47s-50 71 -50 119s16.667 88.5 50 121.5s73.666 49.5 120.999 49.5
c46.667 0 86.667 -16.5 120 -49.5s50 -73.5 50 -121.5s-16.667 -87.667 -50 -119s-73.333 -47 -120 -47zM731 1458c30 0 54.833 9.66699 74.5 29s29.5 44.333 29.5 75c0 32 -9.83301 58 -29.5 78s-44.5 30 -74.5 30s-55.167 -10 -75.5 -30s-30.5 -46 -30.5 -78
c0 -30 10.167 -54.833 30.5 -74.5s45.5 -29.5 75.5 -29.5zM677 1792l135 218h94l2 -5l-165 -217h-63z" />
    <glyph glyph-name="aringacute" unicode="&#x1fb;" horiz-adv-x="1120" 
d="M419 -21c-99.333 0 -177.667 27.168 -235 81.501s-86 127.166 -86 218.499c0 65.333 19.333 123 58 173s93.667 89 165 117s155.333 42 252 42h236v131c0 84 -24.667 152.167 -74 204.5s-125 78.5 -227 78.5c-55.333 0 -105.666 -9.66699 -150.999 -29
s-84.333 -43.333 -117 -72l-4 -171h-77v216c45.333 40.667 96.666 73 153.999 97s122.666 36 195.999 36c126.667 0 222.834 -32.167 288.501 -96.5s98.5 -152.833 98.5 -265.5v-522c0 -24.667 0.833008 -49 2.5 -73s4.83398 -48 9.50098 -72l140 -2v-71h-217
c-8 43.333 -13.667 77.333 -17 102s-5 53 -5 85c-40 -61.333 -93.833 -111.333 -161.5 -150s-143.834 -58 -228.501 -58zM424.999 58.001c78.667 0 153.668 21.332 225.001 63.999s124.333 100.334 159 173.001v243h-236c-118.667 0 -213 -25 -283 -75
s-105 -112.667 -105 -188c0 -62.667 22.167 -114.5 66.5 -155.5s102.166 -61.5 173.499 -61.5zM519 1069c-50 0 -92.167 16.5 -126.5 49.5s-51.5 74.833 -51.5 125.5s17.167 93 51.5 127s76.5 51 126.5 51c49.333 0 91.333 -17 126 -51s52 -76.333 52 -127
s-17.333 -92.5 -52 -125.5s-76.667 -49.5 -126 -49.5zM519 1132c32.667 0 59.667 10.333 81 31s32 47.667 32 81s-10.667 61 -32 83s-48.333 33 -81 33s-59.667 -11 -81 -33s-32 -49.667 -32 -83s10.833 -60.333 32.5 -81s48.5 -31 80.5 -31zM465 1504l136 218h93l2 -5
l-165 -217h-62z" />
    <glyph glyph-name="AEacute" unicode="&#x1fc;" horiz-adv-x="2042" 
d="M51 0v71l124 4l836 1381h820v-300h-80l-4 223h-611l25 -582h588v-77h-585l27 -643h618l3 222h80v-299h-948v71l160 6l-14 331h-611l-200 -334l120 -3v-71h-348zM527 490h560l-37 874l-5 2l-46 -84zM1037 1590l181 240h102l2 -5l-215 -239h-66z" />
    <glyph glyph-name="aeacute" unicode="&#x1fd;" horiz-adv-x="1782" 
d="M421 -21c-99.333 0 -178 28.5 -236 85.5s-87 132.5 -87 226.5c0 68 19.5 127.833 58.5 179.5s94 91.834 165 120.501s154.833 43 251.5 43h236v108c0 84 -24.5 152.167 -73.5 204.5s-124.833 78.5 -227.5 78.5c-55.333 0 -105.666 -9.66699 -150.999 -29
s-84 -43.333 -116 -72l-5 -171h-77v216c46 40.667 97.5 73 154.5 97s122.5 36 196.5 36c102.667 0 184.5 -21.833 245.5 -65.5s100.167 -104.5 117.5 -182.5c20.667 49.333 50.167 92.5 88.5 129.5s82.666 66 132.999 87s102.833 31.5 157.5 31.5
c86.667 0 160.834 -18.167 222.501 -54.5s109 -88.333 142 -156s49.5 -148.5 49.5 -242.5v-91h-770v-60c0 -131.333 31.5 -237.833 94.5 -319.5s157.5 -122.5 283.5 -122.5c68.667 0 129.667 11 183 33s101.666 52.667 144.999 92l39 -64
c-42 -40.667 -91.667 -73.834 -149 -99.501s-130 -38.5 -218 -38.5c-190 0 -327.667 85.333 -413 256c-46.667 -78 -107.667 -140.167 -183 -186.5s-161 -69.5 -257 -69.5zM426 58c53.333 0 105.834 10.501 157.501 31.501s98.667 50.833 141 89.5s75.166 84.667 98.499 138
c-4.66699 31.333 -8.16699 62.166 -10.5 92.499s-3.5 61.166 -3.5 92.499v58h-235c-119.333 0 -214 -25.667 -284 -77s-105 -116.666 -105 -195.999c0 -64.667 22.167 -119 66.5 -163s102.5 -66 174.5 -66zM898.001 634.001h681.001v32c0 104.667 -28.167 190.667 -84.5 258
s-137.166 101 -242.499 101c-66.667 0 -125.834 -16.667 -177.501 -50s-92.834 -79 -123.501 -137s-49 -124.333 -55 -199zM822.002 1320l181 240h102l2 -5l-215 -239h-66z" />
    <glyph glyph-name="Oslashacute" unicode="&#x1fe;" horiz-adv-x="1456" 
d="M725 -21c-91.333 0 -174.335 17.667 -249.002 53s-138.834 85.5 -192.501 150.5s-95 142.833 -124 233.5s-43.5 191.667 -43.5 303v18c0 111.333 14.333 212.333 43 303s69.834 168.5 123.501 233.5s117.667 115.167 192 150.5s157.166 53 248.499 53
c92.667 0 176.334 -17.667 251.001 -53s138.834 -85.5 192.501 -150.5s94.834 -142.833 123.501 -233.5s43 -191.667 43 -303v-18c0 -111.333 -14.333 -212.5 -43 -303.5s-69.5 -168.833 -122.5 -233.5s-117 -114.667 -192 -150s-158.5 -53 -250.5 -53zM724.998 58
c108.667 0 201.833 27.333 279.5 82s137.167 131.667 178.5 231s62 215.333 62 348v20c0 132 -20.833 247.333 -62.5 346s-101.5 175.334 -179.5 230.001s-171.333 82 -280 82c-106 0 -197.833 -27.333 -275.5 -82s-137.667 -131.334 -180 -230.001s-63.5 -214 -63.5 -346
v-20c0 -132.667 21.167 -248.5 63.5 -347.5s102.5 -176 180.5 -231s170.333 -82.5 277 -82.5zM190.997 -65l988 1579h85l-988 -1579h-85zM649.997 1590l181 240h102l2 -5l-215 -239h-66z" />
    <glyph glyph-name="oslashacute" unicode="&#x1ff;" horiz-adv-x="1148" 
d="M575 -21c-95.333 0 -178.666 23.167 -249.999 69.5s-127 110.333 -167 192s-60 175.5 -60 281.5v37c0 106.667 20 200.667 60 282s95.5 145.166 166.5 191.499s153.833 69.5 248.5 69.5c95.333 0 178.666 -23.167 249.999 -69.5s127 -110.166 167 -191.499
s60 -175.333 60 -282v-37c0 -106 -20 -200 -60 -282s-95.5 -146 -166.5 -192s-153.833 -69 -248.5 -69zM575 56c80 0 148.999 20.8311 206.999 62.498s102.667 97.667 134 168s47 148.833 47 235.5v37c0 86 -15.833 164.167 -47.5 234.5s-76.667 126.5 -135 168.5
s-127.5 63 -207.5 63c-79.333 0 -148.166 -21 -206.499 -63s-103.166 -98.167 -134.499 -168.5s-47 -148.5 -47 -234.5v-37c0 -87.333 15.667 -166.166 47 -236.499s76.166 -126.166 134.499 -167.499s127.833 -62 208.5 -62zM179.999 -139.002l709 1360h79l-710 -1360h-78z
M499.999 1320l181 240h102l2 -5l-215 -239h-66z" />
    <glyph glyph-name="uni0218" unicode="&#x218;" horiz-adv-x="1188" 
d="M593 -21c-80.667 0 -162.833 12.4961 -246.5 37.4961s-164.834 64.167 -243.501 117.5v270h77l8 -227c65.333 -41.333 132.333 -71.666 201 -90.999s136.667 -29 204 -29c80.667 0 151.834 12.5 213.501 37.5s109.834 60 144.501 105s52 96.833 52 155.5
c0 58 -13.667 108.333 -41 151s-71.833 80.5 -133.5 113.5s-144.834 63.5 -249.501 91.5c-108 29.333 -195 61.833 -261 97.5s-114 78.334 -144 128.001s-45 109.834 -45 180.501c0 71.333 19 133.833 57 187.5s91.333 95.834 160 126.501s148.667 46 240 46
c95.333 0 181.166 -14.333 257.499 -43s142.166 -66.334 197.499 -113.001v-247h-77l-7 205c-47.333 38.667 -102.166 68.334 -164.499 89.001s-131.166 31 -206.499 31c-78 0 -144.667 -12.667 -200 -38s-97.5 -59.166 -126.5 -101.499s-43.5 -88.833 -43.5 -139.5
c0 -52 10.833 -97.667 32.5 -137s60.834 -74.333 117.501 -105s137 -59.667 241 -87c159.333 -42 279.833 -96.333 361.5 -163s122.5 -157 122.5 -271c0 -76.667 -21.5 -143.334 -64.5 -200.001s-101.833 -100.5 -176.5 -131.5s-160.334 -46.5 -257.001 -46.5z
M551.001 -532.004l-48 40.999c22 30.667 38 60 48 88s15 61.333 15 100v71h83v-69c0 -48 -8.33301 -91.167 -25 -129.5s-41 -72.166 -73 -101.499z" />
    <glyph glyph-name="uni0219" unicode="&#x219;" horiz-adv-x="1012" 
d="M493 -21c-77.333 0 -148.833 11.5 -214.5 34.5s-123.834 55.167 -174.501 96.5l-1 208h76l9 -162c38.667 -35.333 84.334 -61 137.001 -77s108.667 -24 168 -24c95.333 0 169.5 21.5 222.5 64.5s79.5 93.167 79.5 150.5c0 54 -22.833 102.5 -68.5 145.5
s-126.167 77.167 -241.5 102.5c-128 27.333 -220 63.5 -276 108.5s-84 108.833 -84 191.5c0 54 14.667 102.333 44 145s71.166 76.5 125.499 101.5s118.5 37.5 192.5 37.5c78.667 0 147.334 -12.333 206.001 -37s108.667 -58 150 -100l2 -212h-75l-8 168
c-32 33.333 -69.833 59 -113.5 77s-97.5 27 -161.5 27c-89.333 0 -157.5 -20.667 -204.5 -62s-70.5 -88.666 -70.5 -141.999c0 -35.333 7.66699 -66.5 23 -93.5s44 -51 86 -72s103.667 -40.833 185 -59.5c128 -28.667 222.667 -68.5 284 -119.5s92 -118.833 92 -203.5
c0 -86.667 -34.5 -157.334 -103.5 -212.001s-164.167 -82 -285.5 -82zM462 -532l-48 40.999c22 30.667 38 60 48 88s15 61.333 15 100v71h83v-69c0 -48 -8.33301 -91.167 -25 -129.5s-41 -72.166 -73 -101.499z" />
    <glyph glyph-name="uni021A" unicode="&#x21a;" horiz-adv-x="1307" 
d="M445 0v71l163 6v1303h-442l-7 -230h-75v306h1136v-306h-75l-7 230h-443v-1303l163 -6v-71h-413zM611 -532l-48 40.999c22 30.667 38 60 48 88s15 61.333 15 100v71h83v-69c0 -48 -8.33301 -91.167 -25 -129.5s-41 -72.166 -73 -101.499z" />
    <glyph glyph-name="uni021B" unicode="&#x21b;" horiz-adv-x="722" 
d="M480 -20c-74.667 0 -131.832 23.667 -171.499 71s-59.5 123.333 -59.5 228v727h-193v76h193v285h88v-285h258v-76h-258v-727c0 -80 13.833 -137.333 41.5 -172s64.5 -52 110.5 -52c22 0 42.667 1 62 3s42 4.66699 68 8l14 -68c-22 -6 -45.833 -10.5 -71.5 -13.5
s-52.834 -4.5 -81.501 -4.5zM408.002 -532l-48 40.999c22 30.667 38 60 48 88s15 61.333 15 100v71h83v-69c0 -48 -8.33301 -91.167 -25 -129.5s-41 -72.166 -73 -101.499z" />
    <glyph glyph-name="uni0237" unicode="&#x237;" horiz-adv-x="554" 
d="M96 -437c-20 0 -38.6641 1.66602 -55.9971 4.99902s-36 8.33301 -56 15l13 74c11.333 -4 26.666 -7.83301 45.999 -11.5s37 -5.5 53 -5.5c65.333 0 116.166 23.667 152.499 71s54.5 114 54.5 200v1094l-163 6v71h250v-1171c0 -111.333 -25.833 -197.166 -77.5 -257.499
s-123.834 -90.5 -216.501 -90.5z" />
    <glyph glyph-name="uni0259" unicode="&#x259;" horiz-adv-x="1051" 
d="M512 -21c-86 0 -160.333 18.499 -223 55.499s-111.334 89.333 -146.001 157s-52 147.5 -52 239.5v92h786v21.5v39.5c0 82 -16.333 156.5 -49 223.5s-77.167 120 -133.5 159s-120.5 58.5 -192.5 58.5c-78 0 -143.667 -10.833 -197 -32.5s-99 -52.834 -137 -93.501l-40 62
c41.333 44.667 92.833 79.334 154.5 104.001s134.834 37 219.501 37c86 0 164 -23 234 -69s125.667 -108.667 167 -188s62 -168.666 62 -267.999v-60c0 -104 -20.167 -196.5 -60.5 -277.5s-94.833 -144.667 -163.5 -191s-145 -69.5 -229 -69.5zM512 56.999
c64.667 0 122.666 16.5 173.999 49.5s92.833 78.5 124.5 136.5s50.834 123.667 57.501 197l-2 6h-688v-31c0 -69.333 13.667 -130.833 41 -184.5s66 -96 116 -127s109 -46.5 177 -46.5z" />
    <glyph glyph-name="uni02BC" unicode="&#x2bc;" horiz-adv-x="343" 
d="M124 1084l-54 41c30.667 42 53.334 83.167 68.001 123.5s22 86.5 22 138.5v173h87v-171c0 -40.667 -4.83301 -79.5 -14.5 -116.5s-23.834 -71.5 -42.501 -103.5s-40.667 -60.333 -66 -85z" />
    <glyph glyph-name="circumflex" unicode="&#x2c6;" horiz-adv-x="609" 
d="M40 1328v19l224 213h78l227 -216v-16h-83l-184 177l-180 -177h-82z" />
    <glyph glyph-name="caron" unicode="&#x2c7;" horiz-adv-x="609" 
d="M569 1560v-19l-224 -213h-78l-227 216v16h83l184 -177l180 177h82z" />
    <glyph glyph-name="uni02C9" unicode="&#x2c9;" horiz-adv-x="729" 
d="M40 1404v74h649v-74h-649z" />
    <glyph glyph-name="breve" unicode="&#x2d8;" horiz-adv-x="646" 
d="M323 1307c-88 0 -157.333 23 -208 69s-75.667 105.333 -75 178l2 6h75c0 -54 16.5 -97.833 49.5 -131.5s85.167 -50.5 156.5 -50.5c68.667 0 120.167 17 154.5 51s51.5 77.667 51.5 131h75l2 -6c0 -72.667 -25.167 -132 -75.5 -178s-119.5 -69 -207.5 -69z" />
    <glyph glyph-name="dotaccent" unicode="&#x2d9;" horiz-adv-x="183" 
d="M40 1404v156h103v-156h-103z" />
    <glyph glyph-name="ring" unicode="&#x2da;" horiz-adv-x="438" 
d="M220 1215c-50.667 0 -93.334 16.667 -128.001 50s-52 75.333 -52 126s17.333 93.167 52 127.5s77.334 51.5 128.001 51.5c49.333 0 91.333 -17.167 126 -51.5s52 -76.833 52 -127.5s-17.333 -92.667 -52 -126s-76.667 -50 -126 -50zM220 1277
c32 0 58.833 10.499 80.5 31.499s32.5 48.5 32.5 82.5s-10.833 62 -32.5 84s-48.5 33 -80.5 33c-33.333 0 -60.833 -11 -82.5 -33s-32.5 -50 -32.5 -84c0 -33.333 10.833 -60.666 32.5 -81.999s49.167 -32 82.5 -32z" />
    <glyph glyph-name="ogonek" unicode="&#x2db;" horiz-adv-x="428" 
d="M222 -425c-54 0 -97.832 15.834 -131.499 47.501s-50.5 76.167 -50.5 133.5c0 46 14.833 90.5 44.5 133.5s79.167 89.5 148.5 139.5l56 -29c-56.667 -48.667 -98.834 -90.334 -126.501 -125.001s-41.5 -72.667 -41.5 -114c0 -25.333 7.33301 -50.333 22 -75
s44 -37 88 -37c20 0 38.167 3.33301 54.5 10s32.833 15 49.5 25l20 -65c-18 -12 -37.833 -22.333 -59.5 -31s-46.167 -13 -73.5 -13z" />
    <glyph glyph-name="tilde" unicode="&#x2dc;" horiz-adv-x="731" 
d="M105 1357l-65 5c0 38 8 71.333 24 100s37.167 51.5 63.5 68.5s55.5 25.5 87.5 25.5c36.667 0 72.834 -9.83301 108.501 -29.5l103 -59.5c33 -20 63.5 -30 91.5 -30c27.333 0 52.166 11.333 74.499 34s33.5 53.334 33.5 92.001l65 -6
c0 -37.333 -7.66699 -70.833 -23 -100.5s-36 -52.834 -62 -69.501s-54.667 -25 -86 -25c-36.667 0 -72.834 10 -108.501 30l-103.5 60c-33.333 20 -64.666 30 -93.999 30c-28.667 0 -54 -11 -76 -33s-33 -52.667 -33 -92z" />
    <glyph glyph-name="hungarumlaut" unicode="&#x2dd;" horiz-adv-x="856" 
d="M285 1316l-2 5l220 239h105l2 -6l-246 -238h-79zM43 1318l-3 4l180 238h98l3 -6l-206 -236h-72z" />
    <glyph glyph-name="uni02F3" unicode="&#x2f3;" horiz-adv-x="483" 
d="M242 -497c-50.667 0 -93.334 16.667 -128.001 50s-52 75.333 -52 126s17.333 93.167 52 127.5s77.334 51.5 128.001 51.5c49.333 0 91.333 -17.167 126 -51.5s52 -76.833 52 -127.5s-17.333 -92.667 -52 -126s-76.667 -50 -126 -50zM242 -435
c32 0 58.833 10.499 80.5 31.499s32.5 48.5 32.5 82.5s-10.833 62 -32.5 84s-48.5 33 -80.5 33c-33.333 0 -60.833 -11 -82.5 -33s-32.5 -50 -32.5 -84c0 -33.333 10.833 -60.666 32.5 -81.999s49.167 -32 82.5 -32z" />
    <glyph glyph-name="gravecomb" unicode="&#x300;" 
d="M325 1320l-3 -4h-67l-215 239l2 5h102z" />
    <glyph glyph-name="acutecomb" unicode="&#x301;" 
d="M40 1320l181 240h102l2 -5l-215 -239h-66z" />
    <glyph glyph-name="uni0302" unicode="&#x302;" 
d="M40 1328v19l224 213h78l227 -216v-16h-83l-184 177l-180 -177h-82z" />
    <glyph glyph-name="tildecomb" unicode="&#x303;" 
d="M105 1357l-65 5c0 38 8 71.333 24 100s37.167 51.5 63.5 68.5s55.5 25.5 87.5 25.5c36.667 0 72.834 -9.83301 108.501 -29.5l103 -59.5c33 -20 63.5 -30 91.5 -30c27.333 0 52.166 11.333 74.499 34s33.5 53.334 33.5 92.001l65 -6
c0 -37.333 -7.66699 -70.833 -23 -100.5s-36 -52.834 -62 -69.501s-54.667 -25 -86 -25c-36.667 0 -72.834 10 -108.501 30l-103.5 60c-33.333 20 -64.666 30 -93.999 30c-28.667 0 -54 -11 -76 -33s-33 -52.667 -33 -92z" />
    <glyph glyph-name="uni0304" unicode="&#x304;" 
d="M40 1404v74h649v-74h-649z" />
    <glyph glyph-name="uni0306" unicode="&#x306;" 
d="M323 1307c-88 0 -157.333 23 -208 69s-75.667 105.333 -75 178l2 6h75c0 -54 16.5 -97.833 49.5 -131.5s85.167 -50.5 156.5 -50.5c68.667 0 120.167 17 154.5 51s51.5 77.667 51.5 131h75l2 -6c0 -72.667 -25.167 -132 -75.5 -178s-119.5 -69 -207.5 -69z" />
    <glyph glyph-name="uni0307" unicode="&#x307;" 
d="M40 1404v156h103v-156h-103z" />
    <glyph glyph-name="uni0308" unicode="&#x308;" 
d="M384 1405v155h103v-155h-103zM40 1405v155h104v-155h-104z" />
    <glyph glyph-name="hookabovecomb" unicode="&#x309;" 
d="M81 1283l-1.00098 111c60.667 4.66699 103 13.5 127 26.5s36 32.5 36 58.5c0 34 -19.333 58.167 -58 72.5s-87 21.5 -145 21.5l7 63c85.333 0 152.333 -14 201 -42s73 -66.667 73 -116c0 -42 -15.167 -74.5 -45.5 -97.5s-72.166 -36.5 -125.499 -40.5v-57h-69z" />
    <glyph glyph-name="uni030A" unicode="&#x30a;" 
d="M220 1215c-50.667 0 -93.334 16.667 -128.001 50s-52 75.333 -52 126s17.333 93.167 52 127.5s77.334 51.5 128.001 51.5c49.333 0 91.333 -17.167 126 -51.5s52 -76.833 52 -127.5s-17.333 -92.667 -52 -126s-76.667 -50 -126 -50zM220 1277
c32 0 58.833 10.499 80.5 31.499s32.5 48.5 32.5 82.5s-10.833 62 -32.5 84s-48.5 33 -80.5 33c-33.333 0 -60.833 -11 -82.5 -33s-32.5 -50 -32.5 -84c0 -33.333 10.833 -60.666 32.5 -81.999s49.167 -32 82.5 -32z" />
    <glyph glyph-name="uni030B" unicode="&#x30b;" 
d="M285 1316l-2 5l220 239h105l2 -6l-246 -238h-79zM43 1318l-3 4l180 238h98l3 -6l-206 -236h-72z" />
    <glyph glyph-name="uni030C" unicode="&#x30c;" 
d="M569 1560v-19l-224 -213h-78l-227 216v16h83l184 -177l180 177h82z" />
    <glyph glyph-name="uni030F" unicode="&#x30f;" 
d="M365 1316h-78l-247 238l2 6h105l220 -239zM607 1318h-71l-207 236l3 6h98l180 -238z" />
    <glyph glyph-name="uni0312" unicode="&#x312;" 
d="M138 1649l47.999 -42.001c-21.333 -29.333 -37.166 -58.166 -47.499 -86.499s-15.5 -61.833 -15.5 -100.5v-71h-83v69c0 48.667 8.5 92 25.5 130s41.167 71.667 72.5 101z" />
    <glyph glyph-name="uni031B" unicode="&#x31b;" 
d="M40 886v67.9971c54.667 0 97 8.5 127 25.5s51 43.333 63 79s18 81.834 18 138.501h79c0 -68.667 -9.5 -126.167 -28.5 -172.5s-49.333 -81.166 -91 -104.499s-97.5 -34.666 -167.5 -33.999z" />
    <glyph glyph-name="dotbelowcomb" unicode="&#x323;" 
d="M40 -374v156h103v-156h-103z" />
    <glyph glyph-name="uni0325" unicode="&#x325;" 
d="M220 -497c-50.667 0 -93.334 16.667 -128.001 50s-52 75.333 -52 126s17.333 93.167 52 127.5s77.334 51.5 128.001 51.5c49.333 0 91.333 -17.167 126 -51.5s52 -76.833 52 -127.5s-17.333 -92.667 -52 -126s-76.667 -50 -126 -50zM220 -435
c32 0 58.833 10.499 80.5 31.499s32.5 48.5 32.5 82.5s-10.833 62 -32.5 84s-48.5 33 -80.5 33c-33.333 0 -60.833 -11 -82.5 -33s-32.5 -50 -32.5 -84c0 -33.333 10.833 -60.666 32.5 -81.999s49.167 -32 82.5 -32z" />
    <glyph glyph-name="uni0326.1" unicode="&#x326;" 
d="M88 -532l-48 40.999c22 30.667 38 60 48 88s15 61.333 15 100v71h83v-69c0 -48 -8.33301 -91.167 -25 -129.5s-41 -72.166 -73 -101.499z" />
    <glyph glyph-name="uni0327" unicode="&#x327;" 
d="M47 -435l-7.00098 63c64.667 0 120 11 166 33s69 54.333 69 97c0 40 -14.5 67.833 -43.5 83.5s-80.5 26.5 -154.5 32.5l28 133h74l-13 -79c56.667 -5.33301 101.834 -20.833 135.501 -46.5s50.5 -66.5 50.5 -122.5c0 -59.333 -26.333 -106.5 -79 -141.5
s-128 -52.5 -226 -52.5z" />
    <glyph glyph-name="uni0328" unicode="&#x328;" 
d="M222 -425c-54 0 -97.832 15.834 -131.499 47.501s-50.5 76.167 -50.5 133.5c0 46 14.833 90.5 44.5 133.5s79.167 89.5 148.5 139.5l56 -29c-56.667 -48.667 -98.834 -90.334 -126.501 -125.001s-41.5 -72.667 -41.5 -114c0 -25.333 7.33301 -50.333 22 -75
s44 -37 88 -37c20 0 38.167 3.33301 54.5 10s32.833 15 49.5 25l20 -65c-18 -12 -37.833 -22.333 -59.5 -31s-46.167 -13 -73.5 -13z" />
    <glyph glyph-name="uni0335" unicode="&#x335;" 
d="M40 708v77h540v-77h-540z" />
    <glyph glyph-name="uni0336" unicode="&#x336;" 
d="M40 775v75h1370v-75h-1370z" />
    <glyph glyph-name="uni0337" unicode="&#x337;" 
d="M40 660v83l467 187v-83z" />
    <glyph glyph-name="uni0338" unicode="&#x338;" 
d="M40 -143l709 1360h79l-710 -1360h-78z" />
    <glyph glyph-name="tonos" unicode="&#x384;" horiz-adv-x="469" 
d="M138 1292l112 296h100l-153 -296h-59z" />
    <glyph glyph-name="dieresistonos" unicode="&#x385;" horiz-adv-x="547" 
d="M233 1412l74 247h106l-122 -247h-58zM40 1303v151h102v-151h-102zM406 1303v151h101v-151h-101z" />
    <glyph glyph-name="Alphatonos" unicode="&#x386;" horiz-adv-x="1486" 
d="M58 0v71l108 3l520 1382h90l519 -1382l107 -3v-71h-334v71l135 4l-132 355h-682l-132 -355l135 -4v-71h-334zM419 510h623l-284 767l-24 71h-6l-24 -71zM284 1292l112 296h100l-153 -296h-59z" />
    <glyph glyph-name="anoteleia" unicode="&#x387;" horiz-adv-x="482" 
d="M172 635v147h112v-147h-112z" />
    <glyph glyph-name="Epsilontonos" unicode="&#x388;" horiz-adv-x="1395" 
d="M190 0v71l163 6v1302l-163 6v71h1033v-306h-78l-5 229h-700v-583h609v-77h-609v-643h730l5 230h78v-306h-1063zM-30 1292l112 296h100l-153 -296h-59z" />
    <glyph glyph-name="Etatonos" unicode="&#x389;" horiz-adv-x="1667" 
d="M218 0v71l163 6v1302l-163 6v71h413v-71l-163 -6v-619h876v619l-163 6v71h163h87h163v-71l-163 -6v-1302l163 -6v-71h-413v71l163 6v606h-876v-606l163 -6v-71h-413zM-30 1292l112 296h100l-153 -296h-59z" />
    <glyph glyph-name="Iotatonos" unicode="&#x38a;" horiz-adv-x="682" 
d="M196 0v71l163 6v1302l-163 6v71h413v-71l-163 -6v-1302l163 -6v-71h-413zM-30 1292l112 296h100l-153 -296h-59z" />
    </font>
</defs>
</svg>
